<?xml version="1.0" standalone="yes"?>
<svg xmlns="http://www.w3.org/2000/svg" width="150" height="261">
<path style="fill:none; stroke:none;" d="M0 0L0 44L0.972222 43.2222L1.16667 42.6944L1.63889 41.8889L2.33333 40L2.66667 39L3.38889 37L3.83333 36L4.27778 35L5.44444 33L6.16667 32L6.83333 31L7.55556 30L8.83333 28L9.47222 27L11 25L11.8056 24L13.3889 22.0833L15.0833 20.3889L17 18.8056L19 17.2222L20 16.4722L22 15.1944L23 14.6389L24 14.0556L26 13.0833L27 12.6944L29 11.9722L30 11.6111L31 11.1944L33 10.4444L34 10.1667L35.9167 9.52779L36.7778 9.05556L37.6111 8.5L39.2222 6.91667L40.0833 5.97223L42 4.08334L43.9444 2.5L44.9444 1.91669L45.5 1.52777L47 1L46.2222 0.277771L45.6944 0.25L44.8889 0.055542L43.9722 0.027771L43 0L41 0L40 0L38 0L33 0L0 0z"/>
<path style="fill:#99b8a5; stroke:none;" d="M47 0L47.7778 0.722229L48.3056 0.75L49.1111 0.944458L49.9722 0.972229L50.9444 1L53 1L52.2222 0.277771L51.6944 0.25L50.8889 0.055542L50.0278 0.027771L49.0556 0L47 0z"/>
<path style="fill:none; stroke:none;" d="M53 0L53.7778 0.805573L54.3056 1L55.1111 1.41669L56.9722 2.27777L58.7778 3.38889L60.3889 4.69446L61.1944 5.41666L62.7778 7.08333L63.5278 8.02777L64.7222 10L65.6111 12L65.9722 13L66.5556 15L66.6944 16L66.5 18L65.8056 20L65.3889 21L64.5833 23L63.5 25L62.75 25.9722L61.9167 26.9167L60 28.5833L58 29.9722L56 31.0833L55 31.5L54 31.75L53 31.9167L51 32L50 31.9722L49 31.9167L47 31.5L46 31.0556L45 30.5L43 29L42 28.2222L41 27.5L39 26.5278L38 26.3333L36 26.5L34 27.25L33 27.7778L32 28.25L30 29.3889L28 30.6944L27 31.4167L25.0278 33.0833L24.0833 34.0278L22.4722 36L21.8611 37L20.7778 39L20.25 40L19.3889 42L19.0278 43L18.3333 45L18 46L17.4167 48L17.0833 50L17.0278 51L17 53L17 54L17 56L17 68L17 87L17 93L17 95L17.0278 96L17.0833 97L17.3889 99L17.6389 100L17.8611 101L18.1389 102L18.3611 103L18.6111 104L18.9167 106L19.0278 108L19.0833 109L19.4722 111L19.8333 112L20.5556 114L21.1389 116L21.7222 118L22.0833 119L22.9722 121L23.4167 122L23.7778 123L24.4722 125L24.9167 126L25.4167 127L26.6111 129L27.8056 131L28.3889 132L29.6944 134L31.1944 136L32.8056 138L34.3889 139.972L36.0833 141.778L38 143.389L40 145.056L41 145.944L43 147.583L44 148.306L46 149.611L48 150.75L49 151.222L50 151.75L52 152.528L52.9444 152.75L54.5 152.972L56 153L56 150.944L56 149.944L55.9722 148L55.9167 147L55.6111 145L55.3611 144L54.8611 142L54.6111 141L53.9167 139L52.9167 137L51.5833 135L49.9167 133L48.9722 132L48 131L47 130L45 128.083L43.0833 126.389L42.2222 125.611L41.3889 124.778L39.8611 122.972L39.1389 122L38.3889 121L37.6944 120L36.3333 118L35.0833 116L34.0833 114L33.6944 113L32.9167 111L32.0278 109L31.6111 108L31.2778 107L30.8056 105L30.6111 104L30.3889 103L30.0833 101L30.0278 100L30 99L30 97L30 95L30.0278 93L30.0833 92L30.3889 90L30.6111 89L30.9444 87L31.3056 85L32 83L32.4167 82L33.1389 80L33.9167 78L34.4167 77L35.6667 75L36.3333 74L37.6944 72L38.3889 71L39.1389 70L40.6389 68L41.3889 67L43.0833 65.0833L44.0278 64.2222L45 63.3889L47 61.8056L49 60.2222L50 59.4722L52 58.1944L53.9444 57.0556L54.5 56.6944L56 56L56.5833 58.0556L56.7778 59.0556L56.9167 60L57 62L57 64L57 69L57 85L57 90L57 92L57.0278 94L57.1111 95L57.3333 96L57.7222 96.9722L59.1111 98.7778L60.0278 99.5833L61 100.306L63 101.667L65 103L67 104.333L68 104.972L69 105.611L71 106.722L73 107.528L75 107.889L76 107.861L78 107.306L79 106.75L81 105.444L83 104.194L84 103.611L86 102.306L88 100.861L88.9444 100.194L89.9444 99.4444L92 98L92 57L93 56L94.5 56.1111L96.0556 56.6944L98 57.8889L100 59.3611L101 60.1389L103 61.6389L104 62.3889L106 64.0833L107.917 66L109.528 68L110.833 70L111.444 71L112.833 73L113.556 74L114.75 76L115.222 77L116.222 79L116.75 80L117.528 82L117.778 83L118.194 85L118.611 87L118.778 88L118.917 89L119 91L119 92L119 93L119 95L119 100L119 102L118.972 103L118.917 104L118.611 106L118.111 108L117.417 110L116.972 111L116.056 113L115.639 114L114.722 116L113.556 118L112.833 119L111.361 121L110.611 122L108.917 124L107 126L106 127L104 129L102 131L100.083 133L99.2222 134L97.7222 136L97.1111 137L96.6111 138L95.8889 140L95.3611 142L95.1389 143L94.8611 144L94.6389 145L94.3889 146L94.0833 148L94.0278 149L94 150.944L94 153L95.5 152.972L97.0556 152.75L98 152.528L100 151.722L102 150.611L104 149.389L105 148.806L107 147.528L108 146.75L110 145L112 143.222L112.972 142.389L114.778 140.778L115.611 139.917L116.389 138.972L118.056 137L118.944 136L120.583 134L121.306 133L122.611 131L123.167 130L123.75 129L124.222 128L125.222 126L125.75 125L126.167 124L126.611 123L127.306 121L127.889 119L128.222 118L128.583 117L129.417 115L130.111 113L130.361 112L130.611 111L130.917 109L130.972 108L131.028 106L131.083 105L131.389 103L131.778 101L131.917 100L132.083 98L132.222 97L132.611 95L132.917 93L132.972 92L133 91L133 89L133 84L133 68L133 59L133 57L132.972 55L132.917 54L132.611 52L132.389 51L132.194 50L131.806 48L131.611 47L131.389 46L131 44L130.806 43L130.583 42L129.917 40L128.917 38L127.583 36L125.917 34L124.972 33L124 32.0278L123 31.0833L121 29.4167L119 28.0278L118 27.4167L116 26.5L115 26.25L113 26.1389L111 26.7222L109 28.0278L107 29.5278L105 30.7222L103 31.5278L101 31.9167L99 31.9722L97 31.75L96 31.5L95 31.0833L93 29.9722L91.0833 28.5833L89.4167 26.9167L88.6944 25.9722L87.3333 24L86.6667 23L85.4167 21L84.5 19L84.0833 17L84.0556 16L84.0833 15L84.4722 13L84.8611 12L85.7778 10L86.8611 8L87.4722 7L89.0833 5.02777L90.0278 4.08334L91.9444 2.5L93.5 1.52777L95 1L94.2222 0.277771L93.6944 0.25L92.8889 0.055542L91.9722 0.027771L91 0L89 0L87 0L82 0L53 0z"/>
<path style="fill:#99b8a5; stroke:none;" d="M95 0L95.7222 0.722229L96.25 0.75L98 1L97.2778 0.277771L96.75 0.25L95 0z"/>
<path style="fill:#6d9a83; stroke:none;" d="M98 0L98.7778 0.722229L99.3056 0.75L100.056 0.944458L100.972 0.972229L103 1L102.222 0.277771L101.694 0.25L100.944 0.055542L100.028 0.027771L98 0z"/>
<path style="fill:#99b8a5; stroke:none;" d="M103.667 0.333344L103.667 0.666656L104.333 0.666656L104.333 0.333344L103.667 0.333344z"/>
<path style="fill:none; stroke:none;" d="M105 0L105.778 1.05554L106.306 1.38889L107.111 2.05554L109 3.41666L110.972 5.08333L112.778 6.91667L114.389 8.5L116.083 9.52779L117.028 9.83333L119 10.4444L121 11.1944L122 11.6111L123 12L125 12.8889L127 14L128 14.6111L130 15.8333L131 16.4722L133 18.0833L134 19.0278L135.972 21L136.917 22L138.611 24L139.361 25L140.861 27L141.611 28L142.917 30L143.472 31L144.528 33L145.611 35L146.5 37L146.778 38L147.222 40L147.472 41L147.833 42L148.528 43.9444L148.917 45.5L149 47L149.722 46.2222L149.75 45.6944L149.944 44.8889L149.972 43.9722L150 43L150 41L150 40L150 38L150 33L150 0L105 0z"/>
<path style="fill:#99b8a5; stroke:none;" d="M45 1L46 2L45 1z"/>
<path style="fill:#6d9a83; stroke:none;" d="M44 2L44.7778 2.69446L45.3056 2.66669L46.1111 2.72223L48 2.38889L49 2.22223L50 2.11111L51 2.11111L53 2.38889L53.9444 2.61111L54.9444 2.77777L55.5 2.91666L57 3L56.2222 2.02777L55.6944 1.86111L54.8889 1.44446L53 1.08334L51 1L50 1L48 1.08334L47.0556 1.22223L46.0556 1.41666L44 2z"/>
<path style="fill:#99b8a5; stroke:none;" d="M55 1L56 2L55 1M93 1L94 2L93 1z"/>
<path style="fill:#6d9a83; stroke:none;" d="M92 2L92.7778 2.63889L93.25 2.52777L94.0556 2.52777L96 2L95.2222 1.36111L94.75 1.47223L93.9444 1.47223L92 2z"/>
<path style="fill:#1c3d70; stroke:none;" d="M113 7L111.583 5.94444L110.333 4.97223L109.611 4.38889L107.917 3.25L106 2.25L105 1.86111L104 1.47223L102 1.08334L100 1L99 1.02777L98 1.08334L96 1.47223L94 2.19446L93.0278 2.63889L92.0833 3.08331L90.4167 4.22223L89.0278 5.63889L88.3889 6.38889L87.25 8.08333L86.7778 9.02777L85.8611 11L85.4722 12L85.0833 14L85.0278 15L85 16L85.0833 18L85.5 20L85.9167 21L87.0278 23L87.6667 24L89 25.9167L89.6944 26.75L90.4167 27.5278L92.0833 28.8056L93.0278 29.3611L95 30.3611L96 30.6944L97 30.8889L99 31L100 31L102 30.9167L103 30.75L104 30.5278L105 30.1389L106 29.7222L107.972 28.5278L109.778 26.9167L110.583 25.9722L111.972 24L112.583 23L113.5 21L113.917 19L114 17L114 15L113.917 13L113.778 12L113.389 10.0556L113.222 9.05556L113.083 8.5L113 7z"/>
<path style="fill:#6d9a83; stroke:none;" d="M104 1L104.722 1.97223L105.25 2.16666L107 3L106 1L104 1z"/>
<path style="fill:#99b8a5; stroke:none;" d="M106 1L107 2L106 1M43 2L44 3L43 2z"/>
<path style="fill:#1c3d70; stroke:none;" d="M47 2.38889L45 2.88889L44 3.25L43 3.69446L41.1111 5.11111L40.3056 6.02777L39.6111 7L39.0278 8L38.5 9L37.6111 11L37.3056 12L37.1111 13L37 15L37 17L37 18L37.0833 20L37.25 21L37.5 22L38.5 24L39.25 25L40.0833 25.9722L42 27.7778L44 29.2778L45 29.8889L47 30.6944L49 30.9722L51 31L53 30.9722L55 30.75L56 30.5L57 30.0833L58.9722 28.9722L60.7778 27.5833L61.5833 26.7778L62.9167 24.9722L63.9167 23L64.5833 21L64.7778 20L64.9167 19L65 17L65 16L64.9722 14L64.9167 13L64.5278 11L64.1389 10L63.7222 9.02777L63.1389 8.08333L62.5278 7.22223L60.9167 5.63889L59 4.25L58 3.66666L56 2.88889L55 2.63889L53 2.22223L52 2.08334L51 2.02777L49 2.08334L47 2.38889z"/>
<path style="fill:#99b8a5; stroke:none;" d="M57 2L58 3L57 2M91 2L92 3L91 2M107 2L108 3L107 2z"/>
<path style="fill:#6d9a83; stroke:none;" d="M42 3L43 4L42 3M58 3L58 4L60 5L60 4L58 3z"/>
<path style="fill:#99b8a5; stroke:none;" d="M59 3L60 4L59 3M90 3L91 4L90 3z"/>
<path style="fill:#6d9a83; stroke:none;" d="M108 3L109 4L108 3z"/>
<path style="fill:#99b8a5; stroke:none;" d="M109 3L110 4L109 3M41 4L42 5L41 4M89 4L88 6L89.0833 5L89.4167 4.66666L89 4M110 4L110 5L112 6L111 4L110 4z"/>
<path style="fill:#6d9a83; stroke:none;" d="M40 5L41 6L40 5M60 5L61 6L60 5z"/>
<path style="fill:#99b8a5; stroke:none;" d="M61 5L62 6L61 5z"/>
<path style="fill:#6d9a83; stroke:none;" d="M89 5L90 6L89 5M110 5L111 6L110 5M39 6L40 7L39 6z"/>
<path style="fill:#99b8a5; stroke:none;" d="M62 6L63 7L62 6M87 6L88 7L87 6M112 6L113 7L112 6M38 7L39 8L38 7M63 7L64 8L63 7z"/>
<path style="fill:#6d9a83; stroke:none;" d="M87 7L88 8L87 7z"/>
<path style="fill:#99b8a5; stroke:none;" d="M113 7L114 8L113 7z"/>
<path style="fill:#6d9a83; stroke:none;" d="M38 8L36 10L35 10L35.7778 10.6944L37 10.6111L38.2222 9.77777L38.6111 8.75L38 8M63 8L64 9L63 8z"/>
<path style="fill:#99b8a5; stroke:none;" d="M86 8L87 9L86 8z"/>
<path style="fill:#6d9a83; stroke:none;" d="M113 8L113.111 9.38889L113.722 10.3333L115.056 10.8889L116.5 11L118 11L117.222 10.1667L116.694 9.94444L115.944 9.44444L114.5 8.66667L113 8z"/>
<path style="fill:#99b8a5; stroke:none;" d="M36 9L37 10L36 9M64 9L65 10L64 9z"/>
<path style="fill:#6d9a83; stroke:none;" d="M86 9L87 10L86 9z"/>
<path style="fill:#99b8a5; stroke:none;" d="M115 9L116 10L115 9M32 10L32.7222 10.7222L33.25 10.75L35 11L34.2778 10.2778L33.75 10.25L32 10z"/>
<path style="fill:#6d9a83; stroke:none;" d="M64 10L65 11L64 10z"/>
<path style="fill:#99b8a5; stroke:none;" d="M85 10L86 11L85 10M118.667 10.3333L118.667 10.6667L119.333 10.6667L119 10.3333L118.667 10.3333M30 11L31 12L30 11z"/>
<path style="fill:#6d9a83; stroke:none;" d="M31 11L29 12L29.75 12.6111L30.1667 12.4444L30.7222 12.3333L31.3611 11.6667L31 11z"/>
<path style="fill:#0cad0b; stroke:none;" d="M16 143L17.5 142.889L19.0556 142.361L20 141.889L22 140.611L22.9722 139.861L24.7778 138.361L25.5833 137.611L26.8889 135.917L27.6111 134L27.5 132L26.7222 130L26.1667 129L25 127L24.4167 126L23.3889 124L22.9444 123L22.0278 121L21.5833 120L20.8611 118L20.5556 117L19.8333 115L19.4444 114L18.8611 112L18.6389 111L18.3889 110L18.1944 109L17.8056 107L17.5833 106L17.3056 105L17 104L16.4167 102L16.0833 100L16.0278 99L16 98L16 96L16 91L16 77L16 58L16 54L16 52L16 51L16.0833 49L16.4722 47L17.25 45L17.75 44L18.6389 42L19.0556 41L20.0833 39L21.4167 37L23.0833 35L25 33L27 31.0278L28 30.0833L30 28.4722L31 27.8611L32 27.2778L33 26.8333L34.9444 26L35.5 25.8056L37 25L37 11L35.5 11L34.9444 11.0278L33 11.3056L32 11.6111L30 12.4167L28 13.1389L27 13.4444L25 14.25L24 14.7778L23 15.25L22 15.8611L21 16.4444L20 17.1667L18 18.6389L17 19.3889L15 21.0833L13.0833 23L11.4167 25L10.6944 26L9.30556 28L7.88889 30L6.66667 32L6.22222 33L5.38889 35L4.38889 37L3.91667 38L3.5 39L3.22222 40L2.80556 42L2.61111 43L2.19444 45L1.80556 47L1.61111 48L1.38889 49L1.08333 51L1.02778 52L1 54L1 56L1 59L1 74L1 87L1 90L1 92L1.02778 94L1.08333 95L1.38889 97L1.77778 99L1.91667 100L2.02778 102L2.08333 103L2.38889 105L2.77778 107L2.91667 108L3.02778 110L3.08333 111L3.41667 113L3.69444 114L4.38889 116L5.16667 118L5.52778 119L5.94444 121L6.05556 122L6.47222 124L7.25 126L7.75 127L8.61111 129L9.38889 131L9.83333 132L10.2778 133L11.3611 135L11.9444 136L12.4722 137L13.5833 139L14.8056 140.944L15.25 141.5L16 143z"/>
<path style="fill:#99b8a5; stroke:none;" d="M65.3333 11.6667L65.3333 12.3333L65.6667 12.3333L65.6667 12L65.3333 11.6667z"/>
<path style="fill:#6d9a83; stroke:none;" d="M85 11L86 12L85 11z"/>
<path style="fill:#0cad0b; stroke:none;" d="M114 11L114 14.0556L114 15L113.972 17L113.917 18L113.611 19.9444L113.25 21.5L113 23L114.5 24.4167L116.056 25.5833L117 26.1667L118 26.8056L119 27.3889L121 28.6944L122 29.4167L123.917 31.0556L124.778 31.9444L126.306 33.6111L126.972 34.3889L127.611 35.2222L128.806 37.0278L129.361 38L129.944 39L130.917 41L131.306 42L131.667 43L132 44L132.583 46L132.917 48L133.083 50L133.389 52L133.611 53L133.917 55L133.972 56L134 57L134 59L134 66L134 83L134 89L134 91L133.972 92L133.917 93L133.611 95L133.389 96L133.083 98L133.028 99L133 101L132.972 102L132.917 103L132.611 105L132.361 106L132.139 107L131.861 108L131.389 110L131.194 111L130.778 113L130.528 114L129.833 116L129.444 117L128.861 119L128.611 120L127.917 122L127 124L126.5 125L125.472 127L124.944 128L123.833 130L123.278 131L122.861 131.944L122.278 133.5L122 135L123.5 135.778L124.056 136.306L125.056 137.111L127 138.917L129 140.583L130.944 141.889L132.5 142.667L134 143L135 141.5L135.25 140.944L136.389 139L137.583 137L138.611 135L139.528 133L140.472 131L140.944 130L141.361 129L141.806 128L142.556 126L143.139 124L143.694 122L144.389 120L145.167 118L145.528 117L145.917 115L145.972 114L146.028 112L146.083 111L146.417 109L146.694 108L147.306 106L147.583 105L148 103L148.389 101L148.611 100L148.917 98L148.972 96L148.944 95.0278L148.861 94.0833L148.833 93.2222L148.75 92.3889L148.778 91.6111L148.722 90.7778L148.778 89.9167L148.75 88.9722L148.833 88L148.861 87L148.944 86L149 84L149 83L149 80L149 73L149 59L149 56L149 54L148.972 52L148.917 51L148.611 49L148.389 48L148 46L147.528 44L146.833 42L146.25 40L146.056 39L145.917 38L145.361 36L144.361 34L143.833 33L143.25 32L142.778 31L142.222 30L141.75 29L140.528 27L138.944 25L138.056 24.0278L136.389 22.2222L135.611 21.3889L134.778 20.6111L132.972 18.9444L131 17.2222L130 16.4167L128 15.0278L127 14.4167L125 13.4722L124 13.1389L122 12.4167L120 11.6111L118 11.1111L117.056 11.0278L116.056 11L114 11z"/>
<path style="fill:#6d9a83; stroke:none;" d="M120 11L120.722 12.1389L121.25 12.3333L123 13L122.278 12.0278L121.75 11.8333L120 11z"/>
<path style="fill:#99b8a5; stroke:none;" d="M121 11L122 12L121 11M27.6667 12.3333L28 12.6667L28.3333 12.6667L28.3333 12.3333L27.6667 12.3333z"/>
<path style="fill:none; stroke:none;" d="M49.1111 12.7222L47.7222 14.1111L47.3333 15.0278L47.1389 16L47.1389 17L47.3333 17.9722L48.3333 19.6667L49.1111 20.2778L51 20.8611L52 20.8611L53.8889 20.2778L55.2778 18.8889L55.6667 17.9722L55.8611 17L55.8611 16L55.6667 15.0278L54.6667 13.3333L53.8889 12.7222L52 12.1389L51 12.1389L49.1111 12.7222z"/>
<path style="fill:#99b8a5; stroke:none;" d="M84 12L84 20L84.7222 19.2222L84.75 18.6944L84.9444 17.8889L84.9722 16.9722L85 16L84.9444 14.1111L84.75 13.3056L84.7222 12.7778L84 12z"/>
<path style="fill:none; stroke:none;" d="M97.1111 12.7222L95.7222 14.1111L95.3333 15.0278L95.1389 16L95.1389 17L95.3333 17.9722L96.3333 19.6667L97.1111 20.2778L99 20.8611L100 20.8611L101.889 20.2778L103.278 18.8889L103.667 17.9722L103.861 17L103.861 16L103.667 15.0278L102.667 13.3333L101.889 12.7222L100 12.1389L99 12.1389L97.1111 12.7222z"/>
<path style="fill:#99b8a5; stroke:none;" d="M123.667 12.3333L123.667 12.6667L124.333 12.6667L124 12.3333L123.667 12.3333M24 13L23 15L24.0833 14L24.4167 13.6667L24 13z"/>
<path style="fill:#6d9a83; stroke:none;" d="M25.6667 13.3333L25.6667 13.6667L26.3333 13.6667L26 13.3333L25.6667 13.3333M65 13L65 20L65.8056 19.2222L66.25 17.8889L66.3611 16.0278L66.25 15.1111L65.9444 14.3056L65.8056 13.7778L65 13M125 13L126 14L125 13z"/>
<path style="fill:#99b8a5; stroke:none;" d="M126 13L127 14L126 13z"/>
<path style="fill:#6d9a83; stroke:none;" d="M24 14L25 15L24 14z"/>
<path style="fill:#99b8a5; stroke:none;" d="M66.3333 14.6667L66.3333 15.3333L66.6667 15.3333L66.6667 15L66.3333 14.6667z"/>
<path style="fill:#6d9a83; stroke:none;" d="M127 14L128 15L127 14z"/>
<path style="fill:#99b8a5; stroke:none;" d="M21 15L22 16L21 15z"/>
<path style="fill:#6d9a83; stroke:none;" d="M22 15L23 16L22 15M128 15L129 16L128 15z"/>
<path style="fill:#99b8a5; stroke:none;" d="M129 15L130 16L129 15M19 16L17 18L17 19L18.3611 18.25L19.0833 17.1944L19.3611 16.75L19 16z"/>
<path style="fill:#6d9a83; stroke:none;" d="M20 16L21 17L20 16M130 16L130.778 17.5L131.306 18.0278L132.056 18.9444L133.5 20.2222L135 21L134.222 19.5L133.694 18.9722L132.944 18.0556L131.5 16.7778L130 16z"/>
<path style="fill:#99b8a5; stroke:none;" d="M131 16L132 17L131 16z"/>
<path style="fill:#6d9a83; stroke:none;" d="M19 17L20 18L19 17z"/>
<path style="fill:#99b8a5; stroke:none;" d="M66.3333 17.6667L66.3333 18L66.6667 18.3333L66.6667 17.6667L66.3333 17.6667M132 17L133 18L132 17z"/>
<path style="fill:#6d9a83; stroke:none;" d="M18 18L19 19L18 18z"/>
<path style="fill:#99b8a5; stroke:none;" d="M133 18L134 19L133 18z"/>
<path style="fill:#6d9a83; stroke:none;" d="M16 19L17 20L16 19z"/>
<path style="fill:#99b8a5; stroke:none;" d="M134 19L135 20L134 19M14 20L13 22L14.0833 21L14.4167 20.6667L14 20z"/>
<path style="fill:#6d9a83; stroke:none;" d="M15 20L16 21L15 20z"/>
<path style="fill:#99b8a5; stroke:none;" d="M65 20L66 21L65 20z"/>
<path style="fill:#6d9a83; stroke:none;" d="M85 20L86 21L85 20z"/>
<path style="fill:#99b8a5; stroke:none;" d="M135 20L136 21L135 20z"/>
<path style="fill:#6d9a83; stroke:none;" d="M14 21L15 22L14 21M64.3333 21.6667L64.3333 22.3333L64.6667 22.3333L64.6667 22L64.3333 21.6667z"/>
<path style="fill:#99b8a5; stroke:none;" d="M85 21L86 22L85 21M136 21L137.25 22.75L137.611 23.2778L139 24L138.278 22.6111L137.75 22.25L136 21z"/>
<path style="fill:#6d9a83; stroke:none;" d="M13 22L14 23L13 22M37 22L36.75 23.4444L36.4167 24.5556L36 26L37.5 26.0833L38 26.2222L39 26.4167L41 27L40.25 25.5L39.7778 24.9722L38.4444 23.3056L38.0833 22.7778L37 22M86 22L87 23L86 22M136 22L137 23L136 22M12 23L13 24L12 23z"/>
<path style="fill:#99b8a5; stroke:none;" d="M64 23L65 24L64 23z"/>
<path style="fill:#6d9a83; stroke:none;" d="M87.3333 23.6667L87.3333 24L87.6667 24.3333L87.6667 23.6667L87.3333 23.6667M111 26L112.5 25.6667L114 25.6389L114.5 25.6667L116 26L116 25L114 23L112.611 23.3611L111.667 24.2778L111.361 24.6111L111 26M137 23L138 24L137 23z"/>
<path style="fill:#99b8a5; stroke:none;" d="M11 24L12 25L11 24z"/>
<path style="fill:#6d9a83; stroke:none;" d="M63 24L62 26L63.0833 25L63.4167 24.6667L63 24M138 24L139 25L138 24z"/>
<path style="fill:#99b8a5; stroke:none;" d="M10 25L9 27L10.0833 26L10.4167 25.6667L10 25M63 25L64 26L63 25z"/>
<path style="fill:#6d9a83; stroke:none;" d="M88 25L89 26L88 25z"/>
<path style="fill:#99b8a5; stroke:none;" d="M112 25L112.722 25.7222L113.25 25.75L115 26L114.278 25.2778L113.75 25.25L112 25M139 25L140 26L139 25z"/>
<path style="fill:#6d9a83; stroke:none;" d="M10 26L11 27L10 26M27 31L28.5 30.3056L29.0556 29.9444L31 28.8333L31.9444 28.2778L32.9444 27.8333L33.5 27.5L35 27L34.2222 26.3611L33.6944 26.5L32.8889 26.5278L31 27.2778L29.1111 28.4167L28.3056 29.1944L27.7778 29.5833L27 31z"/>
<path style="fill:#99b8a5; stroke:none;" d="M35 26L36 27L35 26M39 26L40 27L39 26M62 26L63 27L62 26z"/>
<path style="fill:#6d9a83; stroke:none;" d="M89 26L90 27L89 26M110 26L111 27L110 26z"/>
<path style="fill:#99b8a5; stroke:none;" d="M116 26L117 27L116 26z"/>
<path style="fill:#6d9a83; stroke:none;" d="M117 26L118 27L117 26z"/>
<path style="fill:#99b8a5; stroke:none;" d="M140 26L141 27L140 26z"/>
<path style="fill:#6d9a83; stroke:none;" d="M9 27L10 28L9 27z"/>
<path style="fill:#99b8a5; stroke:none;" d="M33 27L34 28L33 27z"/>
<path style="fill:#6d9a83; stroke:none;" d="M41 27L42 28L41 27z"/>
<path style="fill:#99b8a5; stroke:none;" d="M61 27L62 28L61 27M89 27L90 28L89 27z"/>
<path style="fill:#6d9a83; stroke:none;" d="M109 27L110 28L109 27z"/>
<path style="fill:#99b8a5; stroke:none;" d="M118 27L118 28L120 29L119 27L118 27z"/>
<path style="fill:#6d9a83; stroke:none;" d="M119 27L120 28L119 27z"/>
<path style="fill:#99b8a5; stroke:none;" d="M141 27L142 28L141 27M8 28L9 29L8 28M31 28L32 29L31 28z"/>
<path style="fill:#6d9a83; stroke:none;" d="M42 28L43 29L42 28M59 28L60 29L59 28z"/>
<path style="fill:#99b8a5; stroke:none;" d="M60 28L61 29L60 28M90 28L91 29L90 28z"/>
<path style="fill:#6d9a83; stroke:none;" d="M91 28L92 29L91 28M108 28L109 29L108 28M120 28L121 29L120 28M141 28L142 29L141 28M8 29L9 30L8 29z"/>
<path style="fill:#99b8a5; stroke:none;" d="M29 29L30 30L29 29M43 29L43 30L45 31L45 30L43 29z"/>
<path style="fill:#6d9a83; stroke:none;" d="M44 29L45 30L44 29M58 29L59 30L58 29z"/>
<path style="fill:#99b8a5; stroke:none;" d="M92 29L92 30L94 31L93 29L92 29z"/>
<path style="fill:#6d9a83; stroke:none;" d="M93 29L94 30L93 29M106 29L107 30L106 29z"/>
<path style="fill:#99b8a5; stroke:none;" d="M107 29L108 30L107 29M121 29L121.778 30.5L123.056 31.9444L123.972 32.6944L124.5 33.2222L126 34L125.222 32.5L124.694 31.9722L123.944 31.0556L122.5 29.7778L121 29z"/>
<path style="fill:#6d9a83; stroke:none;" d="M122 29L123 30L122 29z"/>
<path style="fill:#99b8a5; stroke:none;" d="M142 29L142 30L143 32L143.611 31.25L143.472 30.8056L143.111 29.75L142 29z"/>
<path style="fill:#6d9a83; stroke:none;" d="M7 30L8 31L7 30z"/>
<path style="fill:#99b8a5; stroke:none;" d="M28 30L29 31L28 30z"/>
<path style="fill:#6d9a83; stroke:none;" d="M45 30L46 31L45 30M56 30L57 31L56 30z"/>
<path style="fill:#99b8a5; stroke:none;" d="M57 30L58 31L57 30z"/>
<path style="fill:#6d9a83; stroke:none;" d="M94 30L95 31L94 30M104.667 30.3333L105 30.6667L105.333 30.6667L105 30.3333L104.667 30.3333M123 30L124 31L123 30M142 30L143 31L142 30M6 31L7 32L6 31M26 31L27 32L26 31z"/>
<path style="fill:#99b8a5; stroke:none;" d="M46 31L46.7778 31.7222L47.3056 31.75L48.1111 31.9444L49.0278 31.9722L51 32L52.9444 32L56 32L55.2222 31.2778L54.6944 31.25L53.8889 31.0556L52.9722 31.0278L51 31L49.0556 31L46 31M95 31L95.7778 31.7222L96.3056 31.75L97.1111 31.9444L98.0278 31.9722L100 32L100.944 32L104 32L103.222 31.2778L102.694 31.25L101.889 31.0556L100.972 31.0278L99 31L98.0556 31L95 31z"/>
<path style="fill:#6d9a83; stroke:none;" d="M124 31L125 32L124 31z"/>
<path style="fill:#99b8a5; stroke:none;" d="M5 32L6 33L5 32z"/>
<path style="fill:#6d9a83; stroke:none;" d="M25 32L26 33L25 32M125 32L126 33L125 32M143 32L144 33L143 32M5 33L4.5 34.5L4.19444 35.0556L3.83333 36L3.27778 37.5L3 39L4.05556 38.2222L4.36111 37.6944L4.94444 36.8889L5.63889 35.1111L5.69444 33.7778L5 33M24 33L25 34L24 33z"/>
<path style="fill:#99b8a5; stroke:none;" d="M144 33L145 35L146 35L146 34L144 33M4 34L5 35L4 34z"/>
<path style="fill:#6d9a83; stroke:none;" d="M23 34L24 35L23 34z"/>
<path style="fill:#99b8a5; stroke:none;" d="M126 34L127 36L128 36L127 34L126 34z"/>
<path style="fill:#6d9a83; stroke:none;" d="M127 34L128 35L127 34M144 34L145 35L144 34M22 35L23 36L22 35M145 35L146 36L145 35z"/>
<path style="fill:#99b8a5; stroke:none;" d="M3 36L4 37L3 36z"/>
<path style="fill:#6d9a83; stroke:none;" d="M21 36L22 37L21 36M128 36L129 37L128 36z"/>
<path style="fill:#99b8a5; stroke:none;" d="M146 36L146 40L146.722 39.2222L146.722 38.7222L146.889 38L146.722 36.7778L146 36M21 37L22 38L21 37M128 37L129 38L128 37z"/>
<path style="fill:#6d9a83; stroke:none;" d="M20 38L19 40L20.0833 39L20.4167 38.6667L20 38M129 38L130 39L129 38z"/>
<path style="fill:#99b8a5; stroke:none;" d="M2.33333 39.6667L2.33333 40.3333L2.66667 40.3333L2.66667 40L2.33333 39.6667M20 39L21 40L20 39z"/>
<path style="fill:#6d9a83; stroke:none;" d="M130 39L131 40L130 39z"/>
<path style="fill:#99b8a5; stroke:none;" d="M19.3333 40.6667L19.3333 41.3333L19.6667 41.3333L19.6667 41L19.3333 40.6667M130.333 40.6667L130.333 41L130.667 41.3333L130.667 40.6667L130.333 40.6667z"/>
<path style="fill:#6d9a83; stroke:none;" d="M146 40L146.278 41.5L146.472 42.0556L147.167 44L147.528 45L147.75 45.9444L147.972 47.5L148 49L148.722 48.2222L148.75 47.6944L148.917 46.8889L148.889 45.9722L148.528 44L147.778 42.1111L147.222 41.3056L147 40.7778L146 40M2 41L1.41667 43.0556L1.08333 45L1.02778 45.9444L1 46.9444L1 49L1.72222 48.2222L1.77778 47.6944L2.19444 45.9722L2.38889 45L2.72222 43.1111L2.66667 42.3056L2.69444 41.7778L2 41z"/>
<path style="fill:#99b8a5; stroke:none;" d="M147 41L148 42L147 41M1 42L2 43L1 42z"/>
<path style="fill:#6d9a83; stroke:none;" d="M18 42L17.5 43.5L17.1944 44.0556L16.4722 45.9444L16.0833 47.5L16 49L16.8056 48.2222L17 47.6944L17.4167 46.8889L18.1389 45.0278L18.4722 44.1111L18.5 43.3056L18.6389 42.7778L18 42M131 42L131.083 43.5L131.222 44.0556L131.389 45L131.75 46.5L132 48L132.694 47.2222L132.667 46.6944L132.722 45.8889L132.333 44.1111L131.972 43.3056L131.806 42.7778L131 42z"/>
<path style="fill:#99b8a5; stroke:none;" d="M148 43L149 44L148 43M0 44L1 45L0 44M18 44L19 45L18 44z"/>
<path style="fill:none; stroke:none;" d="M0 45L1 46L0 45z"/>
<path style="fill:#99b8a5; stroke:none;" d="M131.333 45.6667L131.333 46L131.667 46.3333L131.667 46L131.333 45.6667M0 46L0 99L0.722222 98.2222L0.75 97.6944L0.944444 96.8889L0.972222 95.9722L1 94L1 92L1 87L1 59L1 54L1 52L1 50L0.972222 49.0278L0.944444 48.1111L0.75 47.3056L0.722222 46.7778L0 46M17.3333 46.6667L17.3333 47.3333L17.6667 47.3333L17.6667 47L17.3333 46.6667M149 47L150 48L149 47M132 48L132 52L132.722 51.2222L132.722 50.7222L132.889 50L132.722 48.7778L132 48z"/>
<path style="fill:none; stroke:none;" d="M149 48L150 49L149 48z"/>
<path style="fill:#99b8a5; stroke:none;" d="M16 49L16 95L16.7222 94.2222L16.75 93.6944L16.9444 92.8889L16.9722 91.9722L17 90L17 88L17 84L17 60L17 56L17 54L16.9722 52.0278L16.9444 51.1111L16.75 50.3056L16.7222 49.7778L16 49M149 49L149 99L149.722 98.2222L149.75 97.6944L149.944 96.8889L149.972 95.9722L150 94L150 92L150 87L150 61L150 56L150 54L149.972 52.0278L149.944 51.1111L149.75 50.3056L149.722 49.7778L149 49z"/>
<path style="fill:#6d9a83; stroke:none;" d="M133 52L133 96L133.722 95.2222L133.75 94.6944L133.944 93.8889L133.972 92.9722L134 91L134 89L134 86L134 63L134 59L134 57L133.972 55.0278L133.944 54.1111L133.75 53.3056L133.722 52.7778L133 52z"/>
<path style="fill:#99b8a5; stroke:none;" d="M54.6667 56.3333L55 56.6667L55.3333 56.6667L55.3333 56.3333L54.6667 56.3333M93 56L92 58L93.0833 57L93.4167 56.6667L93 56z"/>
<path style="fill:#6d9a83; stroke:none;" d="M94 56L95 57L94 56z"/>
<path style="fill:#99b8a5; stroke:none;" d="M95 56L95.7778 57.0556L96.25 57.3611L97.5278 58.3056L99 59L98.2222 57.6111L97.75 57.2778L96.4722 56.3611L95 56z"/>
<path style="fill:#6d9a83; stroke:none;" d="M53 57L52 59L53.0833 58L53.4167 57.6667L53 57z"/>
<path style="fill:#1c3d70; stroke:none;" d="M54 57L52.5 58.25L50.9444 59.4167L50 60.1389L49 60.8611L48 61.6389L47 62.3611L45.0833 63.8611L44.2222 64.6389L43.3889 65.3889L42.6111 66.2222L41.8056 67.0833L40.1944 69L38.6944 71L37.3889 73L36.8056 74L36.1944 75L35.0833 77L34.6111 78L33.8611 80L33.5556 81L32.8333 83L32.4722 84L32 86L31.6111 88L31.3889 89L31.0833 91L31.0278 92L31 94L31 96L31 98L31.0278 100L31.0833 101L31.3889 103L31.6111 104L32 106L32.4722 108L32.8333 109L33.5556 111L33.8611 112L34.6111 114L35.0833 115L36.1944 117L36.8056 118L38.0278 120L39.4167 122L41.0833 124L42.0278 125L44 127L45 128L48 131L49 132L50 133L51.9167 135L53.5278 137L54.1389 138L55.2222 140L56.1389 142L56.5278 143L56.9167 145L57 147L57 148L57 150L57 155L55.5 154.722L53.9444 154.139L53 153.75L52 153.222L51 152.778L50 152.222L49 151.75L47 150.611L45 149.306L44 148.583L42 146.944L41 146.056L39 144.389L37.0278 142.778L36.0833 141.917L34.3889 140L32.7778 138.028L31.9167 137.111L30.0556 135.722L28.5 135.111L27 135L25.9167 136.417L24.7222 137.667L22.9722 139.139L21 140.639L20.0556 141.333L19.0556 142.167L18.5 142.583L17 144L17.6944 145.5L18.0833 146.056L18.7222 147.056L20.2222 149L21.0833 149.972L22.0278 150.917L23.9167 152.611L24.7778 153.389L25.6111 154.222L26.3889 155.083L28.0833 156.917L29.0278 157.778L31 159.306L32 160L34 161.333L35 162L37 163.389L38 164.111L39 164.778L41 165.917L43 166.889L44 167.389L46 168.389L47 168.778L49 169.444L51 170.194L52.9722 171.083L53.8889 171.639L55.3611 173.111L55.8889 174.028L56.5833 176L56.7778 177L56.9167 178L57 180L57 181L57 183L56.9722 184L56.9167 185L56.6111 187L56.3889 188L56.2222 189L55.9444 191L55.5 193L54.5 195L53.75 196L51.9722 198L51 199L49 201L47.0833 203L45.5 205L44.9167 206L43.9444 208L43.4722 209L42.6111 211L42.2778 212L42.0278 213L41.6111 215L41.1389 217L40.6389 219L40.3889 220L40.0833 222L40 224L40.0833 226L40.3889 228L40.6111 229L40.8056 230L41.1944 232L41.6111 234L41.9444 236L42.3056 238L43.0833 240L44.1944 242L44.8056 243L45.3889 244L46.6944 246L47.4167 247L49.0833 249L51 250.917L53 252.583L54 253.306L56 254.611L57 255.194L59 256.361L61 257.389L63 258.111L64 258.361L65 258.639L66 258.861L67 259.139L68 259.361L69 259.611L71 259.917L72 259.972L74 260L75 260L76 260L78 259.917L79 259.778L80 259.611L82 259.194L84 258.806L85 258.583L86 258.278L88 257.472L89 257L90 256.5L92 255.417L94 254.194L95 253.583L96.9722 252.389L97.9167 251.694L99.6111 249.972L100.361 249L101.861 247L102.611 246L103.972 244L104.611 243L105.75 241L106.222 240L107.139 238L107.528 237L107.944 235L108.056 234L108.472 232L108.833 231L109.528 229L109.917 227L109.972 226L110 224L109.972 222L109.889 221L109.694 220L109 218L108.583 217L107.889 215L107.306 213L106.611 211L106.194 210L105.361 208L104.944 207L103.917 205L102.583 203L100.917 201L99 199L97.1111 197L96.3333 196L95.7222 195L95.1111 193L95 191L95 190L95 187L95 182L95 180L95 179L94.9444 177L94.8611 176L94.7778 174.056L94.8333 173.056L95 171L96.5 170.917L98.0556 170.528L99 170.167L101 169.389L103 168.611L105 167.75L106 167.25L108 166.361L109 165.917L110 165.389L111 164.806L113 163.583L115 162.417L117 161.111L118 160.361L119 159.611L121 157.917L123 156L125 154L127 152L128 151L129.917 149L131.5 147L132.056 146.056L132.722 144.5L133 143L131.5 141.75L129.944 140.556L128 138.917L126 137.083L124.056 135.5L122.5 134.528L121 134L119.583 135.5L119.167 136.056L118.333 137.056L117.611 138L115.917 140L114 141.917L112 143.611L110 145.222L109 146.056L108 146.944L106 148.583L104 149.972L103 150.611L102 151.167L100 152.222L99 152.778L97 153.722L95.0556 154.306L94.0556 154.333L92 154L92.7222 152.5L92.75 151.944L92.9444 150.944L92.9722 150L93.0278 148L93.0833 147L93.4722 145L94.1667 143L94.5556 142L94.8333 141L95.4722 139L96.5 137L97.25 136L99.0278 134L101 132L103 130L105 128L106 127L107.917 125L109.611 123L110.361 122L111.139 121L112.556 119L113.75 117L114.222 116L114.75 115L115.611 113L115.972 112L116.611 110L116.861 109L117.361 107L117.611 106L117.917 104L117.972 103L118 101L118 100L118 97L118 92L118 90L117.972 89L117.917 88L117.611 86L117.361 85L116.861 83L116.611 82L115.972 80L115.611 79L114.75 77L114.222 76L113.75 75L112.556 73L111.167 71L110.444 70L109.167 68L107.75 66.0833L106.917 65.2222L105 63.6111L103 62L101 60.4167L100 59.6944L98 58.4167L96.0556 57.5L94.5 57.0833L93 57L93 85L93 90L93 92L92.9722 94L92.8889 95L92.2778 97L90.8889 98.9167L89 100.583L88 101.306L87 102L85 103.333L82 105.333L81 106L80 106.694L78 108.111L77 108.722L75 109.333L73 108.722L72 108.111L70 106.694L69 106L68 105.333L66 104L64 102.667L62 101.389L60.0278 100.167L59.0833 99.5278L57.5 97.9167L56.9444 96.9722L56.5 96L56.0833 94L56 92L56 91L56 89L56 85L56 57L54 57z"/>
<path style="fill:#6d9a83; stroke:none;" d="M56 57L56 97L56.7222 96.2222L56.75 95.6944L56.9444 94.8889L56.9722 93.9722L57 92L57 90L57 87L57 67L57 64L57 62L56.9722 60.0278L56.9444 59.1111L56.75 58.3056L56.7222 57.7778L56 57M96 57L97 58L96 57z"/>
<path style="fill:#99b8a5; stroke:none;" d="M51 58L52 59L51 58z"/>
<path style="fill:#6d9a83; stroke:none;" d="M92.3333 58.6667L92.3333 59.3333L92.6667 59.3333L92.6667 58.6667L92.3333 58.6667z"/>
<path style="fill:#99b8a5; stroke:none;" d="M49 59L47 61L47 62L48.3611 61.25L49.0833 60.1944L49.3611 59.75L49 59z"/>
<path style="fill:#6d9a83; stroke:none;" d="M50 59L51 60L50 59M99 59L100 60L99 59z"/>
<path style="fill:#99b8a5; stroke:none;" d="M100 59L101 60L100 59z"/>
<path style="fill:#6d9a83; stroke:none;" d="M49 60L50 61L49 60z"/>
<path style="fill:#99b8a5; stroke:none;" d="M92 60L92 97L92.7222 96.2222L92.75 95.6944L92.9444 94.8889L92.9722 93.9722L93 92L93 91L93 88L93 69L93 66L93 65L92.9722 63.0278L92.9444 62.1111L92.75 61.3056L92.7222 60.7778L92 60z"/>
<path style="fill:#6d9a83; stroke:none;" d="M101 60L102 61L101 60M48 61L49 62L48 61M102 61L103 62L102 61M46 62L47 63L46 62M103 62L103 63L105 64L104 62L103 62z"/>
<path style="fill:#99b8a5; stroke:none;" d="M104 62L105 63L104 62M44 63L43 65L44.0833 64L44.4167 63.6667L44 63z"/>
<path style="fill:#6d9a83; stroke:none;" d="M45 63L46 64L45 63z"/>
<path style="fill:#99b8a5; stroke:none;" d="M105 63L106 64L105 63z"/>
<path style="fill:#6d9a83; stroke:none;" d="M44 64L45 65L44 64z"/>
<path style="fill:#99b8a5; stroke:none;" d="M106 64L107 65L106 64M42 65L41 67L42.0833 66L42.4167 65.6667L42 65M107 65L108 66L107 65z"/>
<path style="fill:#6d9a83; stroke:none;" d="M42 66L43 67L42 66z"/>
<path style="fill:#99b8a5; stroke:none;" d="M108 66L109 67L108 66z"/>
<path style="fill:#6d9a83; stroke:none;" d="M41 67L42 68L41 67z"/>
<path style="fill:#99b8a5; stroke:none;" d="M109 67L110 68L109 67z"/>
<path style="fill:#6d9a83; stroke:none;" d="M40 68L41 69L40 68M109 68L110 69L109 68M39 69L40 70L39 69z"/>
<path style="fill:#99b8a5; stroke:none;" d="M110 69L111 70L110 69M38 70L39 71L38 70z"/>
<path style="fill:#6d9a83; stroke:none;" d="M110 70L111 71L110 70M38 71L39 72L38 71M111 71L112 72L111 71M37 72L38 73L37 72M112 72L113 73L112 72z"/>
<path style="fill:#99b8a5; stroke:none;" d="M36 73L37 74L36 73M113 73L114 74L113 73z"/>
<path style="fill:#6d9a83; stroke:none;" d="M36 74L37 75L36 74M113 74L114 75L113 74z"/>
<path style="fill:#99b8a5; stroke:none;" d="M35 75L34 77L35.0833 76L35.4167 75.6667L35 75M114 75L115 76L114 75z"/>
<path style="fill:#6d9a83; stroke:none;" d="M35 76L36 77L35 76M114 76L115 77L114 76M34 77L35 78L34 77z"/>
<path style="fill:#99b8a5; stroke:none;" d="M115 77L116 78L115 77M33.3333 78.6667L33.3333 79L33.6667 79.3333L33.6667 78.6667L33.3333 78.6667z"/>
<path style="fill:#6d9a83; stroke:none;" d="M115 78L116 79L115 78z"/>
<path style="fill:#99b8a5; stroke:none;" d="M116 79L117 80L116 79z"/>
<path style="fill:#6d9a83; stroke:none;" d="M33.3333 80.6667L33.3333 81L33.6667 81.3333L33.6667 81L33.3333 80.6667M116 80L116.25 81.5L116.611 83L116.778 83.9444L116.917 84.5L117 86L117.722 85.2222L117.722 84.6944L117.861 83.8889L117.556 82.1111L117.139 81.3056L116.972 80.7778L116 80z"/>
<path style="fill:#99b8a5; stroke:none;" d="M117 81L118 82L117 81z"/>
<path style="fill:#6d9a83; stroke:none;" d="M32.3333 82.6667L32.3333 83L32.6667 83.3333L32.6667 82.6667L32.3333 82.6667z"/>
<path style="fill:#99b8a5; stroke:none;" d="M31.3333 83.6667L31.3333 84L31.6667 84.3333L31.6667 84L31.3333 83.6667z"/>
<path style="fill:#6d9a83; stroke:none;" d="M31 85L31 89L31.7222 88.2222L31.8889 87L31.7222 86.2778L31.7222 85.7778L31 85z"/>
<path style="fill:#99b8a5; stroke:none;" d="M118 86L118 91L118.722 90.2222L118.75 89.6944L118.917 88.9167L118.75 87.3056L118.722 86.7778L118 86z"/>
<path style="fill:#6d9a83; stroke:none;" d="M148.333 88.6667L148.333 89.3333L148.667 89.3333L148.667 89L148.333 88.6667z"/>
<path style="fill:#99b8a5; stroke:none;" d="M30 89L30 94L30.7222 93.2222L30.75 92.6944L30.9167 91.0833L30.75 90.3056L30.7222 89.7778L30 89z"/>
<path style="fill:#6d9a83; stroke:none;" d="M118 91L118 100L118.722 99.2222L118.75 98.6944L118.944 97.8889L119 96L118.972 94.0278L118.944 93.1111L118.75 92.3056L118.722 91.7778L118 91M148 92L149 93L148 92M30.3333 94.6667L30.3333 95.3333L30.6667 95.3333L30.6667 94.6667L30.3333 94.6667M16 95L16 97.0556L16 98.0556L16.0278 100L16.0833 101L16.3889 102.944L16.75 104.5L17 106L17.7222 105.222L17.7222 104.694L17.8611 103.889L17.6111 102L17.2222 100L17 98.0278L16.9444 97.1111L16.75 96.3056L16.7222 95.7778L16 95z"/>
<path style="fill:#99b8a5; stroke:none;" d="M132 95L132 100L132.722 99.2222L132.75 98.6944L132.917 97.0833L132.75 96.3056L132.722 95.7778L132 95M30 96L30 104L30.7222 103.222L30.75 102.694L30.9444 101.889L30.9722 100.972L31 100L30.9444 98.1111L30.75 97.3056L30.7222 96.7778L30 96z"/>
<path style="fill:#6d9a83; stroke:none;" d="M1 97L1 99.0556L1 100.056L1.02778 102L1.08333 103L1.38889 105L1.77778 106.944L1.97222 108.5L2 110L2.72222 109.222L2.75 108.694L2.88889 106.972L2.61111 105L2.38889 104L2.08333 102L1.97222 100.028L1.94444 99.1111L1.75 98.3056L1.72222 97.7778L1 97z"/>
<path style="fill:#99b8a5; stroke:none;" d="M57 97L57.7222 98.3889L58.25 98.75L60 100L59.2778 98.6111L58.75 98.25L57 97z"/>
<path style="fill:#6d9a83; stroke:none;" d="M92 97L93 98L92 97M57 98L58 99L57 98M91 98L92 99L91 98z"/>
<path style="fill:none; stroke:none;" d="M0 99L0 261L66 261L65.2222 260.028L64.6944 259.833L62.9722 258.944L61 257.944L59 256.806L58 256.194L57 255.611L55 254.306L54 253.583L52 251.917L50 250L49.0278 249L47.2222 247L46.4167 246L45.6944 245L44.3889 243L43.8056 242L42.6389 240L41.6389 238L41.2778 237L40.8056 235L40.5833 234L40.3056 233L40 232L39.6944 231L39.2222 229L39.0833 228L39 226L39 224L39.0278 222L39.0833 221L39.4167 219L39.6944 218L40.3056 216L40.8611 214L41.1667 213L41.4722 212L42.3889 210L42.9444 209L44.0278 207L45.3056 205L46.1111 204L48 202L49 201L50 200L51.8889 198L53.2778 196L53.8889 194L54.0833 192L54.2222 191L54.3889 190L54.6111 189L54.8889 187L54.9167 186.028L54.8333 184.222L54.7778 183.389L54.8333 182.611L54.9444 180.917L55 179L55 177L55 173L53.5 172.194L52.9444 172L51 171.194L50 170.806L49 170.389L47 169.583L46 169.111L44 168.056L43 167.528L41 166.417L39 165.139L38 164.444L36 163.167L35 162.556L33 161.139L32 160.361L31 159.611L29.0278 157.917L27.2222 156.083L26.3889 155.222L25.6111 154.389L24.7778 153.611L23.9167 152.778L22.9722 151.917L21.0833 150L19.3889 148L18.6389 147L17.8611 146L16.3889 144L15.0278 142L13.8056 140L12.6111 138L11.3889 136L10.8056 135L10.1944 134L9.08333 132L8.61111 131L7.86111 129L7.52778 128L6.61111 126L5.63889 124L5.27778 123L4.77778 121L4.52778 120L3.83333 118L3.47222 117L3 115L2.61111 113L2.13889 111L1.86111 110L1.63889 109L1.38889 108L1.08333 106L1 104L0.972222 102.028L0.944444 101.111L0.75 100.306L0.722222 99.7778L0 99z"/>
<path style="fill:#99b8a5; stroke:none;" d="M17 99L17 102L17.6944 101.25L17.6944 100.194L17.6944 99.75L17 99z"/>
<path style="fill:#6d9a83; stroke:none;" d="M58 99L59 100L58 99z"/>
<path style="fill:#99b8a5; stroke:none;" d="M89 99L88 101L89.0833 100L89.4167 99.6667L89 99z"/>
<path style="fill:#6d9a83; stroke:none;" d="M90 99L91 100L90 99z"/>
<path style="fill:none; stroke:none;" d="M149 99L149 101.056L149 102.056L148.917 104L148.778 105L148.361 107L148.139 108L147.861 109L147.639 110L147.389 111L147.083 113L146.917 115L146.528 117L146.139 118L145.75 119L145.25 120L144.472 122L144.222 123L143.778 125L143.528 126L142.75 128L142.222 129L141.778 130L141.222 131L140.778 132L140.25 133L139.361 135L138.917 136L138.389 137L137.806 138L136.583 140L135.417 142L134.111 144L133.361 145L132.611 146L130.944 148L130.056 149L128.389 150.972L127.639 151.917L126.139 153.583L125.361 154.306L124.611 155L123.778 155.694L121.972 157.222L120 158.944L118 160.611L117 161.361L116 162.111L114 163.417L112 164.583L110 165.861L109 166.556L107 167.722L106 168.167L105 168.611L103 169.389L102 169.806L100 170.611L98.0556 171.361L97.0556 171.833L96.5 172.028L95 173L95.25 174.5L95.6111 176.056L95.9167 178L95.9722 179L96 180L96 182L96 187L96 190L96 192L96.1111 194L96.3333 195L96.7222 196L98.1111 198L99.9722 200L100.917 201L102.611 203L103.361 204L104.111 205L104.778 206L105.917 208L106.806 210L107.194 211L107.611 212L108.389 214L109.25 216L110.139 218L110.528 219L110.917 221L111 223L111 224L111 225L111 226L110.917 228L110.528 230L110.167 231L109.806 232L109.028 234L108.389 236L108.111 237L107.389 239L106.306 241L105.667 242L104.306 244L103.611 245L102.861 246L101.361 248L100.611 249L98.9167 250.972L97.9722 251.917L96 253.528L94 254.806L93 255.389L91 256.611L90 257.167L89 257.722L87 258.611L85.0556 259.333L84.5 259.556L83 260L83.7778 260.722L84.3056 260.75L85.1111 260.944L86.0278 260.972L87 261L88 261L90 261L102 261L150 261L150 144L150 113L150 108L150 106L150 105L150 103L149.972 102.028L149.944 101.111L149.75 100.306L149.722 99.7778L149 99z"/>
<path style="fill:#6d9a83; stroke:none;" d="M60 100L61 101L60 100z"/>
<path style="fill:#99b8a5; stroke:none;" d="M61 100L62 101L61 100z"/>
<path style="fill:#6d9a83; stroke:none;" d="M89 100L90 101L89 100z"/>
<path style="fill:#99b8a5; stroke:none;" d="M118 100L118 107L118.722 106.222L118.75 105.694L118.944 104.889L118.972 103.972L118.944 102.111L118.75 101.306L118.722 100.778L118 100z"/>
<path style="fill:#6d9a83; stroke:none;" d="M132 100L131.972 102.056L131.917 103.056L131.611 105L131.389 106L131.083 107.944L131 110L131.75 109.222L131.833 108.694L132.167 107.889L132.361 106.972L132.611 106L132.917 104L132.944 102.111L132.75 101.306L132.722 100.778L132 100M148 100L148 104L148.722 103.222L148.722 102.722L148.889 102L148.722 100.778L148 100z"/>
<path style="fill:#99b8a5; stroke:none;" d="M62 101L63 102L62 101M87 101L88 102L87 101z"/>
<path style="fill:#6d9a83; stroke:none;" d="M63 102L64 103L63 102z"/>
<path style="fill:#99b8a5; stroke:none;" d="M64 102L65 103L64 102M85 102L86 103L85 102z"/>
<path style="fill:#6d9a83; stroke:none;" d="M86 102L87 103L86 102z"/>
<path style="fill:#99b8a5; stroke:none;" d="M131 102L131 106L131.722 105.222L131.889 104L131.722 103.278L131.722 102.778L131 102M18 103L18 108L18.7222 107.222L18.75 106.694L18.9167 105.083L18.75 104.306L18.7222 103.778L18 103z"/>
<path style="fill:#6d9a83; stroke:none;" d="M31 103L31 107L31.7222 106.222L31.8889 105L31.7222 104.278L31.7222 103.778L31 103M65 103L66 104L65 103M84 103L85 104L84 103M66 104L67 105L66 104z"/>
<path style="fill:#99b8a5; stroke:none;" d="M67 104L68 105L67 104M82 104L83 105L82 104z"/>
<path style="fill:#6d9a83; stroke:none;" d="M83 104L84 105L83 104z"/>
<path style="fill:#99b8a5; stroke:none;" d="M148 104L148 107L148.694 106.25L148.694 105.194L148.694 104.75L148 104M1 105L1 109L1.72222 108.222L1.72222 107.722L1.88889 107L1.72222 105.778L1 105z"/>
<path style="fill:#6d9a83; stroke:none;" d="M68 105L69 106L68 105z"/>
<path style="fill:#99b8a5; stroke:none;" d="M80 105L79 107L80.0833 106L80.4167 105.667L80 105z"/>
<path style="fill:#6d9a83; stroke:none;" d="M81 105L82 106L81 105M147 105L146.75 106.5L146.389 108.056L146.083 109.944L146.028 110.944L146 113L146.722 112.222L146.778 111.694L147.194 109.972L147.389 109L147.722 107.111L147.667 106.306L147.694 105.778L147 105M69 106L70 107L69 106z"/>
<path style="fill:#99b8a5; stroke:none;" d="M70 106L71 107L70 106z"/>
<path style="fill:#6d9a83; stroke:none;" d="M80 106L81 107L80 106M117 106L117 109L117.694 108.25L117.694 107.194L117.694 106.75L117 106z"/>
<path style="fill:#99b8a5; stroke:none;" d="M31 107L31.6667 108.75L31.8611 109.278L33 110L32.1667 108.25L31.9722 107.722L31 107z"/>
<path style="fill:#6d9a83; stroke:none;" d="M71 107L71.7778 108.389L73.1111 109.333L74.9444 109.833L76.5 109.722L78 109L77.2222 108.528L76.6944 108.611L74.9722 108.5L74.0556 108.306L72.5 107.667L71 107z"/>
<path style="fill:#99b8a5; stroke:none;" d="M72 107L73 108L72 107z"/>
<path style="fill:#6d9a83; stroke:none;" d="M78 107L79 108L78 107M18 108L18 111L18.6944 110.25L18.6944 109.194L18.6944 108.75L18 108M32 108L33 109L32 108z"/>
<path style="fill:#99b8a5; stroke:none;" d="M73 108L73.7778 108.722L74.25 108.75L75.0556 108.944L77 109L76.2222 108.278L75.75 108.25L74.9444 108.056L73 108M147 108L147 111L147.694 110.25L147.694 109.194L147.694 108.75L147 108M117 109L116 111L116 112L117.111 111.25L117.472 110.194L117.611 109.75L117 109M2 110L2 113L2.69444 112.25L2.69444 111.194L2.69444 110.75L2 110z"/>
<path style="fill:#6d9a83; stroke:none;" d="M33 110L34 111L33 110M116 110L117 111L116 110z"/>
<path style="fill:#99b8a5; stroke:none;" d="M19 111L19.25 112.444L19.5833 113.556L20 115L20.6389 114.222L20.5 113L20.1111 112.278L19.9722 111.778L19 111M33.3333 111.667L33.3333 112L33.6667 112.333L33.6667 112L33.3333 111.667M130 111L130 114L130.694 113.25L130.694 112.194L130.694 111.75L130 111z"/>
<path style="fill:#6d9a83; stroke:none;" d="M3 113L3.08333 114.5L3.47222 116.056L3.83333 117L4.16667 117.944L4.72222 119.5L5 121L5.69444 120.222L5.66667 119.694L5.69444 118.889L5.5 117.972L4.80556 116.028L4 114.306L3.80556 113.778L3 113M19.3333 113.667L19.3333 114L19.6667 114.333L19.6667 114L19.3333 113.667M115 113L116 114L115 113z"/>
<path style="fill:#99b8a5; stroke:none;" d="M146 113L146 118L146.722 117.222L146.75 116.694L146.917 115.917L146.75 114.306L146.722 113.778L146 113z"/>
<path style="fill:#6d9a83; stroke:none;" d="M34 114L34 115L36 116L36 115L34 114z"/>
<path style="fill:#99b8a5; stroke:none;" d="M115 114L116 115L115 114z"/>
<path style="fill:#6d9a83; stroke:none;" d="M130 114L131 115L130 114M20.3333 115.667L20.3333 116L20.6667 116.333L20.6667 116L20.3333 115.667z"/>
<path style="fill:#99b8a5; stroke:none;" d="M34 115L35 116L34 115z"/>
<path style="fill:#6d9a83; stroke:none;" d="M114 115L115 116L114 115z"/>
<path style="fill:#99b8a5; stroke:none;" d="M129 115L128 116L128 118L128.944 117.25L129.083 116.806L129.444 115.75L129 115M3.33333 116.667L3.33333 117.333L3.66667 117.333L3.66667 117L3.33333 116.667M35 116L36 117L35 116M114 116L115 117L114 116z"/>
<path style="fill:#6d9a83; stroke:none;" d="M129 116L130 117L129 116z"/>
<path style="fill:#99b8a5; stroke:none;" d="M21.3333 117.667L21.3333 118L21.6667 118.333L21.6667 118L21.3333 117.667z"/>
<path style="fill:#6d9a83; stroke:none;" d="M36 117L37 118L36 117M113 117L114 118L113 117M145 117L144.583 118.444L144.25 119.556L144 121L144.972 120.222L145.111 119.722L145.5 119L145.639 117.778L145 117z"/>
<path style="fill:#99b8a5; stroke:none;" d="M4.33333 118.667L4.33333 119L4.66667 119.333L4.66667 118.667L4.33333 118.667M36 118L37 119L36 118M113 118L114 119L113 118z"/>
<path style="fill:#6d9a83; stroke:none;" d="M128 118L128 121L128.694 120.25L128.694 119.194L128.694 118.75L128 118M21 119L21.6667 120.75L21.8611 121.278L23 122L22.1667 120.25L21.9722 119.722L21 119M37 119L38 120L37 119M112 119L113 120L112 119z"/>
<path style="fill:#99b8a5; stroke:none;" d="M145 119L146 120L145 119M22 120L23 121L22 120z"/>
<path style="fill:#6d9a83; stroke:none;" d="M38 120L39 121L38 120M111 120L112 121L111 120z"/>
<path style="fill:#99b8a5; stroke:none;" d="M127.333 120.667L127.333 121L127.667 121.333L127.667 120.667L127.333 120.667M5 121L5.05556 123L5.25 124L5.27778 124.5L6 126L6.47222 125.222L6.36111 124.694L6.13889 123.083L5.83333 122.306L5.75 121.778L5 121M23 121L23 124L23.6944 123.25L23.6944 122.194L23.6944 121.75L23 121M38 121L39 122L38 121z"/>
<path style="fill:#6d9a83; stroke:none;" d="M110 121L111 122L110 121z"/>
<path style="fill:#99b8a5; stroke:none;" d="M144 121L145 122L144 121z"/>
<path style="fill:#6d9a83; stroke:none;" d="M39 122L40 123L39 122z"/>
<path style="fill:#99b8a5; stroke:none;" d="M110 122L111 123L110 122z"/>
<path style="fill:#6d9a83; stroke:none;" d="M127 122L126 124L126 125L127.111 124.25L127.472 123.194L127.611 122.75L127 122M143 122L144 123L143 122M40 123L41 124L40 123M109 123L110 124L109 123z"/>
<path style="fill:#99b8a5; stroke:none;" d="M126 123L127 124L126 123M143 123L142.917 124.5L142.778 125.056L142.611 126L142.25 127.5L142 129L142.972 128.222L143.139 127.694L143.556 126.889L143.861 125.111L143.722 124.306L143.722 123.778L143 123z"/>
<path style="fill:#6d9a83; stroke:none;" d="M6 124L7 125L6 124M23 124L24 125L23 124M41 124L41 125L43 126L43 125L41 124M108 124L109 125L108 124z"/>
<path style="fill:#99b8a5; stroke:none;" d="M24 125L25 126L24 125M41 125L42 126L41 125z"/>
<path style="fill:#6d9a83; stroke:none;" d="M107 125L108 126L107 125z"/>
<path style="fill:#99b8a5; stroke:none;" d="M125 125L126 126L125 125z"/>
<path style="fill:#6d9a83; stroke:none;" d="M7 126L8 127L7 126M24 126L25 127L24 126M43 126L44 127L43 126M106 126L107 127L106 126M125 126L125 127L124 129L125.111 128.25L125.472 127.194L125.611 126.75L125 126M142 126L143 127L142 126z"/>
<path style="fill:#99b8a5; stroke:none;" d="M7 127L8 128L7 127M25 127L26 128L25 127z"/>
<path style="fill:#6d9a83; stroke:none;" d="M44 127L45 128L44 127M105 127L106 128L105 127z"/>
<path style="fill:#99b8a5; stroke:none;" d="M124 127L125 128L124 127z"/>
<path style="fill:#6d9a83; stroke:none;" d="M8.33333 128.667L8.33333 129.333L8.66667 129.333L8.66667 129L8.33333 128.667z"/>
<path style="fill:#99b8a5; stroke:none;" d="M26.3333 128.667L26.3333 129.333L26.6667 129.333L26.6667 128.667L26.3333 128.667z"/>
<path style="fill:#6d9a83; stroke:none;" d="M45 128L46 129L45 128M104 128L105 129L104 128M141.333 128.667L141.333 129L141.667 129.333L141.667 129L141.333 128.667M46 129L47 130L46 129M103 129L104 130L103 129z"/>
<path style="fill:#99b8a5; stroke:none;" d="M123 129L124 130L123 129M8 130L8.66667 131.75L8.86111 132.278L10 133L9.16667 131.25L8.97222 130.722L8 130M27 130L28 131L27 130z"/>
<path style="fill:#6d9a83; stroke:none;" d="M47 130L48 131L47 130M102 130L103 131L102 130M123 130L124 131L123 130z"/>
<path style="fill:#99b8a5; stroke:none;" d="M141 130L142 131L141 130z"/>
<path style="fill:#6d9a83; stroke:none;" d="M9 131L10 132L9 131M27 131L28 132L27 131M48 131L49 132L48 131z"/>
<path style="fill:#99b8a5; stroke:none;" d="M101 131L102 132L101 131M122 131L121 133L122.083 132L122.417 131.667L122 131z"/>
<path style="fill:#6d9a83; stroke:none;" d="M140 131L139 132L139 134L139.944 133.25L140.083 132.806L140.444 131.75L140 131M28 132L28.1111 133.389L28.6667 134.333L28.8611 134.639L30 135L29.1667 133.25L28.9722 132.722L28 132M49 132L50 133L49 132M100 132L101 133L100 132M122 132L123 133L122 132z"/>
<path style="fill:#99b8a5; stroke:none;" d="M140 132L141 133L140 132z"/>
<path style="fill:#6d9a83; stroke:none;" d="M10 133L11 134L10 133z"/>
<path style="fill:#99b8a5; stroke:none;" d="M29 133L30 134L29 133M50 133L51 134L50 133z"/>
<path style="fill:#6d9a83; stroke:none;" d="M99 133L100 134L99 133M121 133L122 134L121 133z"/>
<path style="fill:#99b8a5; stroke:none;" d="M10 134L11 135L10 134M51 134L52 135L51 134z"/>
<path style="fill:#6d9a83; stroke:none;" d="M98 134L99 135L98 134M120 134L121 135L120 134z"/>
<path style="fill:#99b8a5; stroke:none;" d="M139 134L140 135L139 134z"/>
<path style="fill:#6d9a83; stroke:none;" d="M11 135L11 136L13 137L13 136L11 135M30 135L31 136L30 135M52 135L52 136L54 137L54 136L52 135M97 135L96 137L97.0833 136L97.4167 135.667L97 135M119 135L120 136L119 135M138 135L137.333 136.444L136.667 137.556L136 139L137.389 138.222L137.694 137.722L138.278 137L138.611 135.778L138 135z"/>
<path style="fill:#99b8a5; stroke:none;" d="M11 136L12 137L11 136M31 136L32 137L31 136M52 136L53 137L52 136M97 136L98 137L97 136z"/>
<path style="fill:#6d9a83; stroke:none;" d="M118 136L119 137L118 136z"/>
<path style="fill:#99b8a5; stroke:none;" d="M12 137L13 138L12 137M32 137L33 138L32 137M53 137L54 138L53 137M96 137L97 138L96 137M117 137L116 139L117.083 138L117.417 137.667L117 137M138 137L139 138L138 137M33 138L34 139L33 138z"/>
<path style="fill:#6d9a83; stroke:none;" d="M54 138L55 139L54 138M95 138L96 139L95 138M117 138L118 139L117 138z"/>
<path style="fill:#99b8a5; stroke:none;" d="M137 138L138 139L137 138z"/>
<path style="fill:#6d9a83; stroke:none;" d="M13 139L14 140L13 139z"/>
<path style="fill:#99b8a5; stroke:none;" d="M54.3333 139.667L54.3333 140.333L54.6667 140.333L54.6667 140L54.3333 139.667M95 139L95 142L95.6944 141.25L95.6944 140.194L95.6944 139.75L95 139z"/>
<path style="fill:#6d9a83; stroke:none;" d="M116 139L117 140L116 139z"/>
<path style="fill:#99b8a5; stroke:none;" d="M136 139L137 140L136 139z"/>
<path style="fill:#6d9a83; stroke:none;" d="M14 140L14 141L16 142L15 140L14 140M34 140L35 141L34 140M55 140L55.25 141.5L55.6111 143.056L55.9167 145L55.9722 146L56 148L55.9722 150L55.8889 150.972L55.7222 151.889L55.3333 152.694L55.1389 153.222L54 154L54.75 154.694L55.7778 154.611L56.3056 154.25L56.6667 153.667L56.8889 152.889L57 151L57 149L57 147L57 146L56.9167 144L56.5556 142.111L56.1389 141.306L55.9722 140.778L55 140M115 140L116 141L115 140M135 140L136 141L135 140z"/>
<path style="fill:#99b8a5; stroke:none;" d="M14 141L15 142L14 141z"/>
<path style="fill:#6d9a83; stroke:none;" d="M35 141L36 142L35 141M114 141L115 142L114 141z"/>
<path style="fill:#99b8a5; stroke:none;" d="M135 141L134 143L134 144L135.111 143.25L135.472 142.194L135.611 141.75L135 141M15 142L16 143L15 142z"/>
<path style="fill:#6d9a83; stroke:none;" d="M36 142L37 143L36 142z"/>
<path style="fill:#99b8a5; stroke:none;" d="M55 142L55 145L55.6944 144.25L55.6944 143.194L55.6944 142.75L55 142z"/>
<path style="fill:#6d9a83; stroke:none;" d="M94 142L93.4167 144.056L93.0833 145.944L93 148L93.75 147.222L93.8333 146.694L94.1667 145.889L94.5556 144.111L94.5278 143.306L94.6389 142.778L94 142z"/>
<path style="fill:#99b8a5; stroke:none;" d="M112 142L111 144L112.083 143L112.417 142.667L112 142z"/>
<path style="fill:#6d9a83; stroke:none;" d="M113 142L114 143L113 142M134 142L135 143L134 142M16.6667 143.333L17 143.667L17.3333 143.667L17.3333 143.333L16.6667 143.333M37 143L38 144L37 143z"/>
<path style="fill:#99b8a5; stroke:none;" d="M38 143L39 144L38 143z"/>
<path style="fill:#6d9a83; stroke:none;" d="M112 143L113 144L112 143M133.333 143.667L133.333 144L133.667 144.333L133.667 144L133.333 143.667z"/>
<path style="fill:#99b8a5; stroke:none;" d="M16 144L17 145L16 144M39 144L40 145L39 144M94.3333 144.667L94.3333 145L94.6667 145.333L94.6667 144.667L94.3333 144.667M110 144L111 145L110 144z"/>
<path style="fill:#6d9a83; stroke:none;" d="M17 145L18 146L17 145z"/>
<path style="fill:#99b8a5; stroke:none;" d="M40 145L41 146L40 145z"/>
<path style="fill:#6d9a83; stroke:none;" d="M109 145L110 146L109 145M132 145L133 146L132 145M18 146L19 147L18 146M41 146L42 147L41 146M108 146L109 147L108 146z"/>
<path style="fill:#99b8a5; stroke:none;" d="M132 146L133 147L132 146z"/>
<path style="fill:#6d9a83; stroke:none;" d="M42 147L43 148L42 147M107 147L108 148L107 147M131 147L132 148L131 147z"/>
<path style="fill:#99b8a5; stroke:none;" d="M19 148L20 149L19 148z"/>
<path style="fill:#6d9a83; stroke:none;" d="M43 148L44 149L43 148z"/>
<path style="fill:#99b8a5; stroke:none;" d="M44 148L45 149L44 148M93 148L93 149.5L93.1111 151.028L93.3333 151.889L94.2778 153.278L95.5278 153.889L97 154L96.2778 153.278L95.75 153.25L94 153L93.9722 150.972L93.9444 150.056L93.75 149.306L93.7222 148.778L93 148M105 148L106 149L105 148z"/>
<path style="fill:#6d9a83; stroke:none;" d="M106 148L107 149L106 148M130 148L131 149L130 148z"/>
<path style="fill:#99b8a5; stroke:none;" d="M20 149L21 150L20 149z"/>
<path style="fill:#6d9a83; stroke:none;" d="M45 149L46 150L45 149z"/>
<path style="fill:#99b8a5; stroke:none;" d="M103 149L102 151L103.083 150L103.417 149.667L103 149z"/>
<path style="fill:#6d9a83; stroke:none;" d="M104 149L105 150L104 149M129 149L130 150L129 149z"/>
<path style="fill:#99b8a5; stroke:none;" d="M21 150L22 151L21 150z"/>
<path style="fill:#6d9a83; stroke:none;" d="M46 150L47 151L46 150z"/>
<path style="fill:#99b8a5; stroke:none;" d="M47 150L48 151L47 150z"/>
<path style="fill:#6d9a83; stroke:none;" d="M103 150L104 151L103 150M128 150L129 151L128 150z"/>
<path style="fill:#99b8a5; stroke:none;" d="M22 151L23 152L22 151z"/>
<path style="fill:#6d9a83; stroke:none;" d="M48 151L49 152L48 151z"/>
<path style="fill:#99b8a5; stroke:none;" d="M49 151L50 152L49 151M100 151L101 152L100 151z"/>
<path style="fill:#6d9a83; stroke:none;" d="M101 151L102 152L101 151M127 151L125 153L125 154L126.361 153.25L127.083 152.194L127.361 151.75L127 151z"/>
<path style="fill:#99b8a5; stroke:none;" d="M23 152L24 153L23 152z"/>
<path style="fill:#6d9a83; stroke:none;" d="M50 152L51 153L50 152z"/>
<path style="fill:#99b8a5; stroke:none;" d="M51 152L52 153L51 152M98 152L99 153L98 152z"/>
<path style="fill:#6d9a83; stroke:none;" d="M99 152L100 153L99 152z"/>
<path style="fill:#99b8a5; stroke:none;" d="M127 152L128 153L127 152M24 153L25 154L24 153z"/>
<path style="fill:#6d9a83; stroke:none;" d="M25 153L26 154L25 153M52 153L53 154L52 153z"/>
<path style="fill:#99b8a5; stroke:none;" d="M53 153L53.7222 153.722L54.25 153.75L56 154L55.2778 153.278L54.75 153.25L53 153z"/>
<path style="fill:#6d9a83; stroke:none;" d="M92 153L92.7778 154.139L93.25 154.333L94.5278 154.889L96 155L95.2222 154.028L94.75 153.861L93.4722 153.278L92 153M97 153L98 154L97 153z"/>
<path style="fill:#99b8a5; stroke:none;" d="M126 153L127 154L126 153z"/>
<path style="fill:#6d9a83; stroke:none;" d="M124 154L123 156L124.083 155L124.417 154.667L124 154z"/>
<path style="fill:#99b8a5; stroke:none;" d="M26 155L27 156L26 155M124 155L125 156L124 155M27 156L28 157L27 156z"/>
<path style="fill:#6d9a83; stroke:none;" d="M122 156L123 157L122 156z"/>
<path style="fill:#99b8a5; stroke:none;" d="M28 157L29 158L28 157z"/>
<path style="fill:#6d9a83; stroke:none;" d="M121 157L122 158L121 157z"/>
<path style="fill:#99b8a5; stroke:none;" d="M29 158L30 159L29 158z"/>
<path style="fill:#6d9a83; stroke:none;" d="M120 158L121 159L120 158z"/>
<path style="fill:#99b8a5; stroke:none;" d="M30 159L31 160L30 159z"/>
<path style="fill:#6d9a83; stroke:none;" d="M31 159L32 160L31 159z"/>
<path style="fill:#99b8a5; stroke:none;" d="M119 159L120 160L119 159z"/>
<path style="fill:#6d9a83; stroke:none;" d="M32 160L33 161L32 160M117 160L118 161L117 160z"/>
<path style="fill:#99b8a5; stroke:none;" d="M118 160L119 161L118 160M33 161L33 162L35 163L34 161L33 161z"/>
<path style="fill:#6d9a83; stroke:none;" d="M34 161L35 162L34 161M116 161L117 162L116 161M35 162L36 163L35 162z"/>
<path style="fill:#99b8a5; stroke:none;" d="M115 162L116 163L115 162M36 163L37 164L36 163z"/>
<path style="fill:#6d9a83; stroke:none;" d="M37 163L38 164L37 163M112.667 163.333L112.667 163.667L113.333 163.667L113.333 163.333L112.667 163.333z"/>
<path style="fill:#99b8a5; stroke:none;" d="M114 163L115 164L114 163M38 164L39 165L38 164M111 164L112 165L111 164M39 165L40 166L39 165M110 165L111 166L110 165M40 166L41 167L40 166z"/>
<path style="fill:#6d9a83; stroke:none;" d="M41.6667 166.333L41.6667 166.667L42.3333 166.667L42 166.333L41.6667 166.333M103 168L103.778 168.639L104.306 168.5L105.111 168.472L106.944 167.806L107.5 167.5L109 167L108.222 166.361L107.694 166.5L106.889 166.528L105.056 167.194L104.5 167.5L103 168z"/>
<path style="fill:#99b8a5; stroke:none;" d="M109 166L110 167L109 166M43 167L43 168L45 169L44 167L43 167z"/>
<path style="fill:#6d9a83; stroke:none;" d="M44 167L45 168L44 167z"/>
<path style="fill:#99b8a5; stroke:none;" d="M107 167L108 168L107 167z"/>
<path style="fill:#6d9a83; stroke:none;" d="M45 168L46 169L45 168z"/>
<path style="fill:#99b8a5; stroke:none;" d="M105 168L106 169L105 168M46.6667 169.333L46.6667 169.667L47.3333 169.667L47 169.333L46.6667 169.333z"/>
<path style="fill:#6d9a83; stroke:none;" d="M48 169L48.7778 169.972L49.25 170.139L50.5278 170.722L52 171L51.2222 170.028L50.75 169.861L49.4722 169.278L48 169M98 170L98.7778 170.639L99.25 170.528L100.056 170.528L102 170L101.222 169.361L100.75 169.472L99.9444 169.472L98 170z"/>
<path style="fill:#99b8a5; stroke:none;" d="M102 169L103 170L102 169M49 170L50 171L49 170M100 170L101 171L100 170M51.6667 171.333L51.6667 171.667L52.3333 171.667L52.3333 171.333L51.6667 171.333z"/>
<path style="fill:#6d9a83; stroke:none;" d="M53 171L53.6667 172.028L54.3333 172.806L55 174L55.6111 173.25L55.2778 172.222L54.6944 171.694L54.3889 171.361L53 171M95 171L96 172L95 171z"/>
<path style="fill:#99b8a5; stroke:none;" d="M96.6667 171.333L96.6667 171.667L97.3333 171.667L97.3333 171.333L96.6667 171.333M54 172L55 173L54 172M95 172L96 173L95 172z"/>
<path style="fill:#6d9a83; stroke:none;" d="M94.3333 173.667L94.3333 174.333L94.6667 174.333L94.6667 173.667L94.3333 173.667z"/>
<path style="fill:#99b8a5; stroke:none;" d="M55 174L56 175L55 174z"/>
<path style="fill:#6d9a83; stroke:none;" d="M55 175L55 194L55.7222 193.222L55.75 192.694L55.9722 191.889L56.0556 190.972L56.3889 189L56.6111 188L56.9167 186L57 184L57 183L57 181L57 175L55 175z"/>
<path style="fill:#99b8a5; stroke:none;" d="M95 175L95 195L95.7222 194.222L95.75 193.694L95.9444 192.889L95.9722 191.972L96 191L96 189L96 188L96 185L96 182L96 181L96 179L95.9722 178.028L95.9444 177.111L95.75 176.306L95.7222 175.778L95 175M54 183L55 184L54 183M54 189L54 195L54.7222 194.222L54.75 193.694L54.9444 192.889L54.9444 191.111L54.75 190.306L54.7222 189.778L54 189z"/>
<path style="fill:#6d9a83; stroke:none;" d="M54 195L55 196L54 195M95 195L96 196L95 195z"/>
<path style="fill:#99b8a5; stroke:none;" d="M53 196L54 197L53 196z"/>
<path style="fill:#6d9a83; stroke:none;" d="M96 196L97 197L96 196M52 197L53 198L52 197M97 197L98 198L97 197M51 198L52 199L51 198M98 198L99 199L98 198M50 199L51 200L50 199M99 199L100 200L99 199M49 200L50 201L49 200M100 200L101 201L100 200M48 201L49 202L48 201z"/>
<path style="fill:#99b8a5; stroke:none;" d="M101 201L102 202L101 201z"/>
<path style="fill:#6d9a83; stroke:none;" d="M47 202L48 203L47 202z"/>
<path style="fill:#99b8a5; stroke:none;" d="M102 202L103 203L102 202z"/>
<path style="fill:#6d9a83; stroke:none;" d="M46 203L47 204L46 203z"/>
<path style="fill:#99b8a5; stroke:none;" d="M45 204L46 205L45 204z"/>
<path style="fill:#6d9a83; stroke:none;" d="M103 204L104 205L103 204z"/>
<path style="fill:#99b8a5; stroke:none;" d="M44 205L45 206L44 205M104 205L105 206L104 205z"/>
<path style="fill:#6d9a83; stroke:none;" d="M44 206L45 207L44 206z"/>
<path style="fill:#99b8a5; stroke:none;" d="M105 206L106 207L105 206z"/>
<path style="fill:#6d9a83; stroke:none;" d="M105.333 207.667L105.333 208.333L105.667 208.333L105.667 207.667L105.333 207.667z"/>
<path style="fill:#99b8a5; stroke:none;" d="M43 208L42 210L43.0833 209L43.4167 208.667L43 208z"/>
<path style="fill:#6d9a83; stroke:none;" d="M43 209L44 210L43 209M68 209L68.7222 209.722L69.25 209.75L71 210L70.2778 209.278L69.75 209.25L68 209z"/>
<path style="fill:#99b8a5; stroke:none;" d="M71.6667 209.333L72 209.667L72.3333 209.667L72.3333 209.333L71.6667 209.333z"/>
<path style="fill:#6d9a83; stroke:none;" d="M73 209L73.7222 209.722L74.25 209.75L76 210L75.2778 209.278L74.75 209.25L73 209z"/>
<path style="fill:#99b8a5; stroke:none;" d="M76.6667 209.333L77 209.667L77.3333 209.667L77.3333 209.333L76.6667 209.333z"/>
<path style="fill:#6d9a83; stroke:none;" d="M78 209L78.7222 209.722L79.25 209.75L81 210L80.2778 209.278L79.75 209.25L78 209z"/>
<path style="fill:#99b8a5; stroke:none;" d="M106 209L107 210L106 209z"/>
<path style="fill:#6d9a83; stroke:none;" d="M42 210L43 211L42 210z"/>
<path style="fill:#99b8a5; stroke:none;" d="M67 210L66 212L67.0833 211L67.4167 210.667L67 210z"/>
<path style="fill:none; stroke:none;" d="M75 210L75.7778 210.972L76.3056 211.139L77.1111 211.583L78.0278 211.861L80 212.694L82 214.111L82.9722 215.028L84.7778 217L85.5833 218L86.8889 220L87.3611 221L87.6944 222L87.9722 224L87.9167 226L87.75 227L87.5 228L86.5833 230L85.9722 231L84.5833 232.917L83.7778 233.778L81.9722 235.361L81 236.111L79 237.389L78 237.889L76 238.5L75 238.556L73 238.278L72 237.972L70 237.111L69 236.583L67.0833 235.306L65.3889 233.778L64.6389 232.917L63.8889 231.972L62.6667 230L61.8889 228L61.6667 227L61.4722 226L61.4722 224L61.6667 223L62.1667 221L62.4722 220L63.5 218L65.0833 216L67 214.111L68 213.333L69 212.694L70.9444 211.889L71.9444 211.611L74 211L73.2222 210.278L72.6944 210.25L71.8889 210.056L70 210.111L68 210.639L67 211.111L65.0833 212.417L63.3889 214.083L62.6389 215.028L61.2222 217L60.6111 218L59.7222 220L59.25 222L59.1667 223L59.3889 225L59.6111 226L59.7778 227L60.0556 229L60.25 230L60.5 231L61.5 233L63.0833 235L64.0278 235.972L65 236.917L67 238.5L69 239.528L70 239.833L72 240.361L73 240.611L75 240.833L77 240.583L79 239.972L80 239.611L81 239.167L82 238.722L84 237.528L85.8889 235.917L86.6944 234.972L87.9722 233L88.5 232L89.3889 230L89.8889 228L89.9722 227L90 225L90 224L89.9167 222L89.75 221L89.5278 220L89.1389 219L88.7222 218L87.5278 216L86.75 215L84.9722 213.083L84 212.25L82 210.944L81 210.5L79 210.083L77.0556 210L75 210z"/>
<path style="fill:#99b8a5; stroke:none;" d="M74 210L72.5 210.972L71.9444 211.139L70.9444 211.583L70 211.861L68 212.694L67 213.333L65.1111 214.972L64.3056 215.944L63.7778 216.5L63 218L64.5 217.222L65.0556 216.694L67 215.083L69 213.694L71 212.889L72 212.639L74 212.306L75 212.306L76 212.444L78 213.083L80 214.083L81.9722 215.417L82.9167 216.222L84.5833 218.028L85.2778 219L86.3611 220.944L86.8889 222.5L87 224L87.7222 223.222L87.8333 221.889L87.3611 220L86.8889 219L85.5833 217L84.7778 216L83.9167 215.028L82.9722 214.111L81 212.694L79 211.861L78 211.556L76.0556 210.806L75.5 210.5L74 210M81 210L82 211L81 210z"/>
<path style="fill:#6d9a83; stroke:none;" d="M106 210L107 211L106 210z"/>
<path style="fill:#99b8a5; stroke:none;" d="M41 211L42 212L41 211z"/>
<path style="fill:#6d9a83; stroke:none;" d="M83 211L84 212L83 211z"/>
<path style="fill:#99b8a5; stroke:none;" d="M107 211L108 212L107 211z"/>
<path style="fill:#6d9a83; stroke:none;" d="M41 212L41 216L41.7222 215.222L41.7222 214.722L41.8889 214L41.7222 212.778L41 212M64 212L65 213L64 212M72 212L72.7778 212.722L73.3056 212.75L74.0556 212.944L74.9722 212.972L77 213L76.2222 212.278L75.6944 212.25L74.9444 212.056L74.0278 212.028L72 212z"/>
<path style="fill:#99b8a5; stroke:none;" d="M84 212L85 213L84 212z"/>
<path style="fill:#6d9a83; stroke:none;" d="M107.333 212.667L107.333 213.333L107.667 213.333L107.667 213L107.333 212.667M63 213L64 214L63 213M68 213L66.5 214.5L65.0556 216.056L64.3333 216.944L63.3611 218.5L63 220L64.0833 219.222L64.4722 218.694L66.0556 216.972L67.6111 215.111L68.0278 214.306L68.3611 213.778L68 213z"/>
<path style="fill:#0cad0b; stroke:none;" d="M69 213.722L68 214.333L66.0833 216.028L65.25 217L64.5 218L63.5 220L63.25 221L63.0833 222L63 224L63 225L63.0833 227L63.4722 229L64.2778 231L64.8611 231.972L65.4722 232.917L67.0833 234.583L69 235.889L70 236.389L72 237.083L74 237.389L76 237.278L78 236.778L80 235.889L81.9167 234.583L83.6111 232.917L84.3611 231.972L85.1111 231L86.3056 229L86.6667 228L86.8889 227L87 225L86.8889 223L86.6944 222L86.3611 221L85.3611 219.028L84.1667 217.222L83.5278 216.417L81.9167 215.028L80.9722 214.417L79 213.5L78 213.25L77 213.083L75 213L74 213L72 213.028L71 213.111L69 213.722z"/>
<path style="fill:#6d9a83; stroke:none;" d="M79 213L80 214L79 213z"/>
<path style="fill:#99b8a5; stroke:none;" d="M85 213L86 214L85 213z"/>
<path style="fill:#6d9a83; stroke:none;" d="M62 214L63 215L62 214z"/>
<path style="fill:#99b8a5; stroke:none;" d="M86 214L87 215L86 214M108 214L109 215L108 214M40.3333 215.667L40.3333 216L40.6667 216.333L40.6667 216L40.3333 215.667M62 215L63 216L62 215z"/>
<path style="fill:#6d9a83; stroke:none;" d="M82 215L83 216L82 215z"/>
<path style="fill:#99b8a5; stroke:none;" d="M87 215L88 216L87 215z"/>
<path style="fill:#6d9a83; stroke:none;" d="M108 215L108.25 217L108.278 217.556L109 219L109.639 218.222L109.5 217L109.111 216.278L108.972 215.778L108 215M61 216L62 217L61 216z"/>
<path style="fill:#99b8a5; stroke:none;" d="M109 216L110 217L109 216z"/>
<path style="fill:#6d9a83; stroke:none;" d="M40 217L39.75 218.5L39.3889 220.056L39.0833 222L39 224L39.0833 226L39.3889 228L39.7778 229.944L39.9167 230.5L40 232L40.7222 231.222L40.7222 230.694L40.8611 229.889L40.6111 228L40.3889 227L40.0833 225L40.0556 224L40.0833 223L40.3889 221L40.7222 219.111L40.6667 218.306L40.6944 217.778L40 217M84 217L85 218L84 217z"/>
<path style="fill:#99b8a5; stroke:none;" d="M88 217L89 218L88 217M39.3333 218.667L39.3333 219L39.6667 219.333L39.6667 219L39.3333 218.667z"/>
<path style="fill:#6d9a83; stroke:none;" d="M89 218L90 219L89 218z"/>
<path style="fill:#99b8a5; stroke:none;" d="M110 218L110 223L110.722 222.222L110.75 221.694L110.917 220.083L110.75 219.306L110.722 218.778L110 218M59.3333 219.667L59.3333 220L59.6667 220.333L59.6667 220L59.3333 219.667M62.3333 219.667L62.3333 220L62.6667 220.333L62.6667 220L62.3333 219.667z"/>
<path style="fill:#6d9a83; stroke:none;" d="M85 219L86 220L85 219z"/>
<path style="fill:#99b8a5; stroke:none;" d="M89 219L90 220L89 219z"/>
<path style="fill:#6d9a83; stroke:none;" d="M86 220L87 221L86 220M62 221L62 228L62.7222 227.222L62.75 226.694L62.9444 225.889L62.9722 224.972L62.9444 223.111L62.75 222.306L62.7222 221.778L62 221M90 221L90 224L90.6944 223.25L90.6944 222.806L90.6944 221.75L90 221z"/>
<path style="fill:#99b8a5; stroke:none;" d="M61 223L61 227L61.7222 226.222L61.7222 225.722L61.8889 225L61.7222 223.778L61 223z"/>
<path style="fill:#6d9a83; stroke:none;" d="M110 223L110 226L110.694 225.25L110.694 224.194L110.694 223.75L110 223M87.3333 224.667L87.3333 225.333L87.6667 225.333L87.6667 225L87.3333 224.667z"/>
<path style="fill:#99b8a5; stroke:none;" d="M90.3333 224.667L90.3333 225.333L90.6667 225.333L90.6667 225L90.3333 224.667M59 225L59 230L59.7222 229.222L59.75 228.694L59.9167 227.083L59.75 226.306L59.7222 225.778L59 225M87 226L87 229L87.6944 228.25L87.6944 227.806L87.6944 226.75L87 226z"/>
<path style="fill:#6d9a83; stroke:none;" d="M90 226L90 229L90.6944 228.25L90.6944 227.194L90.6944 226.75L90 226z"/>
<path style="fill:#99b8a5; stroke:none;" d="M110 226L110 231L110.722 230.222L110.75 229.694L110.917 228.083L110.75 227.306L110.722 226.778L110 226M39 228L39 231L39.6944 230.25L39.6944 229.194L39.6944 228.75L39 228M62 228L62.1111 229.5L62.6667 230.944L63.2778 231.694L63.6111 232.222L65 233L64.5 231.5L63.7778 230.056L63.2222 229.306L63 228.778L62 228z"/>
<path style="fill:#6d9a83; stroke:none;" d="M63 229L64 230L63 229M86 229L84 231L84 232L85.3611 231.25L86.0833 230.194L86.3611 229.75L86 229M109 229L108.417 231.056L108.083 232.944L108 235L108.806 234.222L108.972 233.694L109.333 232.889L109.722 231.111L109.667 230.306L109.694 229.778L109 229M59 230L60 231L59 230z"/>
<path style="fill:#99b8a5; stroke:none;" d="M86 230L87 231L86 230z"/>
<path style="fill:#6d9a83; stroke:none;" d="M89 230L90 231L89 230z"/>
<path style="fill:#99b8a5; stroke:none;" d="M60 231L61 232L60 231z"/>
<path style="fill:#6d9a83; stroke:none;" d="M64 231L65 232L64 231z"/>
<path style="fill:#99b8a5; stroke:none;" d="M85 231L86 232L85 231M88 231L89 232L88 231M40.3333 232.667L40.3333 233L40.6667 233.333L40.6667 233L40.3333 232.667M84 232L83 234L83 235L84.1111 234.25L84.4722 233.194L84.6111 232.75L84 232z"/>
<path style="fill:#6d9a83; stroke:none;" d="M88 232L89 233L88 232z"/>
<path style="fill:#99b8a5; stroke:none;" d="M109 232L110 233L109 232z"/>
<path style="fill:#6d9a83; stroke:none;" d="M41 233L41 238L41.7222 237.222L41.75 236.694L41.9167 235.083L41.75 234.306L41.7222 233.778L41 233M61 233L62 234L61 233M65 233L66 234L65 233M83 233L84 234L83 233z"/>
<path style="fill:#99b8a5; stroke:none;" d="M62 234L63 235L62 234M65.6667 234.333L65.6667 234.667L66.3333 234.667L66.3333 234.333L65.6667 234.333z"/>
<path style="fill:#6d9a83; stroke:none;" d="M82 234L83 235L82 234M87 234L88 235L87 234z"/>
<path style="fill:#99b8a5; stroke:none;" d="M63 235L64 236L63 235M67 235L67 236L69 237L68 235L67 235z"/>
<path style="fill:#6d9a83; stroke:none;" d="M68 235L69 236L68 235M80 235L79 237L80.0833 236L80.4167 235.667L80 235z"/>
<path style="fill:#99b8a5; stroke:none;" d="M81 235L82 236L81 235z"/>
<path style="fill:#6d9a83; stroke:none;" d="M86 235L87 236L86 235z"/>
<path style="fill:#99b8a5; stroke:none;" d="M108 235L109 236L108 235M64 236L65 237L64 236z"/>
<path style="fill:#6d9a83; stroke:none;" d="M69 236L70 237L69 236z"/>
<path style="fill:#99b8a5; stroke:none;" d="M80 236L81 237L80 236z"/>
<path style="fill:#6d9a83; stroke:none;" d="M85 236L86 237L85 236z"/>
<path style="fill:#99b8a5; stroke:none;" d="M65 237L66 238L65 237M70.6667 237.333L70.6667 237.667L71.3333 237.667L71.3333 237.333L70.6667 237.333z"/>
<path style="fill:#6d9a83; stroke:none;" d="M72.6667 237.333L72.6667 237.667L73.3333 237.667L73.3333 237.333L72.6667 237.333M75.6667 237.333L75.6667 237.667L76.3333 237.667L76.3333 237.333L75.6667 237.333z"/>
<path style="fill:#99b8a5; stroke:none;" d="M77 237L77.7222 237.722L78.25 237.75L80 238L79.2778 237.278L78.75 237.25L77 237z"/>
<path style="fill:#6d9a83; stroke:none;" d="M84 237L85 238L84 237M107 237L106 239L106 240L107.111 239.25L107.472 238.194L107.611 237.75L107 237z"/>
<path style="fill:#99b8a5; stroke:none;" d="M41 238L42 239L41 238z"/>
<path style="fill:#6d9a83; stroke:none;" d="M66 238L67 239L66 238z"/>
<path style="fill:#99b8a5; stroke:none;" d="M73 238L73.7778 238.722L74.25 238.75L75.0556 238.944L77 239L76.2222 238.278L75.75 238.25L74.9444 238.056L73 238M82 238L83 239L82 238z"/>
<path style="fill:#6d9a83; stroke:none;" d="M42 239L43 240L42 239z"/>
<path style="fill:#99b8a5; stroke:none;" d="M68 239L69 240L68 239M80 239L81 240L80 239z"/>
<path style="fill:#6d9a83; stroke:none;" d="M81 239L82 240L81 239z"/>
<path style="fill:#99b8a5; stroke:none;" d="M107 239L108 240L107 239z"/>
<path style="fill:#6d9a83; stroke:none;" d="M43 240L44 241L43 240M69 240L70 241L69 240z"/>
<path style="fill:#99b8a5; stroke:none;" d="M70 240L70.7222 240.722L71.25 240.75L73 241L72.2778 240.278L71.75 240.25L70 240M77.6667 240.333L77.6667 240.667L78.3333 240.667L78.3333 240.333L77.6667 240.333z"/>
<path style="fill:#6d9a83; stroke:none;" d="M79 240L80 241L79 240z"/>
<path style="fill:#99b8a5; stroke:none;" d="M106 240L107 241L106 240M43 241L44 242L43 241z"/>
<path style="fill:#6d9a83; stroke:none;" d="M105 241L106 242L105 241M44 242L45 243L44 242z"/>
<path style="fill:#99b8a5; stroke:none;" d="M105 242L106 243L105 242M44 243L45 244L44 243z"/>
<path style="fill:#6d9a83; stroke:none;" d="M104 243L105 244L104 243M45 244L46 245L45 244M103 244L104 245L103 244M46 245L47 246L46 245z"/>
<path style="fill:#99b8a5; stroke:none;" d="M103 245L104 246L103 245M46 246L47 247L46 246z"/>
<path style="fill:#6d9a83; stroke:none;" d="M102 246L103 247L102 246z"/>
<path style="fill:#99b8a5; stroke:none;" d="M47 247L48 248L47 247z"/>
<path style="fill:#6d9a83; stroke:none;" d="M101 247L102 248L101 247M48 248L49 249L48 248M100 248L101 249L100 248M49 249L50 250L49 249z"/>
<path style="fill:#99b8a5; stroke:none;" d="M100 249L101 250L100 249z"/>
<path style="fill:#6d9a83; stroke:none;" d="M50 250L51 251L50 250z"/>
<path style="fill:#99b8a5; stroke:none;" d="M99 250L100 251L99 250M51 251L52 252L51 251M98 251L99 252L98 251M52 252L53 253L52 252M97 252L98 253L97 252M53 253L54 254L53 253z"/>
<path style="fill:#6d9a83; stroke:none;" d="M54 253L55 254L54 253M93 255L94 255L96 254L95.25 253.389L94.8056 253.528L93.75 253.889L93 255z"/>
<path style="fill:#99b8a5; stroke:none;" d="M96 253L97 254L96 253z"/>
<path style="fill:#6d9a83; stroke:none;" d="M55 254L56 255L55 254z"/>
<path style="fill:#99b8a5; stroke:none;" d="M94 254L95 255L94 254M56 255L57 256L56 255z"/>
<path style="fill:#6d9a83; stroke:none;" d="M57 255L58 256L57 255M92 255L93 256L92 255z"/>
<path style="fill:#99b8a5; stroke:none;" d="M58 256L59 257L58 256z"/>
<path style="fill:#6d9a83; stroke:none;" d="M59 256L60 257L59 256M88 258L90 257L91 257L90.25 256.389L89.8056 256.528L88.75 256.889L88 258z"/>
<path style="fill:#99b8a5; stroke:none;" d="M91 256L92 257L91 256z"/>
<path style="fill:#6d9a83; stroke:none;" d="M60 257L61 258L60 257z"/>
<path style="fill:#99b8a5; stroke:none;" d="M89 257L90 258L89 257M61.6667 258.333L61.6667 258.667L62.3333 258.667L62 258.333L61.6667 258.333z"/>
<path style="fill:#6d9a83; stroke:none;" d="M63 258L63.7778 258.972L64.3056 259.139L65.1111 259.583L66.0278 259.833L68 260.361L69 260.611L71 260.917L72 260.972L73 261L75 261L77 261L78 260.972L79 260.917L80.9444 260.611L82.5 260.25L84 260L83.2222 259.278L82.6944 259.278L81.8889 259.139L80 259.389L79 259.611L77 259.917L75 260L74 260L72 259.917L70 259.611L69 259.361L68 259.139L67 258.861L66.0556 258.639L64.5 258.25L63 258M85 258L86 259L85 258z"/>
<path style="fill:#99b8a5; stroke:none;" d="M86.6667 258.333L87 258.667L87.3333 258.667L87.3333 258.333L86.6667 258.333M64 259L65 260L64 259M84 259L85 260L84 259M66 260L66.7222 260.722L67.25 260.75L69 261L68.2778 260.278L67.75 260.25L66 260M81.6667 260.333L82 260.667L82.3333 260.667L82.3333 260.333L81.6667 260.333z"/>
</svg>
