<?xml version="1.0" encoding="UTF-8"?>
<!DOCTYPE svg PUBLIC "-//W3C//DTD SVG 1.1//EN" "http://www.w3.org/Graphics/SVG/1.1/DTD/svg11.dtd">
<!-- Creator: CorelDRAW -->
<svg xmlns="http://www.w3.org/2000/svg" xml:space="preserve" width="8.5in" height="11in" version="1.1" style="shape-rendering:geometricPrecision; text-rendering:geometricPrecision; image-rendering:optimizeQuality; fill-rule:evenodd; clip-rule:evenodd"
viewBox="0 0 8500 11000"
 xmlns:xlink="http://www.w3.org/1999/xlink"
 xmlns:xodm="http://www.corel.com/coreldraw/odm/2003">
 <defs>
  <style type="text/css">
   <![CDATA[
    .str1 {stroke:#22C55E;stroke-width:166.67;stroke-miterlimit:2.61313}
    .str0 {stroke:#3B82F6;stroke-width:166.67;stroke-miterlimit:2.61313}
    .fil3 {fill:none}
    .fil2 {fill:#FEFEFE}
    .fil1 {fill:#22C55E}
    .fil0 {fill:#3B82F6}
   ]]>
  </style>
 </defs>
 <g id="Layer_x0020_1">
  <metadata id="CorelCorpID_0Corel-Layer"/>
  <g id="_2384376653504">
   <path class="fil0" d="M4697.06 3621.6c352.91,178.41 594.9,544.31 594.9,966.77 0,433.56 -254.89,807.54 -622.96,980.43l6.9 608.66c286.82,-96 536.7,-296.46 744.54,-599.28 40.2,-57.73 101.53,-92.79 166.29,-101.48 49.02,-84.04 96.3,-175.02 140.06,-273.03 295.79,-645.98 400.88,-1417.96 400.88,-1923.93 0,-238.02 -66.56,-407.83 -203.06,-519.8 -124.28,-105.1 -294.07,-145.38 -441.17,-159.39 -69.98,73.58 -189.04,120.86 -322.07,120.86 -213.6,0 -386.91,-120.86 -386.91,-269.62 0,-147.08 173.31,-267.85 386.91,-267.85 129.57,0 245.05,45.51 315.09,113.74 203.04,15.81 448.15,70.07 640.66,231.09 206.61,169.84 311.61,423.64 311.61,750.98 0,540.99 -131.26,1580.82 -588.11,2359.69 20.99,66.64 12.21,143.66 -29.79,206.61 -273.55,396.14 -702.79,663.31 -1129.75,788.5l5.98 527.74c265.4,153 444.06,439.61 444.06,767.96 0,489.23 -396.6,885.83 -885.83,885.83 -427.66,0 -784.52,-303.06 -867.57,-706.12 -18.7,-66.54 -28.7,-136.39 -28.7,-208.44 0,-203.72 79.65,-389.97 211.31,-532.98 52.54,-63.98 113.88,-120.44 182.15,-167.6l7.5 -580.23c-407,-131.92 -809.4,-392.41 -1070.24,-770.15 -42,-62.95 -50.78,-139.96 -29.79,-206.61 -456.85,-778.87 -588.11,-1818.7 -588.11,-2359.69 0,-327.34 105,-581.13 311.61,-750.98 192.51,-161.02 437.61,-215.28 640.66,-231.09 70.04,-68.23 185.52,-113.74 315.09,-113.74 213.6,0 386.91,120.77 386.91,267.85 0,148.76 -173.31,269.62 -386.91,269.62 -133.03,0 -252.09,-47.28 -322.07,-120.86 -147.09,14.02 -316.89,54.3 -441.17,159.39 -136.5,111.97 -203.06,281.78 -203.06,519.8 0,505.96 105.09,1277.95 400.88,1923.93 43.75,98.01 91.03,188.99 140.06,273.03 64.76,8.69 126.09,43.75 166.29,101.48 193.52,281.94 423.5,475.16 685.79,577.94l7.56 -585.33c-375.57,-169.91 -636.89,-547.9 -636.89,-986.93 0,-439.33 261.68,-817.54 637.68,-987.28l0 1040.61 6.58 0 177.2 116.86 292.75 174.78 460.54 -293.15 -4.29 0 0 -1018.59z"/>
   <path class="fil1" d="M5596.96 5471.14c46.97,-81.28 92.27,-168.96 134.31,-263.14 295.79,-645.98 400.88,-1417.96 400.88,-1923.93 0,-238.02 -66.56,-407.83 -203.06,-519.8 -124.28,-105.1 -294.07,-145.38 -441.17,-159.39 -69.98,73.58 -189.04,120.86 -322.07,120.86 -213.6,0 -386.91,-120.86 -386.91,-269.62 0,-147.08 173.31,-267.85 386.91,-267.85 129.57,0 245.05,45.51 315.09,113.74 203.04,15.81 448.15,70.07 640.66,231.09 206.61,169.84 311.61,423.64 311.61,750.98 0,540.99 -131.26,1580.82 -588.11,2359.69l-4.49 -4.33c-48.3,-46.61 -83.2,-57.9 -243.66,-168.28z"/>
   <path class="fil2" d="M4245.29 7438.11c271.8,0 492.13,220.33 492.13,492.13 0,271.8 -220.33,492.13 -492.13,492.13 -271.8,0 -492.13,-220.33 -492.13,-492.13 0,-271.8 220.33,-492.13 492.13,-492.13z"/>
   <path class="fil1" d="M4245.29 7536.53c217.43,0 393.7,176.26 393.7,393.7 0,217.44 -176.27,393.7 -393.7,393.7 -217.43,0 -393.7,-176.26 -393.7,-393.7 0,-217.44 176.27,-393.7 393.7,-393.7z"/>
   <path class="fil1" d="M2896.37 5471.14c-46.97,-81.28 -92.27,-168.96 -134.31,-263.14 -295.79,-645.98 -400.88,-1417.96 -400.88,-1923.93 0,-238.02 66.56,-407.83 203.06,-519.8 124.28,-105.1 294.07,-145.38 441.17,-159.39 69.98,73.58 189.04,120.86 322.07,120.86 213.6,0 386.91,-120.86 386.91,-269.62 0,-147.08 -173.31,-267.85 -386.91,-267.85 -129.57,0 -245.05,45.51 -315.09,113.74 -203.04,15.81 -448.15,70.07 -640.66,231.09 -206.61,169.84 -311.61,423.64 -311.61,750.98 0,540.99 131.26,1580.82 588.11,2359.69l4.49 -4.33c48.3,-46.61 83.2,-57.9 243.66,-168.28z"/>
  </g>
  <rect class="fil3 str0" x="309.66" y="1562.99" width="7874.02" height="7874.02" rx="905.51" ry="772.81"/>
  <rect class="fil3 str1" x="606.51" y="1859.84" width="7280.31" height="7280.31" rx="608.66" ry="608.66"/>
 </g>
</svg>
