<?xml version="1.0" encoding="UTF-8"?>
<!DOCTYPE svg PUBLIC "-//W3C//DTD SVG 1.1//EN" "http://www.w3.org/Graphics/SVG/1.1/DTD/svg11.dtd">
<!-- Creator: CorelDRAW -->
<svg xmlns="http://www.w3.org/2000/svg" xml:space="preserve" width="8.5in" height="11in" version="1.1" style="shape-rendering:geometricPrecision; text-rendering:geometricPrecision; image-rendering:optimizeQuality; fill-rule:evenodd; clip-rule:evenodd"
viewBox="0 0 8500 11000"
 xmlns:xlink="http://www.w3.org/1999/xlink"
 xmlns:xodm="http://www.corel.com/coreldraw/odm/2003">
 <defs>
  <style type="text/css">
   <![CDATA[
    .str0 {stroke:#2B2A29;stroke-width:6.94;stroke-miterlimit:2.61313}
    .fil1 {fill:#FEFEFE}
    .fil4 {fill:#02A901}
    .fil33 {fill:#02AD02}
    .fil29 {fill:#0D7434}
    .fil7 {fill:#16376D}
    .fil5 {fill:#16386B}
    .fil30 {fill:#166B4A}
    .fil3 {fill:#18396E}
    .fil0 {fill:#18396E}
    .fil6 {fill:#1CB21C}
    .fil2 {fill:#1CB21C}
    .fil10 {fill:#23AC24}
    .fil27 {fill:#269438}
    .fil8 {fill:#2EB231}
    .fil19 {fill:#314D7A}
    .fil14 {fill:#35517C}
    .fil26 {fill:#365381}
    .fil28 {fill:#3E5983}
    .fil11 {fill:#4B6285}
    .fil24 {fill:#4B648A}
    .fil18 {fill:#4BB54C}
    .fil25 {fill:#4CBA4C}
    .fil20 {fill:#546A8C}
    .fil12 {fill:#627593}
    .fil22 {fill:#6A7D9A}
    .fil16 {fill:#6EBA70}
    .fil13 {fill:#71918C}
    .fil17 {fill:#72BB73}
    .fil21 {fill:#77869C}
    .fil9 {fill:#7B899E}
    .fil23 {fill:#88C488}
    .fil32 {fill:#DBDEE4}
    .fil15 {fill:#FCFDFC}
    .fil31 {fill:#FDFEFD}
   ]]>
  </style>
 </defs>
 <g id="Layer_x0020_1">
  <metadata id="CorelCorpID_0Corel-Layer"/>
  <path class="fil0 str0" d="M4491.06 3197.3c352.91,178.41 594.9,544.31 594.9,966.77 0,433.56 -254.89,807.54 -622.96,980.43l6.9 608.66c286.82,-96 536.7,-296.46 744.54,-599.28 40.2,-57.73 101.53,-92.79 166.29,-101.48 49.02,-84.04 96.3,-175.02 140.06,-273.03 295.79,-645.98 400.88,-1417.96 400.88,-1923.93 0,-238.02 -66.56,-407.83 -203.06,-519.8 -124.28,-105.1 -294.07,-145.38 -441.17,-159.39 -69.98,73.58 -189.04,120.86 -322.07,120.86 -213.6,0 -386.91,-120.86 -386.91,-269.62 0,-147.08 173.31,-267.85 386.91,-267.85 129.57,0 245.05,45.51 315.09,113.74 203.04,15.81 448.15,70.07 640.66,231.09 206.61,169.84 311.61,423.64 311.61,750.98 0,540.99 -131.26,1580.82 -588.11,2359.69 20.99,66.64 12.21,143.66 -29.79,206.61 -273.55,396.14 -702.79,663.31 -1129.75,788.5l5.98 527.74c265.4,153 444.06,439.61 444.06,767.96 0,489.23 -396.6,885.83 -885.83,885.83 -427.66,0 -784.52,-303.06 -867.57,-706.12 -18.7,-66.54 -28.7,-136.39 -28.7,-208.44 0,-203.72 79.65,-389.97 211.31,-532.98 52.54,-63.98 113.88,-120.44 182.15,-167.6l7.5 -580.23c-407,-131.92 -809.4,-392.41 -1070.24,-770.15 -42,-62.95 -50.78,-139.96 -29.79,-206.61 -456.85,-778.87 -588.11,-1818.7 -588.11,-2359.69 0,-327.34 105,-581.13 311.61,-750.98 192.51,-161.02 437.61,-215.28 640.66,-231.09 70.04,-68.23 185.52,-113.74 315.09,-113.74 213.6,0 386.91,120.77 386.91,267.85 0,148.76 -173.31,269.62 -386.91,269.62 -133.03,0 -252.09,-47.28 -322.07,-120.86 -147.09,14.02 -316.89,54.3 -441.17,159.39 -136.5,111.97 -203.06,281.78 -203.06,519.8 0,505.96 105.09,1277.95 400.88,1923.93 43.75,98.01 91.03,188.99 140.06,273.03 64.76,8.69 126.09,43.75 166.29,101.48 193.52,281.94 423.5,475.16 685.79,577.94l7.56 -585.33c-375.57,-169.91 -636.89,-547.9 -636.89,-986.93 0,-439.33 261.68,-817.54 637.68,-987.28l0 1040.61 6.58 0 177.2 116.86 292.75 174.78 460.54 -293.15 -4.29 0 0 -1018.59z"/>
  <circle class="fil1 str0" cx="4039.3" cy="7505.93" r="492.13"/>
  <circle class="fil2 str0" cx="4039.3" cy="7505.93" r="393.7"/>
  <g id="_1896879532192">
   <path class="fil3" d="M10632.22 9070.28c-4.36,-35.06 -32.93,-54.46 -43.39,-73.03 -40.79,-72.42 -37.86,-280.47 -15.71,-328.22l102.3 -139.07c45.35,-49.72 7.2,-21.13 62.06,-58.23 22.58,-15.27 31.1,-44.77 69.32,-44.38 6.15,-22.79 10.5,-13.91 68.71,-18.22 167.05,-12.36 119.02,4.02 209.6,5.11 56.66,0.69 77.43,9.55 116.13,42.3 17.48,14.79 30.65,17.52 46.96,29.26 33.69,24.29 119.59,131.28 130.54,171.38 5.89,21.55 9.47,42.18 14.54,63.45 11.1,46.51 19.46,81.77 12.41,136.65l-27.2 128.78c-3.07,8.9 -45.44,71.11 -59.01,92.01 -28.09,43.24 -27.8,6.55 -76.57,76.89 -11.39,16.43 -21.38,23.08 -40.46,33.98 -36.7,20.94 -22.34,15.94 -43.64,32.81 -71.22,56.34 -304.04,53.52 -369.35,7.66 -20.5,-14.4 -19.88,-20.8 -42.02,-34.22 -14.99,-9.09 -37.43,-15.22 -48.41,-27.1 -14.99,-16.21 -11.16,-30.87 -29.32,-46.19 -23.47,-19.79 -33.31,-15.05 -37.46,-51.61zm-183.42 -2026.02c-59.94,2.35 -133.85,-53.11 -148.68,-60.2 -16.08,-7.69 -31.29,-14.1 -46.61,-23.53l-83.56 -56c-44.47,-30.36 -51.47,-51.37 -73.2,-65.81 -82.62,-54.95 -143.2,-129.3 -212.5,-205.81 -37.84,-41.78 -6.42,-47.55 -70.57,-68.54 -54.28,4.54 -67.62,43.15 -112.75,79.2 -13.53,10.81 -17.13,13.5 -30.29,26.64l-144.32 105.84c5.66,26.77 12.15,13.48 18.6,36.46 15.45,7.16 9.74,3.25 19.96,13.69 8.55,8.73 6.92,10.66 10.62,15.77 15.44,21.31 10.02,6.36 29.31,25.97 19.5,19.81 30.5,41.41 52.54,61.66 13.4,12.32 18.54,11.87 31.18,25.9 63.33,70.28 128.39,129.77 203.88,188.65 40.17,31.33 191.28,116.81 204.19,131.01 17.44,19.18 37.85,35.91 66.03,48.09 41.2,17.81 41.45,6.34 80.61,34.19 58.99,41.95 12.17,17.89 79.1,35.39 29.83,7.79 50.24,24 75.94,36.06 19.63,9.2 70.19,17.99 92.12,24.18 66.72,18.81 46.85,96.41 47.08,176 0.3,97.65 13.08,355.04 -18.23,428.61 -24.5,57.6 -43.1,67.77 -103.05,117.65 -53.04,44.14 -55.74,19.02 -119.96,107.57 -40.69,56.11 -59.44,79.69 -81.2,141 -28.03,79.01 -46.81,9.41 -61.19,167.67 -10.34,113.99 -51.13,140.42 -23.2,302.18 4.7,27.21 18.68,60.45 21.56,90.67 7.93,83.25 -14.43,133.69 34.63,188.88 42.04,47.28 9.75,51.35 67.1,103.98 25.13,23.06 -1.95,17.7 76.32,88.58 12.24,11.07 16.17,19.65 21.55,32.57l6.35 17.76c0.39,0.85 1.11,2.59 1.57,3.43l95.73 92.37c10.15,7.28 24.78,12.24 37.19,19.97 24.74,15.42 38.06,36.13 59.89,48.13 29.37,16.15 52.64,16.37 78.63,35.19 75.56,54.7 154.22,39.6 270.67,71.03 84.76,22.87 336.92,-27.59 380.63,-55.94 116.3,-75.39 71.74,-15.33 145.9,-81.72 24.87,-22.26 134.04,-53.98 231.83,-224.06 47.73,-83.02 35.27,-0.7 85.05,-134.93 31.98,-86.22 24.26,0.46 56.89,-171.15 7.21,-37.91 18.05,-59.32 24.7,-88.72 5.08,-22.47 8.67,-82.99 10.3,-104.54 3.7,-49.11 -3.87,-65.38 -10.04,-101.78 -8.7,-51.22 -48.89,-145.3 -38.41,-189.8 -17.63,-6.22 -33.35,-41.06 -41.24,-60.72 -8.65,-21.56 -13.24,-47.54 -23.41,-71.78 -10.01,-23.84 -26.29,-34.59 -39.13,-55.27 -12.76,-20.54 -19.18,-40.49 -33.62,-61.01l-95.67 -100.52c-42.96,-43.67 -72.08,-61.28 -85.27,-104.79 -10,-33.02 -7.97,-136.75 -13.63,-182.83l-5.73 -375.63c1.2,-44.48 1.3,-45.7 30.53,-65.64l137.49 -58.41c23.86,-8.6 51.88,-11.91 74.99,-20.53 25.3,-9.44 41.17,-22.66 64.09,-32.59 19.67,-8.52 53.83,-12.81 70.89,-23.71 17.72,-11.33 28.74,-29.15 48.33,-45.09 24.69,-20.09 36.43,-17.37 64.91,-31.46l86.51 -58c10.47,-7.96 16.28,-12.02 26.65,-18.68 83.58,-53.79 68.49,-61.52 104.56,-91 23.21,-18.96 30.42,-21.67 50.69,-43.27l46.22 -49.83c61.24,-53.61 37.12,-44.48 93.88,-95.6 15.78,-14.21 72.98,-90.13 77.81,-112.14 -23.17,-7.55 -4.52,1.2 -21.54,-11.96l-45.35 -42.87c-67.18,-50.43 -27.09,-23 -63.86,-56.77 -27.56,-25.32 -122.18,-71.06 -131.43,-108.12 -12.58,16.68 -22.39,19.35 -40.44,37.29 -54.22,53.91 -27.24,33.4 -54.73,71.22 -9.7,13.35 -10.74,9.86 -20.44,18.52 -34.67,30.97 12.77,-26.26 -10.63,12.75 -0.67,1.13 -1.35,2.9 -2,4.1 -43.39,79.02 -161.03,133.59 -202.52,179.35 -21.72,23.96 -12.34,23.45 -43.81,40.75l-158.63 117.06c-10.87,2.59 -19.02,3.28 -30.08,5.88 -123.61,29 -110.44,90.39 -181.28,54.41 -32.41,-16.46 -26.5,-56.8 -26.29,-100.84 1.83,-373.9 44.41,-222.56 55.19,-324.29l3.73 14.02c20.03,-119.49 -1.22,-68.07 89.16,-174.76 30.35,-35.84 100.71,-92.51 121.57,-119.1 40.33,-51.38 119.32,-114.32 168.82,-172.75 12.18,-14.39 21.77,-35.59 36.04,-53 75.29,-91.89 23.6,-64.77 51.91,-120.54 37.42,-73.75 57.52,5.96 61.92,-195.6l1.04 3.2c0.13,-0.01 1.39,-0.02 1.56,-0.07l16.21 -16.83c51.59,-85.24 38.43,-381.17 21.26,-485.02 -7.21,-43.64 -16.57,-55.9 -27.59,-87.34 -13.02,-37.16 -10.03,-61.87 -17.41,-102.07 -9.3,-50.6 -18.8,-46.28 -45.53,-71.5 -33.77,-31.86 -9.92,-48.59 -29,-89.47 -11.81,-25.28 -37.92,-27.91 -57.46,-63.24 -21.68,-39.19 -17.83,-43.13 -46.74,-74.82 -59.55,-65.24 -150.24,-144.3 -220.82,-191.57 -49.18,-32.93 -74.83,-60.77 -112.59,-54.72 -5.02,45.95 10.54,114.62 11.87,163.17 1.54,56.42 0.59,114.63 0.48,171.2 -0.37,179 30.68,508.17 -25.93,658.02 -31.53,83.46 -47.97,63.94 -86.44,92.01 -38.13,27.81 -51.09,53.83 -116.78,61.36 -14.87,6.41 -33.04,26.67 -49.65,38.2l-155.04 110.89c-36.19,39.9 -94.8,26.85 -134.77,-6.88 -52.21,-44.05 -91.99,-39.58 -96.04,-82.03 -42.69,3.26 -94.17,-49.22 -125.28,-70.18 -27.83,-18.75 -37.22,-19.62 -60.73,-40.5 -69.07,-61.34 -120.04,-23.8 -146.79,-143.75 -7.64,-34.27 -2.78,-515.1 -2.7,-572.81 0.08,-65.48 -0.63,-130.91 -0.24,-196.38 0.37,-62.7 8.91,-115.19 5.64,-184.29 -36.76,-1.86 -27.54,-3 -53.28,11.24 -67.48,37.35 -26.91,-11.54 -108.43,68.8 -16.53,16.29 -102.15,63.73 -129.18,104.92 -33.84,51.55 -81.07,79.78 -109.71,131.27l-91.95 142.29c-20.09,23.44 -32.26,39.93 -39.11,79.17 -21.1,120.97 -53.37,105.88 -61.46,179.24 -11.66,105.57 -7.22,233.08 -6.8,341.32 0.32,80.63 0.15,134.71 37.52,194.95 53.46,86.16 3.34,82.99 66.56,160.91 24.87,30.65 21.48,55.6 45.81,87.21 41.86,54.41 19.81,37.38 39.44,75.87 11.4,22.35 93.5,104.47 111.83,121 16.98,15.3 50.24,42 63.33,57.46l114.08 119.29c20.55,13.91 19.15,7.13 37.09,26.75 12.59,13.78 12.46,17.89 23.43,33.73 13.15,18.99 17.94,16.73 30.17,32.96 36.59,48.62 78.86,143.74 79.2,210.16 0.2,38.09 0.8,76.15 1.32,114.24 1.57,114.57 17.14,172.15 -62.52,170.02 -5.9,-8.27 -3.72,-3.47 -11.23,-14.02 -13.03,-18.3 0.4,9.83 -11.7,-19z"/>
   <path class="fil4" d="M12209.71 6515.48c7.9,32.46 9.77,13.18 40.32,49.79 48.09,57.65 28.28,13.54 80.14,71.96 11.43,12.88 14.45,20.73 26.88,30.84 9.16,7.44 25.99,17.07 37.65,25.54l27.22 17.7c1.19,0.76 2.74,1.81 3.92,2.57 34.19,21.81 19.94,13.57 46.75,4.29 9.94,-11.12 13.56,-11.62 15.28,-21.86 -0.52,-46.04 22.18,-74.08 46.38,-100.31 34.6,-37.51 24.62,-49.44 42.15,-96.09 13.15,-35 34.23,-48.64 49.15,-90.28l66.35 -204.56c8.41,-35.07 24.59,-67.69 38.14,-102.27 28.39,-72.46 21.72,-153.62 34.8,-237.42 16.5,-105.62 38.04,-71.5 52.23,-225.64 9.83,-106.79 1.91,-677.1 2.44,-815.54 0.48,-127.74 14.37,-436.81 -17.44,-533.55 -12.7,-38.62 -28.09,-60.19 -39.75,-99.61 -11.48,-38.81 -7.9,-82.03 -19.56,-113.11 -13.19,-35.17 -33.88,-57.85 -47.66,-92.6 -33.94,-85.63 -14.59,-32.21 -47.74,-84.75 -9.6,-15.21 -15.33,-34.11 -23.86,-45.56 -13.39,-17.96 -15.39,-10.74 -32.68,-35.8 -24.69,-35.78 -26.52,-49.93 -60.71,-79.05 -42.69,-36.37 1.19,-11.77 -71.85,-67.89l-74.5 -58.95c-51.2,-36.77 -7.23,-31.89 -80.42,-59.03 -28.55,-10.58 -36.7,-38.48 -80.65,-52.56 -72.92,-23.35 -52.8,23.21 -132.22,-43.64 -23.2,-19.53 -57.52,-26.61 -74.4,-12.18 -11.43,14.19 -6.84,-13.38 -9.77,23.83 -3.38,42.8 23.01,-14.87 19.42,113.7 -2.31,82.93 -39.68,41.94 -42.43,114.93 53.16,22.45 12.7,26.72 53.92,48.82 47.11,25.25 63.21,1.99 93.17,43.47 0.8,1.1 1.74,2.74 2.55,3.86 19.56,27.02 21.85,24.17 49.78,35.92 28.15,11.84 35.71,35.76 57.5,54.39 64.25,54.94 24.09,33.61 51.24,62.2 38,40 43.2,-15.9 74.88,93.36 14.89,51.35 42.75,24.8 59.05,106.97 34.31,172.92 59,37.78 59,391.91 0,149.84 -0.21,299.69 -0.16,449.53 0.06,149.85 0.87,299.68 0.85,449.54 -0.02,78.08 -4.37,144.43 -6.05,221.64 -2.22,102.11 -8.76,113.35 -24.51,197.24 -7.13,38 -16.54,55.98 -23.39,90.46 -7.32,36.84 -11.15,61.11 -16.7,98.02 -12.94,86.03 -44.77,19.62 -61.04,160.57 -13.18,114.07 -39.09,47.16 -69.42,159.41 -17.31,64.07 -54.17,67.5 -74.26,149.77z"/>
   <path class="fil4" d="M9301.8 6348.26l98.8 205.35c10.17,17.48 21.65,25.39 29.98,45.84 26.23,64.41 -13.66,18.17 55.58,96.5 6.24,7.07 11.61,12.39 18,20.19 7.17,8.78 9.76,14.42 17.33,22.93 35,-10.71 70.85,-48.42 103.04,-70.55 32.9,-22.61 12.41,-13.04 29.84,-33.67l51.29 -37.02c23.48,-17.13 48.63,-33.17 60.09,-60.43 6.96,-16.55 3.88,-7.68 7.13,-26.49 -33.66,-38.04 -33.33,-33.39 -48.81,-92.4l-35.95 -27.06c-57.67,-34.53 -33.31,-50.94 -51.89,-111.36 -12.33,-40.13 -27.11,-29.16 -40.41,-66.3 -9.7,-27.1 -10.39,-60.3 -22.81,-85.85 -31.88,-65.64 -52.74,-57.76 -54.57,-164.06 -1.78,-102.69 -18.52,-87.5 -34.03,-132.95 -18.33,-53.74 -11.36,-66.76 -20.51,-88.85 -6.61,-15.97 -11.02,-12.83 -12.78,-38.42 -9.22,-134.74 -2.32,-609.02 -2.2,-752.85 0.16,-174.61 -6.86,-493.96 2.11,-658.51 2.75,-50.46 45.2,-68.94 58.99,-101.8 6.09,-14.53 6.95,-25.57 8.93,-43.72 6.54,-60.26 46.68,-72.13 63.06,-105.04 39.66,-79.71 6.09,-18.88 69.26,-88.09 14.59,-16 37.56,-48.48 49.3,-57.75 20.82,-16.44 35.81,-15.1 65.16,-43.34 20.85,-20.07 39.84,-24.86 65.99,-40.98 16.2,-9.98 52.9,-36.33 65.18,-42.01 21.8,-10.08 42.41,-0.66 67.35,-14.99 26.95,-15.49 0.19,1.12 15.66,-13.08 6.4,-40.22 -10.45,-119.18 -19.93,-152.21 -28,-97.62 22.32,-67.56 12.09,-145.75 -64.1,-2.83 -49.03,17.02 -85.86,35.53 -28.37,14.28 -64.62,12.71 -98.71,20.99 -65.11,15.8 -46.06,15.64 -78.28,42.49 -17.63,14.69 -50.83,25.81 -73.86,39.58 -32.22,19.27 -57.55,47.24 -59.27,48.45l-75.48 52.28c-82.19,63.14 -25.74,37.04 -108.45,125.3 -72.01,76.86 -67.6,103.43 -102.71,131.78 -71.76,57.93 -1.66,70.59 -73.74,160.89 -27.21,34.09 -22.09,35.15 -31.42,87.94l-26.34 151.81c-3.98,16.74 -9.61,28.82 -11.74,42.16 -6.67,41.77 -6.19,958.23 -5.46,1055.61 0.48,63.95 11.32,151.95 22.91,211.8 20.65,106.64 15,270.89 28.87,329.17 25.39,106.7 32.3,81.94 48.85,127.17l22.34 154.36c0.16,0.07 1.43,0.48 1.65,0.63 9.82,6.93 42.72,54.71 36.43,86.76z"/>
   <path class="fil5" d="M11594.17 3451.32c79.63,-17.67 112.36,15.86 114.84,93.74 0.86,26.81 -1.39,67.41 -16.49,88.64 -35.72,50.19 -161.09,81.77 -179.09,-57.24 -4.3,-33.17 5.04,-59.26 16.72,-85.3 16.74,-37.28 22.26,-30.57 64.02,-39.84zm327.38 256.55c9.49,-26.81 8.24,-31.43 11.07,-67.65 2.54,-32.29 10.25,-38.56 12.56,-69.58 4.31,-58.15 -6.19,-101.61 -6.52,-158.35 0.86,-0.64 2.43,-1.39 2.74,-1.69l5.76 -6.69c0.46,-1.14 0.58,-12.1 0.59,-16.24 -12.26,-29.82 -37.89,-66.94 -61.39,-86.16 -18.09,-14.79 -24.19,-17.65 -39.78,-36.35 -12.17,-14.62 -18.19,-25.84 -35.47,-27.29 -135.73,-1.96 -103.05,-101.24 -323.36,-18.13 -132.58,50.01 -60.44,15.24 -121.85,80.3 -10.41,11.03 -21.3,16.32 -31.93,31.69 -19.3,27.94 -17.82,71.32 -37.85,94.95 -1.37,1.62 -18.52,10.69 -25.76,44.52 -8.28,38.74 -6.62,136 21.02,172.26 56.56,74.15 14.49,42.74 41.5,90.67 47.15,83.65 129.43,103.95 149.18,117.45 34.84,23.82 45.33,32.15 103.33,32.02 47.91,-0.11 84.69,2 119.55,-15.85 101.22,-51.83 104.81,-33.94 150.93,-116.2 12.37,-22.06 39.78,-58.08 65.67,-43.66z"/>
   <path class="fil6" d="M10744.93 9001.21zm0 0zm0 0c0.54,33.26 42.5,56.89 70.85,74.02 35.69,21.56 55.33,44.11 96.39,52.5 144.79,29.59 141.67,-47.87 236.47,-61.96 9.16,-3.37 34.25,-17.32 37.55,-31.15 0.94,-4.5 37.71,-96.19 53.46,-111.87 8.85,-8.82 16.02,-6.43 26.42,-30.19 60.43,-138.17 -100.52,-352.14 -262.87,-369.26 -124.41,-13.12 -164.98,26.49 -240,80.93 -28.24,20.5 -27.43,37.18 -44.27,65.15 -36.22,60.15 -47.83,79.57 -42.16,175.65 1.7,28.78 36.8,146.54 68.18,156.19z"/>
   <path class="fil7" d="M10518.85 3606.02l-24.43 38.18c-34.76,66.24 -299.78,82.77 -240.92,-140.34 23,-87.17 184.66,-120.65 249.5,-8.17 15.72,27.29 38.2,75.66 15.84,110.34zm-440.83 21.54c-0.1,133.73 -0.68,94.11 52.44,144.66 11.72,11.16 15.71,21.23 27.54,32.78 39.49,38.57 57.94,16.61 88.15,41.5 44.66,36.8 39.82,35.05 130.07,35.05 66.68,0 80.44,1.66 125.72,-26.98 35.51,-22.46 73.01,-30.94 98.98,-59.63 12.24,-13.52 55.61,-70.37 64.44,-88.03 31.93,-63.79 28.1,-242.35 11.76,-291.74 -1.67,-5.06 -55.39,-95.36 -62.34,-102.11 -17.13,-16.62 -30.26,-18.33 -46.4,-35.54 -53,-56.55 -32.81,-45.41 -211.15,-46.19 -45.41,-0.19 -120.35,-6.41 -154.91,13.51 -22.92,13.2 -25.48,28.04 -38.55,44.16 -13.73,16.95 -34.91,20.56 -51.82,35.78 -46.31,41.7 -33.85,220.63 -33.92,302.8z"/>
   <path class="fil8" d="M11961.39 3720.48c10.35,19.93 -1.21,3.5 13.65,18.16 32.94,32.48 101.71,56.58 121.96,73.84 21.73,18.52 41.15,28.6 63.37,44.53 25.11,18.01 35.18,34.01 58.49,55.22 24.36,22.15 32.46,30.22 54.46,53.46 24.58,25.95 41.6,23.41 56.51,54.71 5.59,11.72 8.14,27.33 15.38,42.7 6.69,14.22 15.12,22.72 23.13,34.98 17.83,27.28 26.47,47.84 35.16,81 8.7,33.25 7.97,56.23 20.37,87.03 40.81,101.35 36.43,178.03 36.55,298.5 0.28,271.85 11.14,866.86 -7.68,1108.04 -6.78,86.97 -32.88,155.42 -35.49,189.74 -16.15,212.14 -48.44,189.89 -75.04,262.3 -11.73,31.92 -9.15,64.74 -18.13,95.58 -9.1,31.19 -24.09,44.01 -38.47,70.07 -14.56,26.4 -18.77,54.66 -33.08,81.04 -13.73,25.3 -30.18,44.68 -43.2,69.57l-41.83 75.63 -0.98 10.67c17.67,-5.34 19.6,-11.16 43.17,-11.78 20.09,-82.28 56.94,-85.7 74.26,-149.77 30.33,-112.25 56.24,-45.33 69.42,-159.41 16.27,-140.95 48.1,-74.55 61.04,-160.57 5.56,-36.91 9.39,-61.18 16.7,-98.02 6.86,-34.48 16.26,-52.47 23.39,-90.46 15.76,-83.89 22.29,-95.12 24.51,-197.24 1.68,-77.21 6.04,-143.56 6.05,-221.64 0.02,-149.86 -0.8,-299.69 -0.85,-449.54 -0.05,-149.84 0.16,-299.69 0.16,-449.53 -0.01,-354.13 -24.69,-218.99 -59,-391.91 -16.3,-82.18 -44.16,-55.62 -59.05,-106.97 -31.68,-109.26 -36.89,-53.36 -74.88,-93.36 -27.15,-28.58 13.01,-7.25 -51.24,-62.2 -21.79,-18.63 -29.35,-42.55 -57.5,-54.39 -27.93,-11.75 -30.22,-8.89 -49.78,-35.92 -0.81,-1.11 -1.76,-2.76 -2.55,-3.86 -29.96,-41.48 -46.06,-18.22 -93.17,-43.47 -41.22,-22.1 -0.76,-26.37 -53.92,-48.82 2.75,-72.99 40.12,-31.99 42.43,-114.93 3.59,-128.58 -22.8,-70.91 -19.42,-113.7 2.93,-37.2 -1.65,-9.63 9.77,-23.83 16.89,-14.43 51.2,-7.35 74.4,12.18 79.42,66.85 59.3,20.29 132.22,43.64 43.96,14.07 52.11,41.97 80.65,52.56 73.19,27.14 29.22,22.26 80.42,59.03l74.5 58.95c73.04,56.11 29.16,31.52 71.85,67.89 34.19,29.12 36.02,43.28 60.71,79.05 17.3,25.05 19.29,17.83 32.68,35.8 8.53,11.44 14.26,30.35 23.86,45.56 33.15,52.54 13.8,-0.88 47.74,84.75 13.78,34.75 34.46,57.43 47.66,92.6 11.66,31.08 8.07,74.3 19.56,113.11 11.66,39.42 27.05,60.99 39.75,99.61 31.81,96.74 17.93,405.81 17.44,533.55 -0.52,138.43 7.4,708.74 -2.44,815.54 -14.19,154.14 -35.73,120.02 -52.23,225.64 -13.09,83.8 -6.41,164.95 -34.8,237.42 -13.55,34.59 -29.73,67.2 -38.14,102.27l-66.35 204.56c-14.93,41.63 -36.01,55.27 -49.15,90.28 -17.53,46.65 -7.55,58.58 -42.15,96.09 -24.2,26.24 -46.91,54.27 -46.38,100.31 20.01,-14.64 18.76,-30.23 30.02,-47.75 10.7,-16.65 22.1,-20.78 34.2,-34.75 24.35,-28.09 26.25,-65.57 40.91,-99.89 16.5,-38.62 33.28,-47.81 48.23,-91.11l68.66 -208.99c27.96,-96.44 49.13,-15.84 64.87,-211.85 21.85,-272.21 70.22,-104.7 69.28,-633.24 -0.33,-187.8 -0.59,-375.71 -0.39,-563.5 0.18,-162.24 14.05,-396.69 -19.45,-536.26 -9.23,-38.47 -30.16,-61.26 -41.26,-97.42 -11.05,-35.98 -7.86,-84.15 -21.03,-119.16l-127.13 -226.95c-27.2,-36.52 -129.38,-153.91 -164.54,-183.51 -12.79,-10.77 -23.1,-21.14 -37.2,-32.88 -59.09,-49.2 -44.07,-44.73 -122.48,-85.98 -40,-21.04 -20.96,-36.37 -86.04,-51.19 -62.65,-14.27 -55.04,-13.92 -102.14,-39.48 -47.06,-25.55 -62.88,-20.53 -121.7,-29.17 -18.62,5.94 -5.91,-3.28 -11,15.53 -10.51,38.9 29.7,78.72 -16,229.78 -7.37,24.38 -7.02,64.65 -12.29,71.96z"/>
   <path class="fil9" d="M9482.92 6785.73c14.15,23.86 125.81,156.59 152.99,177.99l86.95 77.74c27.82,27.81 75.69,89.65 121.16,125.69 18.85,14.94 27.52,24.53 44.26,38.06 16.56,13.39 32.49,20.04 50.43,31.85 21.63,14.22 24.49,22.33 47.37,34.86 70.99,38.85 26.87,-1.74 100.74,64.05 24.51,21.83 49.99,18.98 107.56,56.95 36.75,24.24 74.85,31.56 112.88,51.6 90.4,47.65 73.65,19.81 124.26,40.36 57.44,23.32 35,59.59 34.24,118.6 -0.75,58.32 -0.42,109.32 -5.08,160.01 -3.25,35.22 12.89,61.69 0.89,152.57 -13.17,99.76 23.68,146.6 -46.96,200.98l-128.13 118.74c-129.62,130.87 -85.2,149.88 -129.75,199.48 -19.12,21.28 -23.06,18.02 -32.7,49.27 -6.88,22.28 -7.04,49.99 -11.12,71.13 -9.78,50.65 -31.3,71.51 -42.3,122.13 -42.54,195.87 24.01,280.22 42.19,430.93 8.29,68.79 14.73,68.28 50.98,113.09 29.67,36.68 25.58,67.58 59.35,105.22 13.86,15.44 23.65,28.68 35.87,46.54l74.56 89.96c16.59,16.07 28.3,21.72 44.65,37.67 80.61,78.66 54.36,39.09 92.17,72.44 68.68,60.55 60.13,36.47 101.66,62.86 21.55,13.69 24.03,21.47 49.52,32.61l181.83 64.6c50.89,9.37 103.5,9.43 161.65,9.28 59.81,-0.16 103.52,-0.7 157.13,-7.54 56.13,-7.16 74.39,-27.99 119.29,-44.7 65.76,-24.46 44.65,-1.42 116.58,-47.94 35.23,-22.79 49.95,-15.16 104.52,-60.01 66.08,-54.31 17.4,8.78 136.96,-109.94l79.41 -85.09c30.94,-45.78 0.67,-17.47 65.26,-99.44 35.36,-44.88 66.68,-112.6 78.8,-167.85 29.01,-132.2 84.67,-92.74 58.95,-421.09 -4.75,-60.59 -27.8,-75.17 -45.98,-118.05 -18.4,-43.39 -17.03,-81.19 -39.93,-124.63l-122.19 -206.89c-16.06,-18.18 -22.56,-18.24 -40.85,-41.49 -13.77,-17.5 -24.42,-27.19 -39.79,-42.47 -18.38,-18.28 -70.42,-64.64 -79.84,-84.96 -17.26,-37.25 -11.35,-179.54 -11.26,-236.75 0.05,-33.57 -5.7,-50.01 -5.69,-75.81 0.02,-25.89 6.05,-42.49 5.92,-76.04 -0.13,-34.36 -5.17,-44.61 -5.89,-75.77 -3.07,-135.54 -24.27,-122.91 88.5,-146.83l280.54 -130.56c16.13,-14.11 24.73,-29.28 42.79,-39.56 19.32,-11 39.93,-11.08 61.15,-21.35 23.43,-11.35 26.63,-22.91 45.2,-36.9 36.71,-27.65 83.58,-45.69 141.87,-105.02 29.23,-29.76 58.16,-47.82 85.94,-78.63 27.72,-30.71 58.82,-50.61 82.38,-82.19 34.65,-46.44 134.12,-136.44 146.71,-190.15l-24.33 5.09c-20.25,53 -171.26,208.44 -221.33,256.81 -116.11,112.15 -141.22,119.66 -263.3,211.46 -17.65,13.27 -41.86,13.6 -66.27,27.76 -23.35,13.54 -25.28,28.9 -50.14,44.57 -17.75,11.19 -49.25,16.09 -70.59,26.08 -22.89,10.72 -33.87,20.93 -62.6,33.9 -26.58,12 -49.65,13.54 -72.37,22.58 -21.57,8.59 -33.54,24 -60.89,31.98 -53.3,15.56 -104.11,17.78 -107.39,81.6 -3.69,71.98 5.38,514.8 19.01,548.9 20.96,52.42 138.58,139.13 180.37,201.33 16.27,24.22 16.88,38.2 34.96,59.84 28.87,34.56 87.29,162.03 82.04,196.39 6.18,5.58 3.95,0.6 11.93,16.26l19.9 68.37c24.66,72.45 65.19,76.91 38.23,293.61 -3.89,31.21 -59.43,225.65 -78.96,259.4 -15.67,27.07 -22.61,50.51 -36.08,78.26 -16.97,34.94 -32.26,35.12 -50.43,63.44 -16.32,25.44 -20.97,54.44 -39.27,75.53l-111.66 116.46c-27.57,29.52 -33.78,25.05 -68.13,44.17 -46.65,25.96 -38.18,37.78 -142.43,83.83l-85.94 36.22c-229.08,79.82 -341.41,62.96 -571.49,-3.93l-155.82 -77.09c-105.61,-84.98 -142.44,-88.53 -237.73,-216.85 -8.86,-11.94 -15.63,-22.67 -23.14,-33.4 -34.02,-48.64 -31.52,-25.85 -64.41,-105.51 -12.67,-30.69 -31.79,-36.44 -46.13,-67.83 -15.86,-34.74 -12.35,-88.66 -26.02,-150.03 -16.35,-73.35 -23.89,-42.53 -36.57,-132.98 -8.84,-63.01 -7.04,-162.67 15.64,-219.95l9.98 -21.9c23.86,-55.67 17.14,-88.15 31.04,-140.22 8.37,-31.37 29.62,-43.95 43.85,-68.13 14.96,-25.41 20.9,-61.69 36.12,-84.06 57.17,-84.05 67.97,-81.7 101.81,-126.68l121.62 -105.31c68.61,-63.07 53.03,-315.04 53.68,-410.35 1.84,-270.8 26.82,-198.52 -176.41,-281.73 -23.07,-9.45 -63.63,-21.96 -80.65,-32.67 -20.62,-13 -43.92,-36.05 -66.76,-43.86 -136.41,-46.63 -47.96,-26.57 -155.12,-82.54 -34.95,-18.25 -98.8,-68.75 -132.45,-95.13 -23.25,-18.23 -42.69,-28.7 -64.64,-49.65l-172.28 -169.76c-32.31,-27.98 -98.64,-90.03 -105.06,-137.19 -6.45,-22.97 -12.94,-9.69 -18.6,-36.46 -21.11,-7.94 -3.79,-2.19 -16.25,-8.66 -3.73,-1.94 1.38,-1.6 -11.26,-5.47l-3.24 18.72c-14.15,3.39 -2.59,-20.43 -12.65,5.09z"/>
   <path class="fil10" d="M9260.57 3931.04c-32.24,20.54 -26.39,79.72 -49.6,114.28 -36.93,55.01 -24.33,65.03 -47.61,123.72 -8.18,20.63 -13.48,39.07 -22.04,59.21 -31.98,75.09 -29.27,152.73 -29,235.06l-0.94 1032.06c1.29,147.11 10.85,189.25 30.09,317.78 11.55,77.17 24.37,221.28 68.2,278.9 42.43,55.75 -3.03,116.66 55.21,203.93 8,11.98 9.6,17.52 15.74,29 10.48,19.57 10.53,18.67 21.17,23.28 6.29,-32.05 -26.61,-79.82 -36.43,-86.76 -0.22,-0.15 -1.49,-0.56 -1.65,-0.63l-22.34 -154.36c-16.55,-45.23 -23.46,-20.46 -48.85,-127.17 -13.87,-58.28 -8.22,-222.54 -28.87,-329.17 -11.58,-59.85 -22.43,-147.84 -22.91,-211.8 -0.73,-97.38 -1.21,-1013.84 5.46,-1055.61 2.13,-13.34 7.76,-25.43 11.74,-42.16l26.34 -151.81c9.33,-52.79 4.21,-53.84 31.42,-87.94 72.07,-90.3 1.98,-102.96 73.74,-160.89 35.11,-28.35 30.7,-54.92 102.71,-131.78 82.71,-88.26 26.26,-62.17 108.45,-125.3l75.48 -52.28c1.72,-1.21 27.05,-29.18 59.27,-48.45 23.04,-13.78 56.24,-24.9 73.86,-39.58 32.22,-26.85 13.17,-26.69 78.28,-42.49 34.09,-8.28 70.34,-6.71 98.71,-20.99 36.83,-18.52 21.76,-38.37 85.86,-35.53 10.23,78.19 -40.09,48.13 -12.09,145.75 9.48,33.03 26.33,112 19.93,152.21 -15.46,14.2 11.3,-2.41 -15.66,13.08 -24.95,14.33 -45.56,4.91 -67.35,14.99 -12.28,5.68 -48.98,32.02 -65.18,42.01 -26.15,16.11 -45.14,20.91 -65.99,40.98 -29.35,28.24 -44.34,26.89 -65.16,43.34 -11.75,9.27 -34.71,41.75 -49.3,57.75 -63.16,69.22 -29.59,8.38 -69.26,88.09 -16.39,32.91 -56.53,44.78 -63.06,105.04 -1.98,18.16 -2.83,29.2 -8.93,43.72 -13.78,32.85 -56.24,51.34 -58.99,101.8 -8.97,164.55 -1.95,483.9 -2.11,658.51 -0.12,143.83 -7.02,618.12 2.2,752.85 1.76,25.59 6.17,22.45 12.78,38.42 9.15,22.1 2.19,35.12 20.51,88.85 15.5,45.44 32.25,30.26 34.03,132.95 1.83,106.29 22.69,98.42 54.57,164.06 12.41,25.55 13.1,58.75 22.81,85.85 13.3,37.15 28.07,26.17 40.41,66.3 18.57,60.41 -5.78,76.83 51.89,111.36l35.95 27.06c-4.89,-55.36 -27.87,-38.72 -47.21,-64.37 -17.72,-23.47 -17.72,-81.31 -40.26,-118.37 -23.61,-38.83 -98.35,-225.02 -102.19,-273.01 -13.59,-169.66 -17.19,-88.92 -38.91,-186.06 -48.44,-216.7 -26.9,-597.4 -27.15,-844.89 -0.11,-108.63 -10.09,-540.02 15.2,-629.09 8.14,-28.68 24.35,-45.46 36.3,-69.61 17.94,-36.25 13.87,-113.3 112.04,-216.81 70.24,-74.06 85.13,-94.96 169.97,-159.32 28.06,-21.28 105.12,-64.86 139.97,-74.73 39.93,-11.31 52.94,-28.01 83.24,-37.04l3.96 -20.01c-4.95,-60.99 -25.99,-81.95 -26.58,-148.16 -0.54,-61.25 7.83,-99.2 6.2,-159.17l-17.77 -3.08c-13.74,10.3 -16.11,8.22 -34.47,10.24 -19.6,2.15 -17.24,-0.95 -34.19,6.69 -22.98,10.37 -11.69,12.74 -48.67,26.52 -48.77,18.16 -73.3,16.26 -122.87,29.73 -47.81,13 -54.38,40.16 -97.33,60.75 -34.62,16.6 -64.39,38.08 -94.3,59.4 -123.29,87.88 -133.67,121.83 -227.15,235.11 -29.06,35.21 -26.8,70.46 -71.3,87.78z"/>
   <path class="fil11" d="M11788.71 8533.67c-10.47,44.5 29.72,138.57 38.41,189.8 6.18,36.4 13.74,52.67 10.04,101.78 -1.62,21.55 -5.21,82.07 -10.3,104.54 -6.65,29.4 -17.49,50.81 -24.7,88.72 -32.63,171.62 -24.92,84.93 -56.89,171.15 -49.78,134.23 -37.32,51.91 -85.05,134.93 -97.79,170.08 -206.96,201.8 -231.83,224.06 -74.16,66.39 -29.61,6.33 -145.9,81.72 -43.72,28.34 -295.87,78.8 -380.63,55.94 -116.45,-31.43 -195.11,-16.33 -270.67,-71.03 -25.99,-18.82 -49.26,-19.04 -78.63,-35.19 -21.83,-12 -35.15,-32.71 -59.89,-48.13 -12.41,-7.73 -27.04,-12.69 -37.19,-19.97l-95.73 -92.37c-0.46,-0.85 -1.18,-2.59 -1.57,-3.43l-6.35 -17.76c-5.38,-12.91 -9.31,-21.49 -21.55,-32.57 -78.27,-70.88 -51.19,-65.52 -76.32,-88.58 -57.35,-52.62 -25.06,-56.69 -67.1,-103.98 -49.06,-55.19 -26.7,-105.63 -34.63,-188.88 -2.88,-30.21 -16.85,-63.45 -21.56,-90.67 -27.93,-161.76 12.86,-188.19 23.2,-302.18 14.37,-158.27 33.16,-88.66 61.19,-167.67 21.75,-61.31 40.51,-84.89 81.2,-141 64.22,-88.56 66.92,-63.44 119.96,-107.57 59.94,-49.89 78.54,-60.06 103.05,-117.65 31.31,-73.57 18.53,-330.96 18.23,-428.61 -0.23,-79.59 19.64,-157.19 -47.08,-176 -21.93,-6.19 -72.49,-14.98 -92.12,-24.18 -25.7,-12.06 -46.11,-28.27 -75.94,-36.06 -66.94,-17.49 -20.11,6.57 -79.1,-35.39 -39.17,-27.85 -39.41,-16.38 -80.61,-34.19 -28.18,-12.19 -48.59,-28.91 -66.03,-48.09 -12.91,-14.2 -164.02,-99.67 -204.19,-131.01 -75.49,-58.87 -140.54,-118.37 -203.88,-188.65 -12.65,-14.04 -17.78,-13.58 -31.18,-25.9 -22.03,-20.25 -33.04,-41.84 -52.54,-61.66 -19.29,-19.61 -13.87,-4.66 -29.31,-25.97 -3.7,-5.11 -2.07,-7.04 -10.62,-15.77 -10.22,-10.44 -4.51,-6.54 -19.96,-13.69 6.43,47.16 72.75,109.2 105.06,137.19l172.28 169.76c21.95,20.95 41.39,31.42 64.64,49.65 33.65,26.38 97.5,76.88 132.45,95.13 107.16,55.97 18.71,35.91 155.12,82.54 22.84,7.81 46.13,30.86 66.76,43.86 17.02,10.72 57.57,23.22 80.65,32.67 203.23,83.22 178.25,10.93 176.41,281.73 -0.65,95.31 14.93,347.28 -53.68,410.35l-121.62 105.31c-33.85,44.98 -44.65,42.63 -101.81,126.68 -15.22,22.37 -21.16,58.65 -36.12,84.06 -14.23,24.18 -35.48,36.76 -43.85,68.13 -13.91,52.06 -7.18,84.54 -31.04,140.22l-9.98 21.9c-22.68,57.28 -24.48,156.94 -15.64,219.95 12.69,90.45 20.22,59.63 36.57,132.98 13.67,61.37 10.15,115.29 26.02,150.03 14.33,31.39 33.46,37.14 46.13,67.83 32.89,79.66 30.39,56.87 64.41,105.51 7.5,10.72 14.28,21.46 23.14,33.4 95.3,128.32 132.13,131.87 237.73,216.85l155.82 77.09c230.09,66.89 342.41,83.75 571.49,3.93l85.94 -36.22c104.25,-46.05 95.78,-57.87 142.43,-83.83 34.35,-19.12 40.56,-14.65 68.13,-44.17l111.66 -116.46c18.3,-21.09 22.95,-50.09 39.27,-75.53 18.17,-28.33 33.46,-28.5 50.43,-63.44 13.47,-27.75 20.41,-51.19 36.08,-78.26 19.54,-33.76 75.07,-228.19 78.96,-259.4 26.96,-216.7 -13.57,-221.16 -38.23,-293.61l-19.9 -68.37c-7.97,-15.67 -5.74,-10.69 -11.93,-16.26z"/>
   <path class="fil12" d="M10351.62 6511.02c31.34,5.74 34.96,25.73 50.43,46.96 36.82,50.53 77.89,102.24 97.35,185.37 11.08,47.31 10.96,123.34 13.57,176.52 6.33,128.62 -10.45,115.54 -64.17,124.39 12.1,28.83 -1.33,0.7 11.7,19 7.51,10.56 5.33,5.75 11.23,14.02 79.66,2.13 64.09,-55.44 62.52,-170.02 -0.52,-38.09 -1.12,-76.15 -1.32,-114.24 -0.34,-66.42 -42.61,-161.54 -79.2,-210.16 -12.22,-16.24 -17.01,-13.98 -30.17,-32.96 -10.97,-15.85 -10.83,-19.95 -23.43,-33.73 -17.94,-19.61 -16.54,-12.84 -37.09,-26.75l-114.08 -119.29c-13.09,-15.46 -46.34,-42.16 -63.33,-57.46 -18.33,-16.53 -100.43,-98.65 -111.83,-121 -19.63,-38.49 2.42,-21.46 -39.44,-75.87 -24.33,-31.61 -20.94,-56.56 -45.81,-87.21 -63.21,-77.91 -13.09,-74.74 -66.56,-160.91 -37.37,-60.24 -37.2,-114.32 -37.52,-194.95 -0.43,-108.24 -4.86,-235.75 6.8,-341.32 8.1,-73.36 40.36,-58.27 61.46,-179.24 6.85,-39.25 19.02,-55.74 39.11,-79.17l91.95 -142.29c28.64,-51.48 75.87,-79.72 109.71,-131.27 27.03,-41.19 112.65,-88.63 129.18,-104.92 81.52,-80.33 40.94,-31.44 108.43,-68.8 25.75,-14.24 16.53,-13.11 53.28,-11.24 3.27,69.1 -5.27,121.59 -5.64,184.29 -0.38,65.48 0.33,130.9 0.24,196.38 -0.07,57.71 -4.94,538.54 2.7,572.81 26.75,119.96 77.71,82.41 146.79,143.75 23.51,20.88 32.91,21.75 60.73,40.5 31.11,20.96 82.59,73.44 125.28,70.18 9.98,-30.01 -9.65,-14.46 -38.06,-32.09 -1.06,-0.66 -2.51,-1.82 -3.54,-2.52l-6.98 -5.52c-1.06,-0.8 -2.56,-1.99 -3.62,-2.79 -50.43,-38.39 -41.91,-39.99 -101.12,-56.83 -6.1,-13.71 -3.13,-2.62 -3.78,-24.28 -25.47,-57.33 -126,-48.14 -131.29,-145.66 -4.72,-86.98 0.37,-190.12 0.31,-278.97 -0.06,-95.3 -10.15,-177.84 -5.78,-272.43 2.04,-43.98 13.95,-368.37 2.55,-407.25 -11.45,-39.06 -50.59,-45.46 -82.24,-27.93 -10.91,6.05 -25.73,20.83 -38.94,30.78 -17.96,13.52 -23.98,15.57 -44.06,25.84 -35.55,18.2 -42.53,40.25 -76.83,62.3 -56.67,36.45 -106.27,74.05 -149.64,128.51 -21.44,26.93 -43.03,49.16 -63.27,75.99 -11.22,14.87 -17.28,23.91 -28.6,40.96 -10.52,15.85 -20.78,27.59 -28.96,40.65 -9.24,14.72 -14.25,29.63 -23.55,46.08 -42.79,75.71 -37.69,14.56 -67.92,140.44 -12.28,51.15 -30.04,54.7 -45.59,93.94 -14.9,37.57 -25.96,197.41 -32.02,245.88 -6.49,52 14.67,336.57 35.7,376.93 20.01,38.4 36.42,40.31 47.07,92.62 11.98,58.88 6.85,58.31 39.93,98.62 27.75,33.83 27.48,58.35 48.91,90.56l55.85 83.25c37.64,44.36 71.54,72.18 104.45,104.42l71.86 67.56c22.7,28.26 76.07,90.69 106.27,99.55z"/>
   <path class="fil13" d="M9999.75 3375.22c-0.76,16.25 -2.33,15.83 -8.67,27.02 14.79,25.11 1.93,5.5 1.7,10.09 -0.16,3.31 -0.92,2.19 -1.91,2.49l17.77 3.08c32.26,-9.74 34.91,0.94 46.37,-20.93 8.16,-15.58 13.85,-45.42 20.72,-62.9 14.6,-37.2 50.73,-55.09 78.04,-81 57.79,-54.85 173.55,-72.56 251.04,-60.45 135.21,21.12 117.35,11.67 181.09,67.08 48.99,42.6 72.55,55.02 106.53,128.12 54.69,117.67 33.52,287.27 -37.05,379.33 -28.44,37.11 -38.29,54.61 -78.8,79.62 -94.16,58.13 -131.89,69.17 -256.72,59 -109.02,-8.88 -174.98,-83.38 -251.25,-147.85 -20.83,-17.59 -25.55,-11.52 -39.58,-32.7l-3.96 20.01c-2.41,22.7 -3.54,26.1 -25.19,38.34 -11.13,6.29 -27.59,12 -40.58,16.06l-150.27 77.53c-10.64,7.71 -19.19,17.93 -29.67,27.11 -88.77,77.74 -27.22,9.87 -116.5,111.51 -45.05,51.28 -88.35,105.81 -106.96,178.91 -13.88,54.52 -53.71,115.65 -62.03,162.7 -8.42,47.61 -5.73,1033.24 -3.43,1138.21 5.53,252.19 19.44,166.48 45.36,294.3 31.8,156.78 8.93,101.09 63.93,279.64 9.34,30.33 14.83,55.41 26.81,85.83 12.9,32.72 29.55,46.94 38.9,76 9.94,30.88 10.84,65.81 22.56,94.22 15.2,36.89 32.98,28.13 49.58,63.48 14.67,31.21 17.09,54.13 36.4,75.53 20.89,23.19 31.88,32.99 33.53,75.45l6.19 24.32c64.15,21 32.73,26.76 70.57,68.54 69.29,76.51 129.88,150.86 212.5,205.81 21.72,14.45 28.72,35.45 73.2,65.81l83.56 56c15.32,9.43 30.53,15.85 46.61,23.53 14.83,7.09 88.74,62.55 148.68,60.2 53.72,-8.85 70.5,4.23 64.17,-124.39 -2.62,-53.18 -2.49,-129.21 -13.57,-176.52 -19.46,-83.13 -60.53,-134.84 -97.35,-185.37 -15.46,-21.23 -19.08,-41.22 -50.43,-46.96 34.42,65.84 71.7,59.33 116.74,209.78 14.57,48.69 19.92,76.96 23.39,135.53 2.5,42.18 16.93,113.53 -0.49,153.39 -57.03,26.22 -129.52,-30.22 -168.42,-48.7 -38.2,-18.16 -42.83,-12.92 -72.62,-41.74 -27.9,-27 -42.6,-25.19 -74.82,-45.28l-293.9 -282.55 -90.29 -137.6c-26.42,-31.81 -24.81,-43.07 -42.66,-77.92 -14,-27.37 -33.46,-41.65 -46.98,-66.92 -17.15,-32.05 -9.89,-60.24 -21.02,-93.28 -9.8,-29.11 -31.89,-42.42 -43.67,-70.04 -13.22,-31.01 -13.79,-64.36 -22.96,-97.75 -22.48,-81.89 -33.04,-40.37 -51.26,-176.78 -14.72,-110.23 -8.59,-85.78 -35.16,-199.09 -35.19,-150.05 -19.31,-907.13 -19.94,-1139.11 -0.26,-96.81 -6.41,-137.58 23.37,-211.59 50.76,-126.12 14,-99.73 97.31,-244.88 8.02,-13.97 13.67,-21.07 25.07,-32.2 12.68,-12.39 18.61,-19.41 30.5,-32.73 17.96,-20.13 36.87,-38.55 56.64,-57.39 63.54,-60.54 133.63,-99.33 212.74,-135.87 26.19,-12.1 56.65,-23.72 93.94,-21.65 47.53,2.62 49.45,19.63 72.52,43.18 15.39,15.7 47.52,32.76 66.64,47.19 28.27,21.37 36.41,36.06 77.66,41.83 43.42,6.07 173.96,6.72 217.17,-0.9 37.91,-6.69 121.89,-60.06 149.15,-84.38 42.21,-37.69 78.35,-80.33 91.97,-135.39 32.47,-131.26 86.95,-88.97 20.88,-264.4 -29.13,-77.35 -14.07,-73.93 -78.36,-149.15 -21.03,-24.6 -44.21,-30.3 -66.14,-54.11 -39.31,-42.69 -71.98,-61.33 -144.6,-82.58 -144.99,-42.44 -199.83,4.18 -273.56,39.84 -49.04,23.72 -31.4,24.45 -64.53,55.52 -21.61,20.28 -41.32,28.1 -59.01,54.75 -22.12,33.34 -17.83,48.68 -57.16,67.16z"/>
   <path class="fil14" d="M11250 5762.22c65.69,-7.52 78.65,-33.55 116.78,-61.36 38.47,-28.07 54.91,-8.56 86.44,-92.01 56.6,-149.85 25.56,-479.01 25.93,-658.02 0.12,-56.57 1.06,-114.78 -0.48,-171.2 -1.33,-48.56 -16.89,-117.22 -11.87,-163.17 37.76,-6.06 63.41,21.78 112.59,54.72 70.59,47.27 161.28,126.33 220.82,191.57 28.92,31.69 25.07,35.63 46.74,74.82 19.55,35.33 45.65,37.95 57.46,63.24 19.08,40.87 -4.77,57.61 29,89.47 26.73,25.22 36.23,20.9 45.53,71.5 7.38,40.2 4.38,64.92 17.41,102.07 11.02,31.44 20.39,43.7 27.59,87.34 17.17,103.85 30.33,399.78 -21.26,485.02l-16.21 16.83c-0.18,0.06 -1.43,0.07 -1.56,0.07l-1.04 -3.2c-4.4,201.56 -24.5,121.85 -61.92,195.6 -28.31,55.77 23.38,28.65 -51.91,120.54 -14.28,17.42 -23.86,38.61 -36.04,53 -49.5,58.43 -128.49,121.37 -168.82,172.75 -20.87,26.59 -91.22,83.26 -121.57,119.1 -90.38,106.7 -69.13,55.28 -89.16,174.76l-3.73 -14.02c-10.78,101.73 -53.36,-49.61 -55.19,324.29 -0.21,44.04 -6.12,84.38 26.29,100.84 70.84,35.98 57.67,-25.42 181.28,-54.41 11.06,-2.59 19.2,-3.29 30.08,-5.88l158.63 -117.06c31.47,-17.3 22.08,-16.79 43.81,-40.75 41.5,-45.76 159.13,-100.33 202.52,-179.35 0.65,-1.2 1.32,-2.97 2,-4.1 23.4,-39.01 -24.04,18.22 10.63,-12.75 9.69,-8.66 10.73,-5.17 20.44,-18.52 27.49,-37.83 0.51,-17.31 54.73,-71.22 18.05,-17.94 27.86,-20.61 40.44,-37.29l0.17 -28.19 0.98 -10.67 -12.5 0.65c-6.43,36 -47.79,50.56 -67.88,80.3 -11.54,17.09 -16.11,29.65 -30.32,46.59 -13.02,15.51 -24.22,27.19 -39.07,43.16 -85.17,91.59 -76.79,74.57 -168.04,142.56 -36.37,27.1 -36.69,48.09 -77.88,73.8 -42.99,26.84 -71.76,52.11 -96.76,62.27 -45.99,18.69 -60.71,37.85 -105.47,53.69 -40.03,14.15 -75.06,37.19 -125.35,35.15 -26.44,-41.43 -19.81,-71.35 -19.09,-134.85 1.63,-144.28 33.7,-124.65 58.79,-258.3 18.8,-100.16 142.9,-192.83 210.59,-265.78 25.17,-27.13 58.1,-56.46 81.25,-77.32 12.41,-11.18 69.42,-70.85 72.04,-79.76 10.06,-46.03 43.01,-64.46 63.35,-94.54 20.5,-30.31 23.43,-69.51 47.31,-104.93 24.01,-35.61 74.08,-177.75 81.89,-222.5 22.5,-128.93 25.76,-453.44 -13.67,-565.79 -12.43,-35.44 -22.99,-79.47 -36.61,-115.56 -11.7,-31 -42.37,-61.63 -54.74,-96.18 -41.1,-114.82 -33.97,-41.37 -86.13,-142.3 -33.32,-64.5 -207.67,-213.67 -280.12,-253.8 -46.69,-25.85 -59.5,-61.52 -110.17,-40.47l2.93 677.44c-0.81,95.86 8.1,238.39 -21.76,318.34 -23.59,63.19 -33.59,54.79 -82.19,86.46 -41.46,27.01 -19.56,23.91 -78.76,54.07l-29.16 23.27z"/>
   <path class="fil15" d="M10963.81 8462.26c71.24,26.43 140.52,23.56 196.48,73.32 97.5,86.71 36.88,21.16 123.04,142.84 32.33,45.66 30.02,73.72 33.14,138.83 2.43,50.69 -5.55,101.22 -32.39,137.51l-69.53 101.49c-35.81,39.96 -62,41.91 -102.94,74.39 -41.77,33.15 -57.56,42.33 -127.36,43.26 -62.3,0.83 -105.76,0.53 -146.86,-30.55 -64.43,-48.73 -36.73,-15.33 -101.18,-69.82 -23.66,-20 -59.17,-73.35 -75.56,-101.71 -21.39,-36.99 -29.83,-85.12 -30.21,-139.74 -0.76,-108.81 18.82,-178.97 94.72,-252.54 134.84,-130.71 161.78,-72.82 235.19,-117l-1.94 -15.96c-184.68,-2.74 -105.95,-14.7 -219.21,58.23 -63.43,40.85 -88.77,105.08 -135.26,162.44 -32.33,39.9 -23.56,112.4 -22.84,171.14 1.41,115.69 1.34,109.46 72.33,216.41 13.69,20.62 28.15,29.79 47.91,53.49 50.68,60.82 42.13,41.68 112.28,84.13 50.21,30.38 92.09,31.84 164.11,32.46 95.9,0.83 132.44,-21.87 216.67,-74.59l98.28 -98.2c10.98,-17.53 22.76,-48.63 33.12,-68.22 76.76,-145.07 38.15,-327.27 -75.16,-437.41 -120.59,-117.22 -148.68,-102.96 -284.76,-99.4l-2.07 15.19z"/>
   <path class="fil16" d="M11970.46 3394.77l30.22 8.44c58.82,8.65 74.64,3.63 121.7,29.17 47.1,25.57 39.48,25.22 102.14,39.48 65.09,14.82 46.04,30.16 86.04,51.19 78.41,41.24 63.39,36.78 122.48,85.98 14.1,11.74 24.41,22.11 37.2,32.88 35.16,29.6 137.33,146.99 164.54,183.51l127.13 226.95c13.17,35.01 9.98,83.17 21.03,119.16 11.1,36.16 32.04,58.95 41.26,97.42 33.5,139.58 19.63,374.03 19.45,536.26 -0.2,187.79 0.06,375.7 0.39,563.5 0.94,528.54 -47.43,361.03 -69.28,633.24 -15.74,196.02 -36.91,115.41 -64.87,211.85l-68.66 208.99c-14.96,43.3 -31.73,52.5 -48.23,91.11 -14.67,34.32 -16.57,71.81 -40.91,99.89 -12.11,13.98 -23.5,18.1 -34.2,34.75 -11.26,17.52 -10.01,33.11 -30.02,47.75 -1.72,10.24 -5.35,10.74 -15.28,21.86 -6.73,13.35 -14.31,48.35 -24.31,54.85l-1.07 17.44 24.33 -5.09c32.89,-35.23 39.97,-35.62 55.59,-88.36 17.1,-57.72 37.13,-46.79 61.54,-84.36 12.65,-19.48 13.66,-48.48 45.59,-100.01 26.71,-43.1 24.36,-61.85 43.54,-108.23 19.12,-46.28 32.13,-41.99 41.81,-103.38 8.01,-50.82 6.76,-79.75 35.07,-117.63 54.77,-73.27 33.77,-146.62 56.44,-240.47 35.93,-148.8 27.73,-78.53 47.74,-243.56 27.69,-228.39 11.08,-348.73 11.03,-571.26 -0.05,-204.77 12.17,-730.55 -16.57,-869.72 -10.89,-52.73 -26.04,-62.19 -42.92,-102.36 -16.05,-38.2 -9.11,-88.93 -25.42,-126.57 -15.37,-35.49 -40.2,-34.94 -58.43,-87.1 -26.94,-77.09 -72.14,-125.33 -114.61,-182.7l-139.66 -157.72 -85.69 -66.19c-17.68,-11.52 -27.59,-14.17 -44.75,-24.86 -20.44,-12.74 -24.22,-21.87 -41.65,-34.31 -32.82,-23.43 -74.76,-21.93 -109.27,-42.69 -75.36,-45.3 -80.17,-37.39 -164.17,-56.86 -39.57,-9.18 -33.26,-13.87 -55.68,-20.76 -12.26,37.81 -0.99,-16.98 -8.42,16.44l7.8 22.04z"/>
   <path class="fil17" d="M9482.92 6785.73c10.06,-25.52 -1.5,-1.7 12.65,-5.09l3.24 -18.72c-16.8,-57.05 -34.77,-53.5 -63.71,-91.01 -10.37,-13.44 -13.83,-40.31 -20.35,-55.85 -9.37,-22.33 -20.88,-23.2 -32.8,-42.38 -22.5,-36.19 -21.98,-66.91 -48.15,-104.66 -20.09,-28.98 -39.13,-76.25 -32.01,-119.76 -10.64,-4.61 -10.7,-3.71 -21.17,-23.28 -6.14,-11.47 -7.74,-17.02 -15.74,-29 -58.24,-87.28 -12.79,-148.19 -55.21,-203.93 -43.83,-57.61 -56.65,-201.72 -68.2,-278.9 -19.24,-128.54 -28.8,-170.67 -30.09,-317.78l0.94 -1032.06c-0.27,-82.33 -2.98,-159.96 29,-235.06 8.57,-20.14 13.86,-38.59 22.04,-59.21 23.29,-58.69 10.68,-68.71 47.61,-123.72 23.21,-34.56 17.36,-93.75 49.6,-114.28 10.37,-26.54 18.49,-23.66 34.61,-55.57 27.25,-53.96 57.32,-87.53 98.65,-135.14 15.51,-17.86 23.48,-28.97 36.31,-46.78 15.8,-21.93 175.68,-140.92 220.14,-163.06 51.69,-25.72 34.11,-42.15 97.67,-59.85 54.58,-15.21 68.23,-8.37 123.07,-36.97 39.69,-20.7 66.34,-26.7 120.06,-31.44 6.33,-11.19 7.91,-10.77 8.67,-27.02 -34.41,11.47 -78.85,13.78 -116.23,26.03 -38.52,12.63 -64.18,32.72 -103.03,42.77 -60.33,15.6 -60.48,3.68 -101.79,43.18 -37.65,35.99 -58.13,29.57 -98.31,53.89 -16.35,9.89 -23.94,20.06 -38.04,31.46l-78.97 66.62c-43.84,36.07 -71.47,70.71 -106.65,114.81 -23.54,29.52 -51.93,51.39 -66.11,85.58 -37.06,89.31 -59.76,53.86 -85.55,129.61 -9.24,27.14 -10.78,29.86 -24,52.16 -23.25,39.22 -26.42,55.9 -39.63,105.68 -11.13,41.98 -31.65,65.33 -43.93,107.9 -18.83,65.36 -11.82,482.74 -11.81,582.96l17.53 1014.33c9.45,49.32 22.55,80.75 31.58,120.1 9.4,40.9 11.91,83.32 23.09,122.5 12.51,43.85 32.15,67.15 42.02,103.56 9.82,36.24 9.7,89.32 25.11,120.24 20.08,40.27 40.5,37.83 52.98,99.18 11.41,56.09 8.79,67.49 38.27,107 25.24,33.84 29.91,65.56 53.28,98.7 10.47,14.83 19.21,23.25 27.92,41.89 10.05,21.51 12.24,31.85 26.02,49.74 13.48,17.51 24.1,22.79 35.37,40.69 9.61,15.27 14.9,34.11 24.06,49.94z"/>
   <path class="fil17" d="M11925.06 3735.77c5.44,25.19 20.74,13.56 -4.15,42.59 72.02,-1.11 166.56,61.13 222.73,101.4 30.31,21.72 147.43,136.47 164.93,171.1 49.26,97.58 69.59,75.6 75.39,146.8 10.11,124.39 19.56,91.12 40.35,181.24 21.54,93.36 10.6,938.16 10.96,1097.48 0.4,170.15 -26.46,189.24 -37.91,291.43 -11.23,100.31 -1.57,213.13 -50.93,285.63 -42.54,62.48 -23.44,111.57 -52.68,168.8 -15.91,31.12 -25.23,31.58 -37.71,69.74 -27.55,84.26 -92.6,166.42 -118.69,217.16 23.56,12.09 8.05,-22.98 17.68,8.11l12.5 -0.65 41.83 -75.63c13.02,-24.89 29.46,-44.27 43.2,-69.57 14.31,-26.39 18.52,-54.65 33.08,-81.04 14.38,-26.07 29.37,-38.89 38.47,-70.07 8.99,-30.84 6.4,-63.66 18.13,-95.58 26.6,-72.42 58.88,-50.17 75.04,-262.3 2.61,-34.32 28.71,-102.76 35.49,-189.74 18.82,-241.19 7.96,-836.2 7.68,-1108.04 -0.13,-120.46 4.26,-197.15 -36.55,-298.5 -12.4,-30.8 -11.67,-53.78 -20.37,-87.03 -8.69,-33.17 -17.33,-53.72 -35.16,-81 -8.01,-12.26 -16.44,-20.76 -23.13,-34.98 -7.24,-15.37 -9.79,-30.98 -15.38,-42.7 -14.91,-31.3 -31.93,-28.76 -56.51,-54.71 -22.01,-23.24 -30.11,-31.31 -54.46,-53.46 -23.31,-21.2 -33.38,-37.21 -58.49,-55.22 -22.22,-15.93 -41.64,-26.02 -63.37,-44.53 -20.25,-17.26 -89.02,-41.36 -121.96,-73.84 -14.87,-14.66 -3.31,1.77 -13.65,-18.16l-36.34 15.28z"/>
   <path class="fil18" d="M9724.06 6418.54c15.48,59.01 15.15,54.36 48.81,92.4l17.61 13.33c21.15,18.68 -8.3,1.49 17.02,15.79 -1.65,-42.46 -12.64,-52.26 -33.53,-75.45 -19.3,-21.4 -21.73,-44.31 -36.4,-75.53 -16.6,-35.35 -34.38,-26.6 -49.58,-63.48 -11.71,-28.41 -12.61,-63.34 -22.56,-94.22 -9.35,-29.06 -26,-43.28 -38.9,-76 -11.99,-30.41 -17.48,-55.49 -26.81,-85.83 -55,-178.56 -32.13,-122.87 -63.93,-279.64 -25.92,-127.83 -39.83,-42.11 -45.36,-294.3 -2.3,-104.96 -5,-1090.6 3.43,-1138.21 8.32,-47.06 48.15,-108.18 62.03,-162.7 18.61,-73.1 61.91,-127.63 106.96,-178.91 89.28,-101.64 27.73,-33.76 116.5,-111.51 10.48,-9.18 19.03,-19.4 29.67,-27.11l150.27 -77.53c12.99,-4.05 29.46,-9.76 40.58,-16.06 21.64,-12.24 22.77,-15.63 25.19,-38.34 -30.31,9.03 -43.31,25.73 -83.24,37.04 -34.85,9.87 -111.91,53.44 -139.97,74.73 -84.85,64.36 -99.74,85.26 -169.97,159.32 -98.17,103.51 -94.09,180.56 -112.04,216.81 -11.95,24.15 -28.16,40.93 -36.3,69.61 -25.29,89.07 -15.31,520.46 -15.2,629.09 0.26,247.49 -21.29,628.19 27.15,844.89 21.72,97.14 25.31,16.4 38.91,186.06 3.84,47.99 78.58,234.18 102.19,273.01 22.53,37.06 22.54,94.9 40.26,118.37 19.34,25.64 42.32,9 47.21,64.37z"/>
   <path class="fil19" d="M10078.02 3627.56c0.07,-82.18 -12.39,-261.11 33.92,-302.8 16.91,-15.22 38.09,-18.83 51.82,-35.78 13.07,-16.12 15.63,-30.96 38.55,-44.16 34.56,-19.91 109.5,-13.7 154.91,-13.51 178.34,0.79 158.15,-10.35 211.15,46.19 16.14,17.22 29.27,18.92 46.4,35.54 6.95,6.76 60.68,97.05 62.34,102.11 16.34,49.39 20.17,227.96 -11.76,291.74 -8.83,17.66 -52.2,74.51 -64.44,88.03 -25.97,28.69 -63.47,37.17 -98.98,59.63 -45.29,28.64 -59.05,26.98 -125.72,26.98 -90.24,0 -85.41,1.74 -130.07,-35.05 -30.21,-24.89 -48.66,-2.93 -88.15,-41.5 -11.82,-11.54 -15.81,-21.62 -27.54,-32.78 -53.13,-50.55 -52.55,-10.93 -52.44,-144.66zm-69.39 -209.66c1.62,59.97 -6.74,97.92 -6.2,159.17 0.59,66.2 21.63,87.17 26.58,148.16 14.04,21.18 18.76,15.11 39.58,32.7 76.27,64.47 142.23,138.97 251.25,147.85 124.83,10.17 162.57,-0.87 256.72,-59 40.51,-25.01 50.35,-42.52 78.8,-79.62 70.57,-92.06 91.74,-261.67 37.05,-379.33 -33.98,-73.1 -57.54,-85.52 -106.53,-128.12 -63.74,-55.41 -45.88,-45.96 -181.09,-67.08 -77.49,-12.11 -193.25,5.61 -251.04,60.45 -27.3,25.91 -63.44,43.8 -78.04,81 -6.87,17.48 -12.56,47.32 -20.72,62.9 -11.46,21.87 -14.11,11.19 -46.37,20.93z"/>
   <path class="fil20" d="M10814.51 5822.4c4.06,42.45 43.83,37.98 96.04,82.03 39.98,33.74 98.58,46.78 134.77,6.88l155.04 -110.89c16.6,-11.52 34.78,-31.78 49.65,-38.2l29.16 -23.27c59.2,-30.15 37.3,-27.06 78.76,-54.07 48.59,-31.67 58.59,-23.28 82.19,-86.46 29.86,-79.96 20.95,-222.48 21.76,-318.34l-2.93 -677.44c50.67,-21.05 63.48,14.62 110.17,40.47 72.45,40.13 246.8,189.3 280.12,253.8 52.15,100.93 45.02,27.48 86.13,142.3 12.37,34.56 43.04,65.19 54.74,96.18 13.62,36.09 24.18,80.11 36.61,115.56 39.43,112.35 36.17,436.86 13.67,565.79 -7.81,44.75 -57.88,186.89 -81.89,222.5 -23.89,35.42 -26.81,74.61 -47.31,104.93 -20.35,30.08 -53.3,48.51 -63.35,94.54 31.09,-16.26 9.06,-4.02 35.24,-40.56 12.15,-16.94 28.74,-29.3 36.7,-39.19 22.6,-28.08 25.74,-67.28 47.53,-97.59 48.35,-67.23 17.14,-55.27 62.54,-133.09 0.58,-0.99 1.61,-2.48 2.14,-3.52 23.66,-47.51 31.62,-154.76 34.5,-202.75 3.01,-49.99 8.92,-95.26 12.66,-139.31 8.46,-99.78 -23.93,-192.26 -9.98,-282.69l2.61 -26.31 -21.09 -0.89c-6.31,-70.79 -64.22,-171.96 -93.74,-233.55 -32.02,-66.8 -17.08,-48.59 -63.3,-98.74 -18.85,-20.45 -15.81,-36.53 -64.18,-94.78l-121.3 -123.94 -143.77 -97.93c-33.75,-22.22 -58.72,-64.06 -108.26,-43.97 -33.07,18.11 -21.04,80 -19.92,117.67l4.84 379.88c-1.51,127.15 17.63,395.02 -9.65,501.11 -9.33,36.28 -24.5,58.67 -52.3,76.67 -35.42,22.94 -42.79,24.98 -74.93,52.48 -25.43,21.76 -59.5,30.93 -83.37,49.12l-75.58 51.48c-160.23,98.26 -116.98,137.06 -248.43,59.37 -54.48,-32.21 -56.3,-45.02 -82.26,-45.3z"/>
   <path class="fil21" d="M10657.39 5698.37c0.65,21.66 -2.32,10.57 3.78,24.28 59.2,16.85 50.69,18.45 101.12,56.83 1.06,0.8 2.57,1.99 3.62,2.79l6.98 5.52c1.03,0.7 2.48,1.86 3.54,2.52 28.41,17.63 48.05,2.08 38.06,32.09 25.96,0.28 27.78,13.09 82.26,45.3 131.44,77.69 88.2,38.89 248.43,-59.37l75.58 -51.48c23.87,-18.19 57.94,-27.35 83.37,-49.12 32.13,-27.5 39.51,-29.54 74.93,-52.48 27.8,-18 42.97,-40.38 52.3,-76.67 27.28,-106.09 8.14,-373.96 9.65,-501.11l-4.84 -379.88c-1.12,-37.67 -13.15,-99.56 19.92,-117.67 49.54,-20.09 74.51,21.75 108.26,43.97l143.77 97.93 121.3 123.94c48.37,58.25 45.33,74.32 64.18,94.78 46.22,50.16 31.28,31.95 63.3,98.74 29.52,61.59 87.43,162.76 93.74,233.55l21.09 0.89c0.86,-71 -30.49,-89.71 -58.8,-174.52l-81.23 -146.3c-77.62,-82.84 -29.13,-66.56 -95.43,-132.5 -36.78,-36.57 -74.3,-80.62 -115.78,-112.03l-96.49 -74.35c-14.01,-7.7 -26.14,-10.69 -38.85,-18.3 -35.28,-21.09 -85.51,-94.38 -145.44,-57.84 -44.77,27.3 -24.65,122.7 -24.38,190.35l0.47 683.8c-0.21,232.04 -14.05,168.47 -102.86,240.35 -81.53,65.97 -54.84,33.31 -134.56,93.37 -24.91,18.76 -44.28,24.22 -69.95,44.02 -165.83,127.88 -163.93,48.08 -301.12,-23.53 -56.58,-29.53 -19.54,-35.04 -149.94,-87.86z"/>
   <path class="fil22" d="M11920.91 3778.36c24.89,-29.04 9.59,-17.41 4.15,-42.59 -34.26,9.04 -44.57,29.7 -70.52,65.38 -27.28,37.53 -46.93,33.85 -84.96,55.84 -25.78,14.91 -31.8,35.31 -95.93,43.81 -47.31,6.28 -137.43,15.82 -175.04,-15.74 -0.91,-0.76 -2.16,-2.16 -3.06,-2.92 -0.89,-0.74 -2.24,-2.04 -3.14,-2.74l-23.32 -12.91c-62.11,-29.37 -78.62,-28.61 -111.64,-68.42 -37.62,-45.33 -87.76,-114.96 -106.27,-171.35 -10.58,-32.21 -7.94,-92.69 -7.3,-132.33 1.14,-70.78 10.19,-57.88 35.44,-104.14 22.26,-40.78 16.93,-52.84 51.56,-86.93l66.2 -72.98c50.6,-41.07 229.88,-101.69 323.41,-47.72 17.18,9.91 27.77,14.73 45.54,24 7.62,3.97 15.51,7.68 19.52,9.94l25.57 21.3c17.28,1.44 23.3,12.67 35.47,27.29 15.59,18.7 21.69,21.57 39.78,36.35 23.5,19.22 49.13,56.34 61.39,86.16 10.01,3.39 11.89,3.72 22.71,7.11l-7.8 -22.04c7.43,-33.43 -3.84,21.37 8.42,-16.44 -40.02,-71.05 -32.21,-49.04 -74.95,-89.98 -43.35,-41.52 -27.7,-42.93 -89.83,-74.47 -96.58,-49.04 -100.92,-74.38 -265.91,-51.73 -96.83,13.29 -151.99,64.69 -208.34,120 -65.02,63.83 -32.65,46.28 -67.24,97.22 -36.88,54.32 -40.04,38.5 -49.7,120.29 -5.76,48.77 -0.64,111.84 5.38,155.13 7.89,56.77 35.89,61.26 58.15,105.81 26.02,52.08 66.03,100.93 117.71,128.5 28.48,15.19 28.38,21.22 50.83,37.95 30.3,22.58 79.78,30.69 131.83,31.51 184.8,2.89 167.59,-30.5 252.78,-75.71 42.78,-22.7 49.53,-51.12 89.12,-82.45z"/>
   <path class="fil9" d="M11847.81 6238.71c-2.62,8.91 -59.63,68.58 -72.04,79.76 -23.15,20.87 -56.08,50.19 -81.25,77.32 -67.69,72.96 -191.79,165.62 -210.59,265.78 -25.08,133.65 -57.16,114.02 -58.79,258.3 -0.72,63.51 -7.35,93.43 19.09,134.85 50.3,2.04 85.32,-21 125.35,-35.15 44.76,-15.83 59.48,-35 105.47,-53.69 25,-10.16 53.77,-35.43 96.76,-62.27 41.2,-25.71 41.52,-46.69 77.88,-73.8 91.26,-67.98 82.87,-50.97 168.04,-142.56 14.84,-15.97 26.05,-27.65 39.07,-43.16 14.21,-16.94 18.78,-29.5 30.32,-46.59 20.09,-29.74 61.45,-44.3 67.88,-80.3 -9.63,-31.09 5.88,3.98 -17.68,-8.11 -12.9,13.48 -15.16,23.5 -30.41,39.46 -13.66,14.3 -25.32,22.9 -37.89,38.05 -11.71,14.12 -17.14,26.61 -28.95,40.7 -13.42,15.99 -21.26,23.33 -35.28,40.67 -24.78,30.65 -216.89,196.65 -235.3,208.08l-87.33 58.22c-23.53,17.48 -46.54,18.44 -94.72,50.94 -37.31,25.16 -63.18,31.63 -123.11,30.5 -31.3,-66.79 3.31,-188.58 21.87,-251.68 25.92,-88.12 -2.46,-101.85 88.04,-209.96l69.39 -76.26c13.97,-14.21 24.32,-20.98 39,-36.96 14.05,-15.31 22.06,-25 36.7,-39.3 15.52,-15.17 25.69,-20.33 41.31,-34.67 30.1,-27.61 89.64,-88 109.59,-118.28 8.91,-13.52 16.57,-29.69 26.98,-42.7 44.14,-55.21 24.69,-0.85 62.46,-89.32 6.96,-16.3 17.28,-31.22 27.65,-48.34 21.46,-35.47 80,-173.54 86.96,-216.62 5.8,-35.9 2.25,-95.47 7.95,-137.68 5.91,-43.77 12.91,-96.23 15.12,-136.35 4.44,-80.49 -12,-155.67 -18.44,-247.24 -0.55,-7.87 -0.22,-9.62 -2.51,-17.1 -6.48,-21.19 7.11,1.38 -7.27,-13.24 -13.94,90.43 18.45,182.91 9.98,282.69 -3.74,44.05 -9.65,89.31 -12.66,139.31 -2.89,47.99 -10.84,155.24 -34.5,202.75 -0.52,1.04 -1.56,2.53 -2.14,3.52 -45.4,77.82 -14.19,65.87 -62.54,133.09 -21.79,30.31 -24.93,69.51 -47.53,97.59 -7.96,9.89 -24.54,22.24 -36.7,39.19 -26.18,36.54 -4.14,24.3 -35.24,40.56z"/>
   <path class="fil23" d="M11186.18 9034.62c-3.3,13.83 -28.39,27.79 -37.55,31.15 -11.69,23.07 -3.08,12.61 -26.43,26.8 -70.44,42.77 -86.31,69.4 -214.54,54.54 -44.15,-5.11 -155.86,-86.7 -182.23,-126.15 -51.74,-77.43 -75.38,-111.06 -69.41,-239.82 2.18,-46.79 11.05,-92.7 33.63,-124.32 12.53,-17.54 1.37,-0.19 17.59,-19.03 27.84,-32.31 6.42,-32.18 55.99,-58.31 48.61,-25.62 27.64,-43.98 98.94,-60.36 39.2,-9 89.24,-22.33 133.52,-16.11 41.67,5.86 87.35,19.34 121.27,37.67 99.78,53.94 89.22,88.99 149.8,160.62 38.99,46.1 40.78,190.04 -7.03,248.09 -27.16,32.98 -35.05,67.82 -73.56,85.23zm-222.36 -572.35l-3.45 0.29c-73.41,44.18 -100.35,-13.71 -235.19,117 -75.9,73.57 -95.49,143.74 -94.72,252.54 0.38,54.61 8.82,102.75 30.21,139.74 16.39,28.36 51.9,81.7 75.56,101.71 64.44,54.49 36.75,21.09 101.18,69.82 41.1,31.08 84.56,31.38 146.86,30.55 69.8,-0.93 85.59,-10.11 127.36,-43.26 40.94,-32.48 67.13,-34.43 102.94,-74.39l69.53 -101.49c26.85,-36.3 34.83,-86.83 32.39,-137.51 -3.13,-65.11 -0.81,-93.17 -33.14,-138.83 -86.15,-121.68 -25.53,-56.13 -123.04,-142.84 -55.97,-49.77 -125.24,-46.89 -196.48,-73.32z"/>
   <path class="fil12" d="M10960.36 8462.56l3.45 -0.29 2.07 -15.19c136.08,-3.56 164.17,-17.82 284.76,99.4 113.31,110.14 151.92,292.33 75.16,437.41 -10.36,19.59 -22.14,50.69 -33.12,68.22l-98.28 98.2c-84.22,52.73 -120.76,75.43 -216.67,74.59 -72.02,-0.62 -113.9,-2.08 -164.11,-32.46 -70.15,-42.45 -61.61,-23.31 -112.28,-84.13 -19.76,-23.7 -34.23,-32.87 -47.91,-53.49 -70.99,-106.95 -70.93,-100.72 -72.33,-216.41 -0.71,-58.74 -9.49,-131.24 22.84,-171.14 46.49,-57.36 71.83,-121.59 135.26,-162.44 113.26,-72.94 34.53,-60.98 219.21,-58.23l1.94 15.96zm-153.56 -35.21c-38.22,-0.39 -46.74,29.11 -69.32,44.38 -54.87,37.1 -16.71,8.51 -62.06,58.23l-102.3 139.07c-22.15,47.75 -25.07,255.8 15.71,328.22 10.46,18.57 39.04,37.98 43.39,73.03 24.05,12.58 56,51.01 72.81,71.69 24.62,30.27 55.54,39.08 85.45,61.28 65.66,48.69 254.45,68.13 349.59,1.39 33.01,-23.16 65.52,-34.27 88.06,-59.24 89.82,-99.5 55.54,-27.93 125.48,-167.66 29.09,-58.11 41.51,-175.73 20.81,-254.79 -26.11,-99.68 -97.02,-193.83 -182.8,-250.19 -41.73,-27.42 -34.89,-41.18 -99.79,-46.24 -104.66,-8.17 -184.52,0.81 -285.03,0.83z"/>
   <path class="fil24" d="M11788.71 8533.67c5.25,-34.36 -53.18,-161.83 -82.04,-196.39 -18.08,-21.64 -18.69,-35.63 -34.96,-59.84 -41.8,-62.2 -159.42,-148.92 -180.37,-201.33 -13.63,-34.11 -22.7,-476.93 -19.01,-548.9 3.28,-63.82 54.09,-66.05 107.39,-81.6 27.35,-7.98 39.32,-23.39 60.89,-31.98 22.72,-9.04 45.79,-10.59 72.37,-22.58 28.72,-12.97 39.71,-23.17 62.6,-33.9 21.34,-9.98 52.84,-14.89 70.59,-26.08 24.87,-15.67 26.79,-31.03 50.14,-44.57 24.41,-14.16 48.62,-14.49 66.27,-27.76 122.08,-91.8 147.19,-99.31 263.3,-211.46 50.07,-48.37 201.08,-203.8 221.33,-256.81l1.07 -17.44 -19.72 2.14c-4.83,22 -62.03,97.93 -77.81,112.14 -56.76,51.12 -32.63,41.99 -93.88,95.6l-46.22 49.83c-20.26,21.6 -27.47,24.3 -50.69,43.27 -36.07,29.48 -20.98,37.21 -104.56,91 -10.37,6.66 -16.18,10.71 -26.65,18.68l-86.51 58c-28.48,14.08 -40.22,11.36 -64.91,31.46 -19.59,15.94 -30.61,33.76 -48.33,45.09 -17.05,10.91 -51.22,15.2 -70.89,23.71 -22.93,9.93 -38.8,23.15 -64.09,32.59 -23.11,8.61 -51.13,11.93 -74.99,20.53l-137.49 58.41c-29.22,19.94 -29.32,21.16 -30.53,65.64l5.73 375.63c5.66,46.09 3.63,149.82 13.63,182.83 13.19,43.52 42.31,61.12 85.27,104.79l95.67 100.52c14.44,20.52 20.87,40.46 33.62,61.01 12.84,20.69 29.11,31.43 39.13,55.27 10.18,24.24 14.76,50.22 23.41,71.78 7.89,19.66 23.6,54.5 41.24,60.72z"/>
   <path class="fil14" d="M11925.06 3735.77l-3.51 -27.89c-25.89,-14.43 -53.3,21.6 -65.67,43.66 -46.12,82.26 -49.7,64.37 -150.93,116.2 -34.85,17.84 -71.64,15.74 -119.55,15.85 -58,0.13 -68.49,-8.2 -103.33,-32.02 -19.75,-13.5 -102.03,-33.8 -149.18,-117.45 -27.01,-47.93 15.05,-16.51 -41.5,-90.67 -27.65,-36.26 -29.31,-133.52 -21.02,-172.26 7.24,-33.82 24.39,-42.89 25.76,-44.52 20.04,-23.63 18.56,-67.01 37.85,-94.95 10.63,-15.37 21.52,-20.65 31.93,-31.69 61.4,-65.06 -10.73,-30.29 121.85,-80.3 220.31,-83.1 187.63,16.17 323.36,18.13l-25.57 -21.3c-4.02,-2.26 -11.91,-5.97 -19.52,-9.94 -17.77,-9.26 -28.36,-14.09 -45.54,-24 -93.54,-53.97 -272.81,6.65 -323.41,47.72l-66.2 72.98c-34.63,34.09 -29.3,46.15 -51.56,86.93 -25.26,46.26 -34.3,33.36 -35.44,104.14 -0.64,39.63 -3.28,100.12 7.3,132.33 18.52,56.38 68.65,126.01 106.27,171.35 33.02,39.8 49.53,39.05 111.64,68.42l23.32 12.91c0.91,0.71 2.25,2 3.14,2.74 0.91,0.76 2.15,2.15 3.06,2.92 37.6,31.56 127.73,22.02 175.04,15.74 64.13,-8.5 70.15,-28.9 95.93,-43.81 38.04,-21.99 57.69,-18.31 84.96,-55.84 25.94,-35.68 36.26,-56.35 70.52,-65.38z"/>
   <path class="fil25" d="M11148.63 9065.77c-94.81,14.09 -91.68,91.55 -236.47,61.96 -41.06,-8.39 -60.7,-30.94 -96.39,-52.5 -28.35,-17.13 -70.3,-40.76 -70.85,-74.02 -31.38,-9.65 -66.48,-127.41 -68.18,-156.19 -5.67,-96.08 5.94,-115.5 42.16,-175.65 16.84,-27.97 16.03,-44.65 44.27,-65.15 75.03,-54.44 115.59,-94.05 240,-80.93 162.35,17.13 323.3,231.1 262.87,369.26 -10.39,23.76 -17.56,21.37 -26.42,30.19 -15.74,15.69 -52.51,107.38 -53.46,111.87 38.51,-17.41 46.4,-52.24 73.56,-85.23 47.81,-58.06 46.02,-201.99 7.03,-248.09 -60.58,-71.63 -50.02,-106.68 -149.8,-160.62 -33.92,-18.33 -79.6,-31.81 -121.27,-37.67 -44.28,-6.23 -94.31,7.11 -133.52,16.11 -71.3,16.38 -50.33,34.74 -98.94,60.36 -49.57,26.13 -28.15,26 -55.99,58.31 -16.22,18.84 -5.07,1.5 -17.59,19.03 -22.58,31.63 -31.45,77.53 -33.63,124.32 -5.97,128.76 17.67,162.39 69.41,239.82 26.37,39.45 138.08,121.04 182.23,126.15 128.22,14.87 144.1,-11.76 214.54,-54.54 23.35,-14.18 14.74,-3.72 26.43,-26.8z"/>
   <path class="fil26" d="M10806.8 8427.35c100.5,-0.02 180.37,-9.01 285.03,-0.83 64.9,5.06 58.06,18.83 99.79,46.24 85.78,56.36 156.7,150.51 182.8,250.19 20.7,79.06 8.28,196.67 -20.81,254.79 -69.94,139.73 -35.65,68.16 -125.48,167.66 -22.54,24.96 -55.05,36.07 -88.06,59.24 -95.14,66.74 -283.93,47.31 -349.59,-1.39 -29.92,-22.19 -60.83,-31 -85.45,-61.28 -16.81,-20.68 -48.76,-59.11 -72.81,-71.69 4.15,36.56 13.99,31.81 37.46,51.61 18.16,15.32 14.33,29.98 29.32,46.19 10.98,11.88 33.42,18.01 48.41,27.1 22.14,13.42 21.52,19.82 42.02,34.22 65.31,45.86 298.14,48.68 369.35,-7.66 21.3,-16.87 6.94,-11.87 43.64,-32.81 19.08,-10.9 29.07,-17.55 40.46,-33.98 48.77,-70.34 48.48,-33.65 76.57,-76.89 13.57,-20.9 55.94,-83.11 59.01,-92.01l27.2 -128.78c7.06,-54.88 -1.31,-90.15 -12.41,-136.65 -5.07,-21.28 -8.65,-41.9 -14.54,-63.45 -10.94,-40.11 -96.85,-147.09 -130.54,-171.38 -16.3,-11.75 -29.47,-14.47 -46.96,-29.26 -38.71,-32.75 -59.47,-41.61 -116.13,-42.3 -90.58,-1.09 -42.55,-17.47 -209.6,-5.11 -58.21,4.31 -62.56,-4.57 -68.71,18.22z"/>
   <path class="fil27" d="M9498.82 6761.92c12.64,3.87 7.52,3.53 11.26,5.47 12.46,6.47 -4.85,0.72 16.25,8.66l144.32 -105.84c13.15,-13.14 16.76,-15.83 30.29,-26.64 45.13,-36.05 58.46,-74.66 112.75,-79.2l-6.19 -24.32c-25.31,-14.3 4.13,2.89 -17.02,-15.79l-17.61 -13.33c-3.24,18.81 -0.17,9.94 -7.13,26.49 -11.46,27.26 -36.61,43.3 -60.09,60.43l-51.29 37.02c-17.43,20.63 3.06,11.06 -29.84,33.67 -32.19,22.13 -68.04,59.84 -103.04,70.55 -7.56,-8.52 -10.16,-14.15 -17.33,-22.93 -6.39,-7.81 -11.76,-13.13 -18,-20.19 -69.24,-78.33 -29.35,-32.09 -55.58,-96.5 -8.33,-20.45 -19.81,-28.36 -29.98,-45.84l-98.8 -205.35c-7.11,43.51 11.92,90.78 32.01,119.76 26.17,37.75 25.66,68.46 48.15,104.66 11.92,19.18 23.43,20.05 32.8,42.38 6.51,15.54 9.98,42.41 20.35,55.85 28.94,37.51 46.92,33.96 63.71,91.01z"/>
   <path class="fil15" d="M10382.56 3606.01c-15.23,-13.63 -13.43,-18.11 -16.25,-27.95 -6.93,-24.23 -22.81,-83.37 27.95,-76.76 42.91,5.59 26.52,57.53 15.37,82.51 -11.35,25.44 -3.44,17.47 -27.08,22.2zm-12.06 -139.04c-116.29,23.8 -81.59,217.03 38.62,180.73 97.38,-29.39 78.63,-204.73 -38.62,-180.73z"/>
   <path class="fil28" d="M10274.92 3589.57c-31.81,-134.02 164.82,-213.31 219.34,-59.71 46.28,130.37 -185.25,203.37 -219.34,59.71zm243.94 16.45c22.36,-34.68 -0.11,-83.05 -15.84,-110.34 -64.84,-112.48 -226.5,-79 -249.5,8.17 -58.86,223.11 206.16,206.58 240.92,140.34l24.43 -38.18z"/>
   <path class="fil29" d="M12166.54 6527.26l-0.17 28.19c9.25,37.06 103.87,82.8 131.43,108.12 36.77,33.77 -3.32,6.34 63.86,56.77l45.35 42.87c17.02,13.16 -1.63,4.41 21.54,11.96l19.72 -2.14c10,-6.5 17.58,-41.5 24.31,-54.85 -26.8,9.29 -12.56,17.53 -46.75,-4.29 -1.17,-0.76 -2.73,-1.81 -3.92,-2.57l-27.22 -17.7c-11.67,-8.46 -28.49,-18.1 -37.65,-25.54 -12.43,-10.11 -15.45,-17.96 -26.88,-30.84 -51.85,-58.43 -32.04,-14.31 -80.14,-71.96 -30.55,-36.61 -32.42,-17.33 -40.32,-49.79 -23.57,0.62 -25.51,6.44 -43.17,11.78z"/>
   <path class="fil18" d="M9260.57 3931.04c44.5,-17.33 42.24,-52.57 71.3,-87.78 93.48,-113.27 103.86,-147.22 227.15,-235.11 29.91,-21.32 59.68,-42.8 94.3,-59.4 42.94,-20.59 49.51,-47.76 97.33,-60.75 49.57,-13.48 74.1,-11.57 122.87,-29.73 36.98,-13.78 25.69,-16.15 48.67,-26.52 16.95,-7.64 14.59,-4.54 34.19,-6.69 18.37,-2.01 20.73,0.07 34.47,-10.24 1,-0.31 1.75,0.81 1.91,-2.49 0.23,-4.59 13.09,15.02 -1.7,-10.09 -53.72,4.75 -80.37,10.75 -120.06,31.44 -54.84,28.6 -68.49,21.76 -123.07,36.97 -63.56,17.7 -45.98,34.12 -97.67,59.85 -44.46,22.14 -204.34,141.12 -220.14,163.06 -12.83,17.8 -20.8,28.92 -36.31,46.78 -41.32,47.61 -71.39,81.18 -98.65,135.14 -16.12,31.92 -24.24,29.04 -34.61,55.57z"/>
   <path class="fil30" d="M11921.55 3707.87l3.51 27.89 36.34 -15.28c5.27,-7.31 4.92,-47.58 12.29,-71.96 45.7,-151.06 5.48,-190.88 16,-229.78 5.09,-18.81 -7.62,-9.59 11,-15.53l-30.22 -8.44c-10.82,-3.39 -12.7,-3.72 -22.71,-7.11 -0.01,4.14 -0.13,15.11 -0.59,16.24l-5.76 6.69c-0.31,0.3 -1.88,1.05 -2.74,1.69 0.33,56.74 10.83,100.2 6.52,158.35 -2.3,31.02 -10.02,37.29 -12.56,69.58 -2.83,36.22 -1.58,40.84 -11.07,67.65z"/>
   <path class="fil31" d="M11597.94 3488.26c-78.37,27.62 -58.16,158.02 29.65,137.22 76.21,-18.04 59.92,-168.79 -29.65,-137.22z"/>
   <path class="fil22" d="M10370.5 3466.97c117.26,-24 136,151.33 38.62,180.73 -120.22,36.3 -154.91,-156.93 -38.62,-180.73zm-95.58 122.6c34.09,143.66 265.61,70.66 219.34,-59.71 -54.52,-153.59 -251.15,-74.31 -219.34,59.71z"/>
   <path class="fil19" d="M11686.57 3589.57c-38.2,118.61 -188.92,47.52 -149.35,-66.37 34.49,-99.3 192.85,-68.67 149.35,66.37zm-92.41 -138.25c-41.76,9.27 -47.29,2.56 -64.02,39.84 -11.68,26.03 -21.02,52.13 -16.72,85.3 18.01,139.01 143.38,107.43 179.09,57.24 15.1,-21.22 17.35,-61.82 16.49,-88.64 -2.48,-77.88 -35.21,-111.41 -114.84,-93.74z"/>
   <path class="fil11" d="M11597.94 3488.26c89.57,-31.56 105.86,119.18 29.65,137.22 -87.81,20.79 -108.02,-109.61 -29.65,-137.22zm88.63 101.31c43.49,-135.05 -114.86,-165.67 -149.35,-66.37 -39.57,113.89 111.16,184.98 149.35,66.37z"/>
   <path class="fil32" d="M10394.26 3501.3c-50.77,-6.61 -34.89,52.53 -27.95,76.76 2.82,9.84 1.02,14.32 16.25,27.95 23.63,-4.73 15.73,3.24 27.08,-22.2 11.14,-24.98 27.54,-76.91 -15.37,-82.51z"/>
   <polygon class="fil33" points="10744.93,9001.21 9078.27,3127.37 "/>
  </g>
 </g>
</svg>
