<?xml version="1.0" encoding="UTF-8"?>
<!DOCTYPE svg PUBLIC "-//W3C//DTD SVG 1.1//EN" "http://www.w3.org/Graphics/SVG/1.1/DTD/svg11.dtd">
<!-- Creator: CorelDRAW -->
<svg xmlns="http://www.w3.org/2000/svg" xml:space="preserve" width="8.5in" height="11in" version="1.1" style="shape-rendering:geometricPrecision; text-rendering:geometricPrecision; image-rendering:optimizeQuality; fill-rule:evenodd; clip-rule:evenodd"
viewBox="0 0 8500 11000"
 xmlns:xlink="http://www.w3.org/1999/xlink"
 xmlns:xodm="http://www.corel.com/coreldraw/odm/2003">
 <defs>
  <style type="text/css">
   <![CDATA[
    .fil3 {fill:#22C55E}
    .fil2 {fill:#3B82F6}
    .fil0 {fill:#3B82F6}
    .fil4 {fill:#F4F4F4}
    .fil1 {fill:#3B82F6;fill-rule:nonzero}
   ]]>
  </style>
 </defs>
 <g id="Layer_x0020_1">
  <metadata id="CorelCorpID_0Corel-Layer"/>
  <rect class="fil0" x="4034.97" y="7610.22" width="423.39" height="1024.17"/>
  <g id="_1499959748144">
   <g>
    <path class="fil1" d="M3654.37 8035.67l1184.7 0c314.03,0 568.52,-349.3 568.52,-663.33l0 -3506.44c0,-313.93 -254.49,-568.62 -568.52,-568.62l-1184.7 0c-313.93,0 -568.62,254.59 -568.62,568.63l0 3506.44c0.2,314.03 254.69,663.32 568.62,663.32zm-468.98 -1429.41l0 -1175.23 274.94 -35.36 0 484.2 -274.94 726.4zm144.27 344.05c102.36,-392.92 223.56,-857.37 223.56,-857.37l1387.1 0 223.86 857.37c-0.1,0 -895.05,304.06 -1834.53,0zm1700.33 -1102.19l0 -452.56 275.04 35.16 0 1143.89 -275.04 -726.5zm275.04 -1634.64l0 1043.65 -275.04 -34.56 0 -825.73 275.04 -183.36zm-156.87 -296.61l-223.46 336.09 -1387.41 0 -223.56 -336.09 1834.43 0zm-1687.84 511.5l0 793.09 -274.94 35.77 0 -1012.32 274.94 183.46z"/>
    <g>
    </g>
    <g>
    </g>
    <g>
    </g>
    <g>
    </g>
    <g>
    </g>
    <g>
    </g>
    <g>
    </g>
    <g>
    </g>
    <g>
    </g>
    <g>
    </g>
    <g>
    </g>
    <g>
    </g>
    <g>
    </g>
    <g>
    </g>
    <g>
    </g>
   </g>
  </g>
  <path class="fil2" d="M5378.69 5659.04c16.96,-22.66 33.65,-45.95 50.08,-69.89 40.2,-57.73 101.53,-92.79 166.29,-101.48 49.02,-84.04 96.3,-175.02 140.06,-273.03 295.79,-645.98 400.88,-1417.96 400.88,-1923.93 0,-238.02 -66.56,-407.83 -203.06,-519.8 -124.28,-105.1 -294.07,-145.38 -441.17,-159.39 -69.98,73.58 -189.04,120.86 -322.07,120.86 -213.6,0 -386.91,-120.86 -386.91,-269.62 0,-147.08 173.31,-267.85 386.91,-267.85 129.57,0 245.05,45.51 315.09,113.74 203.04,15.81 448.15,70.07 640.66,231.09 206.61,169.84 311.61,423.64 311.61,750.98 0,540.99 -131.26,1580.82 -588.11,2359.69 20.99,66.64 12.21,143.66 -29.79,206.61 -120.94,175.13 -272.32,325.04 -440.47,448.64l0 -646.6zm-2273.59 633.63c-158.78,-120.17 -301.74,-264.21 -417.03,-431.17 -42,-62.95 -50.78,-139.96 -29.79,-206.61 -456.85,-778.87 -588.11,-1818.7 -588.11,-2359.69 0,-327.34 105,-581.13 311.61,-750.98 192.51,-161.02 437.61,-215.28 640.66,-231.09 70.04,-68.23 185.52,-113.74 315.09,-113.74 213.6,0 386.91,120.77 386.91,267.85 0,148.76 -173.31,269.62 -386.91,269.62 -133.03,0 -252.09,-47.28 -322.07,-120.86 -147.09,14.02 -316.89,54.3 -441.17,159.39 -136.5,111.97 -203.06,281.78 -203.06,519.8 0,505.96 105.09,1277.95 400.88,1923.93 43.75,98.01 91.03,188.99 140.06,273.03 64.76,8.69 126.09,43.75 166.29,101.48 8.8,12.83 17.69,25.47 26.64,37.93l0 661.09z"/>
  <path class="fil3" d="M5596.96 5471.14c46.97,-81.28 92.27,-168.96 134.31,-263.14 295.79,-645.98 400.88,-1417.96 400.88,-1923.93 0,-238.02 -66.56,-407.83 -203.06,-519.8 -124.28,-105.1 -294.07,-145.38 -441.17,-159.39 -69.98,73.58 -189.04,120.86 -322.07,120.86 -213.6,0 -386.91,-120.86 -386.91,-269.62 0,-147.08 173.31,-267.85 386.91,-267.85 129.57,0 245.05,45.51 315.09,113.74 203.04,15.81 448.15,70.07 640.66,231.09 206.61,169.84 311.61,423.64 311.61,750.98 0,540.99 -131.26,1580.82 -588.11,2359.69l-4.49 -4.33c-48.3,-46.61 -83.2,-57.9 -243.66,-168.28z"/>
  <path class="fil0" d="M4246.67 8383.93c271.8,0 492.13,220.33 492.13,492.13 0,271.8 -220.33,492.13 -492.13,492.13 -271.8,0 -492.13,-220.33 -492.13,-492.13 0,-271.8 220.33,-492.13 492.13,-492.13z"/>
  <path class="fil3" d="M2896.37 5471.14c-46.97,-81.28 -92.27,-168.96 -134.31,-263.14 -295.79,-645.98 -400.88,-1417.96 -400.88,-1923.93 0,-238.02 66.56,-407.83 203.06,-519.8 124.28,-105.1 294.07,-145.38 441.17,-159.39 69.98,73.58 189.04,120.86 322.07,120.86 213.6,0 386.91,-120.86 386.91,-269.62 0,-147.08 -173.31,-267.85 -386.91,-267.85 -129.57,0 -245.05,45.51 -315.09,113.74 -203.04,15.81 -448.15,70.07 -640.66,231.09 -206.61,169.84 -311.61,423.64 -311.61,750.98 0,540.99 131.26,1580.82 588.11,2359.69l4.49 -4.33c48.3,-46.61 83.2,-57.9 243.66,-168.28z"/>
  <path class="fil4" d="M4245.75 8467.61c230.87,0 418.03,187.16 418.03,418.03 0,230.87 -187.16,418.03 -418.03,418.03 -230.87,0 -418.03,-187.16 -418.03,-418.03 0,-230.87 187.16,-418.03 418.03,-418.03z"/>
  <path class="fil3" d="M4246.67 8492.35c217.43,0 393.7,176.26 393.7,393.7 0,217.44 -176.27,393.7 -393.7,393.7 -217.43,0 -393.7,-176.26 -393.7,-393.7 0,-217.44 176.27,-393.7 393.7,-393.7z"/>
 </g>
</svg>
