<?xml version="1.0" encoding="iso-8859-1"?>
<!-- Uploaded to: SVG Repo, www.svgrepo.com, Generator: SVG Repo Mixer Tools -->
<svg height="800px" width="800px" version="1.1" id="Layer_1" xmlns="http://www.w3.org/2000/svg" xmlns:xlink="http://www.w3.org/1999/xlink" 
	 viewBox="0 0 512 512" xml:space="preserve">
<g transform="translate(1 1)">
	<path style="fill:#FECC00;" d="M295.96,24.6v-8.533c0-5.12-3.413-8.533-7.68-8.533H179.053c-4.267,0-7.68,3.413-7.68,8.533V24.6
		H61.293c-8.533,0-15.36,7.68-15.36,17.067V485.4c0,9.387,6.827,17.067,15.36,17.067h343.893c8.533,0,15.36-7.68,15.36-17.067
		V41.667c0-9.387-6.827-17.067-15.36-17.067H295.96z"/>
	<path style="fill:#FFA800;" d="M436.76,468.333V41.667c0-9.387-7.68-17.067-17.067-17.067h-15.36c8.533,0,15.36,7.68,15.36,17.067
		V485.4"/>
	<path style="fill:#FFFFFF;" d="M45.933,485.4V41.667c0-9.387,6.827-17.067,15.36-17.067h-15.36c-9.387,0-17.067,7.68-17.067,17.067
		V485.4c0,9.387,7.68,17.067,17.067,17.067h15.36C52.76,502.467,45.933,494.787,45.933,485.4"/>
	<path style="fill:#FFA800;" d="M293.4,75.8H173.933c-5.12,0-8.533-3.413-8.533-8.533v-51.2c0-5.12,3.413-8.533,8.533-8.533H293.4
		c5.12,0,8.533,3.413,8.533,8.533v51.2C301.933,72.387,298.52,75.8,293.4,75.8"/>
	<path style="fill:#FFE100;" d="M301.933,58.733v8.533c0,5.12-3.413,8.533-8.533,8.533H173.933c-5.12,0-8.533-3.413-8.533-8.533
		v-8.533H71.533c-5.12,0-8.533,3.413-8.533,8.533V459.8c0,5.12,3.413,8.533,8.533,8.533h290.133c5.12,0,42.667-37.547,42.667-42.667
		v-358.4c0-5.12-3.413-8.533-8.533-8.533H301.933z"/>
	<g>
		<path style="fill:#FECC00;" d="M191,246.467c0,14.507-11.093,25.6-25.6,25.6s-25.6-11.093-25.6-25.6
			c0-14.507,11.093-25.6,25.6-25.6S191,231.96,191,246.467"/>
		<path style="fill:#FECC00;" d="M327.533,246.467c0,14.507-11.093,25.6-25.6,25.6s-25.6-11.093-25.6-25.6
			c0-14.507,11.093-25.6,25.6-25.6S327.533,231.96,327.533,246.467"/>
		<path style="fill:#FECC00;" d="M348.013,186.733H119.32c-7.68,0-13.653,5.973-13.653,13.653v33.28
			c0,7.68,5.973,13.653,13.653,13.653h20.48c0-14.507,11.093-25.6,25.6-25.6s25.6,11.093,25.6,25.6h85.333
			c0-14.507,11.093-25.6,25.6-25.6s25.6,11.093,25.6,25.6h20.48c7.68,0,13.653-5.973,13.653-13.653v-33.28
			C361.667,192.707,355.693,186.733,348.013,186.733"/>
	</g>
	<path style="fill:#63D3FD;" d="M327.533,186.733H139.8l36.693-51.2c3.413-5.12,9.387-8.533,16.213-8.533h81.92
		c5.973,0,11.947,3.413,16.213,8.533L327.533,186.733z"/>
	<path d="M472.6,374.467c-3.413,0-6.827-2.56-8.533-5.973c-11.947-42.667-49.493-70.827-92.16-70.827
		c-43.52,0-84.48,29.867-96.427,70.827c-1.707,4.267-5.973,6.827-10.24,5.973c-4.267-0.853-6.827-5.973-5.973-10.24
		c14.507-49.493,60.587-83.627,112.64-83.627c50.347,0,93.867,33.28,108.373,82.773c1.707,4.267-1.707,9.387-5.973,10.24
		C474.307,374.467,473.453,374.467,472.6,374.467z"/>
	<path d="M371.907,511c-54.613,0-102.4-38.4-112.64-92.16c-0.853-4.267,1.707-9.387,6.827-10.24
		c4.267-0.853,9.387,1.707,10.24,6.827c9.387,45.227,49.493,78.507,96.427,78.507c45.227,0,82.773-31.573,92.16-78.507
		c0.853-4.267,5.12-7.68,10.24-6.827c4.267,0.853,7.68,5.12,6.827,10.24C470.04,474.307,426.52,511,371.907,511z"/>
	<polygon points="489.667,374.467 421.4,374.467 421.4,357.4 472.6,357.4 472.6,306.2 489.667,306.2 	"/>
	<polygon points="267.8,476.867 250.733,476.867 250.733,408.6 319,408.6 319,425.667 267.8,425.667 	"/>
	<path d="M293.4,84.333H173.933c-9.387,0-17.067-7.68-17.067-17.067v-51.2C156.867,6.68,164.547-1,173.933-1H293.4
		c9.387,0,17.067,7.68,17.067,17.067v51.2C310.467,76.653,302.787,84.333,293.4,84.333z M293.4,67.267V75.8V67.267L293.4,67.267z
		 M173.933,16.067v51.2H293.4v-51.2H173.933z"/>
	<path d="M369.347,511H45.933c-14.507,0-25.6-11.093-25.6-25.6V41.667c0-14.507,11.093-25.6,25.6-25.6h110.933
		C156.867,6.68,164.547-1,173.933-1H293.4c9.387,0,17.067,7.68,17.067,17.067H421.4c14.507,0,25.6,11.093,25.6,25.6v391.68
		C447,476.013,412.013,511,369.347,511z M45.933,33.133c-5.12,0-8.533,3.413-8.533,8.533V485.4c0,5.12,3.413,8.533,8.533,8.533
		h323.413c33.28,0,60.587-27.307,60.587-60.587V41.667c0-5.12-3.413-8.533-8.533-8.533H301.933c-5.12,0-8.533-3.413-8.533-8.533
		v-8.533H173.933V24.6c0,5.12-3.413,8.533-8.533,8.533H45.933z"/>
	<path d="M356.547,476.867H71.533c-9.387,0-17.067-7.68-17.067-17.067V67.267c0-9.387,7.68-17.067,17.067-17.067H165.4
		c5.12,0,8.533,3.413,8.533,8.533v8.533H293.4v-8.533c0-5.12,3.413-8.533,8.533-8.533H395.8c9.387,0,17.067,7.68,17.067,17.067
		v353.28C412.867,451.267,387.267,476.867,356.547,476.867z M71.533,67.267V459.8h285.013c21.333,0,39.253-17.92,39.253-39.253
		V67.267h-85.333c0,9.387-7.68,17.067-17.067,17.067H173.933c-9.387,0-17.067-7.68-17.067-17.067H71.533z"/>
	<path d="M327.533,195.267H139.8c-3.413,0-5.973-1.707-7.68-4.267c-1.707-2.56-0.853-5.973,0.853-8.533l36.693-51.2
		c5.12-7.68,13.653-11.947,23.04-11.947h81.92c9.387,0,17.92,4.267,23.04,11.947l36.693,51.2c1.707,2.56,1.707,5.973,0.853,8.533
		C333.507,193.56,330.947,195.267,327.533,195.267z M156.013,178.2h154.453l-27.307-38.4c-1.707-2.56-5.12-4.267-9.387-4.267h-81.92
		c-3.413,0-6.827,1.707-9.387,4.267L156.013,178.2z"/>
	<path d="M165.4,280.6c-18.773,0-34.133-15.36-34.133-34.133s15.36-34.133,34.133-34.133s34.133,15.36,34.133,34.133
		S184.173,280.6,165.4,280.6z M165.4,229.4c-9.387,0-17.067,7.68-17.067,17.067s7.68,17.067,17.067,17.067
		s17.067-7.68,17.067-17.067S174.787,229.4,165.4,229.4z"/>
	<path d="M301.933,280.6c-18.773,0-34.133-15.36-34.133-34.133s15.36-34.133,34.133-34.133s34.133,15.36,34.133,34.133
		S320.707,280.6,301.933,280.6z M301.933,229.4c-9.387,0-17.067,7.68-17.067,17.067s7.68,17.067,17.067,17.067
		S319,255.853,319,246.467S311.32,229.4,301.933,229.4z"/>
	<path d="M348.013,255h-20.48c-5.12,0-8.533-3.413-8.533-8.533c0-9.387-7.68-17.067-17.067-17.067s-17.067,7.68-17.067,17.067
		c0,5.12-3.413,8.533-8.533,8.533H191c-5.12,0-8.533-3.413-8.533-8.533c0-9.387-7.68-17.067-17.067-17.067
		s-17.067,7.68-17.067,17.067c0,5.12-3.413,8.533-8.533,8.533h-20.48c-12.8,0-22.187-9.387-22.187-22.187v-33.28
		c0-11.947,9.387-22.187,22.187-22.187h229.547c11.947,0,22.187,9.387,22.187,22.187v33.28C370.2,245.613,360.813,255,348.013,255z
		 M335.213,237.933h13.653c2.56,0,5.12-2.56,5.12-5.12v-33.28c0-2.56-2.56-5.12-5.12-5.12H119.32c-2.56,0-5.12,2.56-5.12,5.12v33.28
		c0,2.56,2.56,5.12,5.12,5.12h13.653c3.413-14.507,17.067-25.6,33.28-25.6s29.013,11.093,33.28,25.6h70.827
		c3.413-14.507,17.067-25.6,33.28-25.6S330.947,223.427,335.213,237.933z"/>
	<path d="M233.667,340.333h-128c-5.12,0-8.533-3.413-8.533-8.533s3.413-8.533,8.533-8.533h128c5.12,0,8.533,3.413,8.533,8.533
		S238.787,340.333,233.667,340.333z"/>
	<path d="M233.667,383h-128c-5.12,0-8.533-3.413-8.533-8.533c0-5.12,3.413-8.533,8.533-8.533h128c5.12,0,8.533,3.413,8.533,8.533
		C242.2,379.587,238.787,383,233.667,383z"/>
	<path d="M233.667,425.667h-128c-5.12,0-8.533-3.413-8.533-8.533s3.413-8.533,8.533-8.533h128c5.12,0,8.533,3.413,8.533,8.533
		S238.787,425.667,233.667,425.667z"/>
	<path d="M233.667,195.267c-5.12,0-8.533-3.413-8.533-8.533V129.56c0-5.12,3.413-8.533,8.533-8.533c5.12,0,8.533,3.413,8.533,8.533
		v57.173C242.2,191.853,238.787,195.267,233.667,195.267z"/>
</g>
</svg>