<?xml version="1.0" ?><svg data-name="Layer 1" id="Layer_1" viewBox="0 0 512 512" xmlns="http://www.w3.org/2000/svg"><path d="M107.32,324.43a26.73,26.73,0,1,0,26.73,26.73A26.76,26.76,0,0,0,107.32,324.43Zm0,43.42A16.69,16.69,0,1,1,124,351.16,16.7,16.7,0,0,1,107.32,367.85Z"/><path d="M327.92,302.72a48.5,48.5,0,0,0-48.18,43.42H155.5a48.44,48.44,0,0,0-96.36,0H55.06a21.6,21.6,0,0,1-21.58-21.58v-73a24.38,24.38,0,0,1,18-23.49l51.38-14a5,5,0,0,0,2.24-1.29l52.47-52.48A24.93,24.93,0,0,1,175,153.11h187.3a5,5,0,0,0,0-10.05H175a34.6,34.6,0,0,0-24.6,10.19L98.89,204.78,48.81,218.4a34.44,34.44,0,0,0-25.38,33.18v73a31.66,31.66,0,0,0,31.63,31.62h4.08a48.44,48.44,0,0,0,96.36,0H279.74a48.44,48.44,0,1,0,48.18-53.46Zm-220.6,86.84a38.4,38.4,0,1,1,38.4-38.4A38.45,38.45,0,0,1,107.32,389.56Zm220.6,0a38.4,38.4,0,1,1,38.39-38.4A38.44,38.44,0,0,1,327.92,389.56Z"/><path d="M327.92,324.43a26.73,26.73,0,1,0,26.73,26.73A26.77,26.77,0,0,0,327.92,324.43Zm0,43.42a16.69,16.69,0,1,1,16.68-16.69A16.71,16.71,0,0,1,327.92,367.85Z"/><path d="M318.31,184.32a22.3,22.3,0,1,0,0,10.05h80.37a5.06,5.06,0,0,0,4.09-2.1l27-37.75a22.32,22.32,0,1,0-7.7-6.52l-26,36.32Zm-21.72,17.27a12.25,12.25,0,1,1,12.25-12.25A12.25,12.25,0,0,1,296.59,201.59Zm143.35-79.15a12.25,12.25,0,1,1-12.25,12.25A12.26,12.26,0,0,1,439.94,122.44Z"/><path d="M466.28,288a22.31,22.31,0,0,0-21.71,17.26h-31L385.9,264.89a5,5,0,0,0-4.15-2.18H288.16a5,5,0,0,0-3.55,1.47l-35.44,35.44H229a22.28,22.28,0,1,0-.43,10h22.73a5,5,0,0,0,3.55-1.47l35.44-35.44H379.1l27.68,40.38a5,5,0,0,0,4.14,2.19h33.65A22.29,22.29,0,1,0,466.28,288ZM207.05,316a12.25,12.25,0,1,1,12.24-12.25A12.26,12.26,0,0,1,207.05,316Zm259.23,6.59a12.25,12.25,0,1,1,12.24-12.24A12.27,12.27,0,0,1,466.28,322.54Z"/><path d="M444.57,225.46H270.29a22.29,22.29,0,1,0,0,10H444.57a22.29,22.29,0,1,0,0-10Zm-196,17.27a12.25,12.25,0,1,1,12.25-12.25A12.26,12.26,0,0,1,248.57,242.73Zm217.71-24.5A12.25,12.25,0,1,1,454,230.48,12.26,12.26,0,0,1,466.28,218.23Z"/></svg>